<?xml version="1.0" encoding="utf-8"?>
<!-- Generator: Adobe Illustrator 17.1.0, SVG Export Plug-In . SVG Version: 6.00 Build 0)  -->
<!DOCTYPE svg PUBLIC "-//W3C//DTD SVG 1.1//EN" "http://www.w3.org/Graphics/SVG/1.1/DTD/svg11.dtd">
<svg version="1.1" id="Layer_1" xmlns="http://www.w3.org/2000/svg" xmlns:xlink="http://www.w3.org/1999/xlink" x="0px" y="0px"
	 viewBox="0 0 511 511" enable-background="new 0 0 511 511" xml:space="preserve">
<g display="none">
	<path display="inline" fill="#D5E2EF" d="M120.8,451.1h269.5v29.9H120.8V451.1z"/>
	<path display="inline" fill="#C3D4E2" d="M255.5,451.1h134.7v29.9H255.5V451.1z"/>
	<path display="inline" fill="#ECF2F9" d="M296,355.1l134.7,134.7L409.6,511L274.9,376.3L296,355.1z"/>
	<path display="inline" fill="#ECF2F9" d="M215,355.1l21.2,21.2L101.4,511l-21.2-21.2L215,355.1z"/>
	<path display="inline" fill="#D5E2EF" d="M435.1,68.6v51.2l-22.5,29.9H104.6l-28.7-29.9V68.6c0-18.9,12-35.6,29.6-42.2
		C153.7,8.7,204.6,0,255.5,0s101.8,8.7,150,26.3C423.2,32.9,435.1,49.7,435.1,68.6z"/>
	<path display="inline" fill="#C3D4E2" d="M435.1,68.6v51.2l-22.5,29.9H255.5V0c50.9,0,101.8,8.7,150,26.3
		C423.2,32.9,435.1,49.7,435.1,68.6z"/>
	<path display="inline" fill="#D5E2EF" d="M435.1,301.4v74.9c0,24.9-20.1,44.9-44.9,44.9H120.8c-24.9,0-44.9-20.1-44.9-44.9v-74.9
		l28.7-29.9h303L435.1,301.4z"/>
	<path display="inline" fill="#C3D4E2" d="M407.6,271.5l27.5,29.9v74.9c0,24.9-20.1,44.9-44.9,44.9H255.5V271.5H407.6z"/>
	<path display="inline" fill="#ECF2F9" d="M75.8,119.8h359.3v181.6H75.8V119.8z"/>
	<path display="inline" fill="#DAE3EA" d="M255.5,119.8h179.6v181.6H255.5V119.8z"/>
	<path display="inline" fill="#4FA5F7" d="M165.7,59.9h179.6v29.9H165.7V59.9z"/>
	<path display="inline" fill="#FFFFFF" d="M315.4,331.4h59.9v29.9h-59.9V331.4z"/>
	<path display="inline" fill="#FFFFFF" d="M135.7,331.4h59.9v29.9h-59.9V331.4z"/>
	<path display="inline" fill="#3E91D6" d="M255.5,59.9h89.8v29.9h-89.8V59.9z"/>
</g>
<g>
	<path fill="#4FA5F7" d="M260.7,38.1l21.2,21.2l-56.1,56.1l-21.2-21.2L260.7,38.1z"/>
	<path fill="#4FA5F7" d="M197,16.9l21.2,21.2l-65.2,65.2l-21.2-21.2L197,16.9z"/>
	<path fill="#3E91D6" d="M451.6,229.1l21.2,21.2l-56.1,56.1l-21.2-21.2L451.6,229.1z"/>
	<path fill="#3E91D6" d="M472.8,292.7l21.2,21.2l-65.1,65.2l-21.2-21.2L472.8,292.7z"/>
	<path fill="#D5E2EF" d="M328.9,110.3L63.5,64.5l-64,64l249.3,99.3L328.9,110.3z"/>
	<path fill="#C3D4E2" d="M400.6,182l-117.4,80.1l99.3,249.4l64-64L400.6,182z"/>
	<path fill="#C3D4E2" d="M211.5,344l-97.4,69.2l58.9,94.3l38.4-38.9V344z"/>
	<path fill="#D5E2EF" d="M166.9,298.9H42.3L3.4,337.8l94.3,58.9L166.9,298.9z"/>
	<path fill="#ECF2F9" d="M494,16.9c-23.3-23.3-61.5-23.3-85.5,0.6L94.3,374.2L43,467.9l91-49.4l360-316.7
		C517.3,78.4,517.3,40.3,494,16.9z"/>
	<path fill="#DAE3EA" d="M494,101.8L134,418.5l-91,49.4l451-451C517.3,40.3,517.3,78.4,494,101.8z"/>
</g>
</svg>
