<?xml version="1.0" encoding="utf-8"?>
<!-- Generator: Adobe Illustrator 17.1.0, SVG Export Plug-In . SVG Version: 6.00 Build 0)  -->
<!DOCTYPE svg PUBLIC "-//W3C//DTD SVG 1.1//EN" "http://www.w3.org/Graphics/SVG/1.1/DTD/svg11.dtd">
<svg version="1.1" id="Layer_1" xmlns="http://www.w3.org/2000/svg" xmlns:xlink="http://www.w3.org/1999/xlink" x="0px" y="0px"
	 viewBox="0 0 512 512" enable-background="new 0 0 512 512" xml:space="preserve">
<g>
	<path fill="#4FA5F7" d="M256,273.6c-31.2,0-56.7-25.5-56.7-56.7c0-31.3,25.5-56.8,56.8-56.8c31.3,0,56.7,25.5,56.7,56.7
		S287.3,273.6,256,273.6L256,273.6z M256,187c-16.5,0-30,13.4-30,30c0,16.5,13.4,30,30,30c16.5,0,30-13.4,30-30
		C286,200.4,272.5,187,256,187L256,187z"/>
	<path fill="#4FA5F7" d="M183.8,389.3c-7.4,0-13.4-6-13.4-13.4c0-24.3,8.9-46.7,25-63.1c15.7-16.1,37.5-25.3,60-25.3h1.2
		c22.5,0,44.3,9.2,60,25.3c16.1,16.4,25,38.8,25,63.1c0,7.4-6,13.4-13.4,13.4H183.8z M256,314.2c-15.5,0-30.6,6.3-41.4,17.3
		c-7.7,7.9-13,17.7-15.6,28.5l-0.6,2.5h115.1L313,360c-2.5-10.8-7.9-20.6-15.6-28.5C286.5,320.5,271.5,314.2,256,314.2z"/>
	<path fill="#4FA5F7" d="M131.2,495c-30.3,0-55-24.7-55-55V72c0-30.3,24.7-55,55-55h249.5c30.3,0,55,24.7,55,55v368
		c0,30.3-24.7,55-55,55h0H131.2z M131.3,43.8c-15.5,0-28.2,12.7-28.2,28.2v368c0,15.5,12.7,28.1,28.2,28.2h249.5
		c15.5,0,28.1-12.7,28.2-28.2V72c0-15.5-12.7-28.1-28.2-28.2H131.3z"/>
	<path fill="#4FA5F7" d="M212.6,92.8c-7.4,0-13.4-6-13.4-13.4s6-13.4,13.4-13.4h83.2c7.4,0,13.4,6,13.4,13.4s-6,13.4-13.4,13.4
		H212.6z"/>
</g>
</svg>
