<?xml version="1.0" encoding="utf-8"?>
<!-- Generator: Adobe Illustrator 17.1.0, SVG Export Plug-In . SVG Version: 6.00 Build 0)  -->
<!DOCTYPE svg PUBLIC "-//W3C//DTD SVG 1.1//EN" "http://www.w3.org/Graphics/SVG/1.1/DTD/svg11.dtd">
<svg version="1.1" id="Layer_1" xmlns="http://www.w3.org/2000/svg" xmlns:xlink="http://www.w3.org/1999/xlink" x="0px" y="0px"
	 viewBox="0 0 512 512" enable-background="new 0 0 512 512" xml:space="preserve">
<path display="none" fill="#4FA5F7" d="M437,75C388.7,26.6,324.4,0,256,0S123.3,26.6,75,75S0,187.6,0,256s26.6,132.7,75,181
	s112.6,75,181,75s132.7-26.6,181-75s75-112.6,75-181S485.4,123.3,437,75z M111.1,429.3c8.5-72.7,71-128.9,144.9-128.9
	c39,0,75.6,15.2,103.2,42.7c23.3,23.3,38,53.7,41.7,86.2C361.6,462.2,311.1,482,256,482S150.4,462.2,111.1,429.3z M256,269.5
	c-42.9,0-77.8-34.9-77.8-77.8c0-42.9,34.9-77.8,77.8-77.8s77.8,34.9,77.8,77.8C333.8,234.6,298.9,269.5,256,269.5z M426.7,403.9
	c-7.6-30.8-23.6-59.2-46.4-82c-18.4-18.4-40.3-32.3-64-40.9c28.6-19.4,47.4-52.2,47.4-89.2C363.8,132.3,315.4,84,256,84
	s-107.8,48.3-107.8,107.8c0,37.1,18.8,69.9,47.5,89.3c-21.9,8-42.1,20.3-59.6,36.5c-25.2,23.5-42.8,53.5-50.9,86.3
	C50.9,364.2,30,312.5,30,256C30,131.4,131.4,30,256,30s226,101.4,226,226C482,312.5,461.1,364.3,426.7,403.9z"/>
<g display="none">
	<g display="inline">
		<g>
			<path fill="#4FA5F7" d="M478.6,225.5v-53c0-27.6-22.5-50.1-50.1-50.1h-64.6l-108-96c-6.3-5.6-15.9-5.6-22.2,0l-108,96H83.5
				c-46,0-83.5,37.4-83.5,83.5v200.3c0,46,37.4,83.5,83.5,83.5h345c27.6,0,50.1-22.5,50.1-50.1v-53c19.4-6.9,33.4-25.5,33.4-47.2
				v-66.8C512,250.9,498,232.4,478.6,225.5z M244.9,61.3l68.8,61.1H176.1L244.9,61.3z M445.2,439.7c0,9.2-7.5,16.7-16.7,16.7h-345
				c-27.6,0-50.1-22.5-50.1-50.1V205.9c0-27.6,22.5-50.1,50.1-50.1h345c9.2,0,16.7,7.5,16.7,16.7v50.1h-50.1
				c-46,0-83.5,37.4-83.5,83.5s37.4,83.5,83.5,83.5h50.1V439.7z M478.6,339.5c0,9.2-7.5,16.7-16.7,16.7h-66.8
				c-27.6,0-50.1-22.5-50.1-50.1s22.5-50.1,50.1-50.1h66.8c9.2,0,16.7,7.5,16.7,16.7V339.5z"/>
		</g>
	</g>
	<g display="inline">
		<g>
			<circle fill="#4FA5F7" cx="395.1" cy="306.1" r="16.7"/>
		</g>
	</g>
</g>
<g display="none">
	<path display="inline" fill="#4FA5F7" d="M505.8,142.9c0-34.5-28-62.5-62.5-62.5H68.6c-34.5,0-62.5,28-62.5,62.5v226.1
		c0,34.5,28,62.5,62.5,62.5h374.8c34.5,0,62.5-28,62.5-62.5V142.9z M68.6,105.5h374.8c20.7,0,37.5,17.4,37.5,38v3.2H31.1v-3.2
		C31.1,122.8,48,105.5,68.6,105.5z M480.9,171.7v43.7H31.1v-43.7H480.9z M443.4,407.8H68.6c-20.7,0-37.5-17.4-37.5-38V240.4h449.7
		v129.4C480.9,390.4,464,407.8,443.4,407.8z"/>
	<path display="inline" fill="#4FA5F7" d="M174,269.6c-9.4,0-18.5,2.4-26.7,7.1c-22.6-12.9-51.2-7.8-67.9,12.2
		c-16.7,20-16.7,49.1,0,69c16.7,20,45.3,25.1,67.9,12.2c19.6,11.2,44.1,9,61.4-5.6c17.3-14.6,23.6-38.4,15.8-59.6
		C216.8,283.7,196.6,269.6,174,269.6z M145.2,323.4c0-3.7,0.7-7.4,2.1-10.9c2.8,7,2.8,14.8,0,21.7
		C146,330.8,145.2,327.1,145.2,323.4L145.2,323.4z M91.9,323.4c0-8.9,4.1-17.4,11.2-22.8c7.1-5.4,16.3-7.3,24.9-5
		c-10.4,17.1-10.4,38.6,0,55.7c-8.6,2.3-17.8,0.4-24.9-5C96.1,340.7,91.9,332.3,91.9,323.4z M174,352.2c-2.5,0-4.9-0.3-7.3-1
		c10.4-17.1,10.4-38.6,0-55.7c10.8-2.8,22.3,0.8,29.4,9.4c7.2,8.6,8.7,20.5,4,30.6C195.4,345.7,185.2,352.2,174,352.2z"/>
</g>
<path fill="#4FA5F7" d="M436.6,26H75.4C53.1,26,35,44.2,35,66.4v203c0,22.3,18.1,40.4,40.4,40.4h100.3l22,20.1l-42.3,42.3
	c-7.4-3.3-15.5-5-23.8-5c-15.8,0-30.7,6.2-41.9,17.4c-23.1,23.1-23.1,60.7,0,83.9c11.2,11.2,26.1,17.4,41.9,17.4s30.7-6.2,41.9-17.4
	l82.5-82.5l82.5,82.5c0,0,0,0,0,0c11.2,11.2,26.1,17.4,41.9,17.4c15.8,0,30.7-6.2,41.9-17.4c23.1-23.1,23.1-60.7,0-83.9
	c-11.2-11.2-26.1-17.4-41.9-17.4c-8.3,0-16.4,1.7-23.8,5L314.4,330l22-20.1h100.2c22.3,0,40.4-18.1,40.4-40.4v-203
	C477,44.2,458.9,26,436.6,26z M75.4,53h361.1c7.4,0,13.5,6,13.5,13.5v31.4H62V66.4C62,59,68,53,75.4,53z M154.5,449.6
	c-6.1,6.1-14.2,9.5-22.9,9.5c-8.6,0-16.8-3.4-22.9-9.5c-12.6-12.6-12.6-33.1,0-45.7c6.1-6.1,14.2-9.5,22.9-9.5s16.8,3.4,22.9,9.5
	C167.1,416.4,167.1,437,154.5,449.6z M403.4,403.8c12.6,12.6,12.6,33.1,0,45.7c-6.1,6.1-14.2,9.5-22.9,9.5c-8.6,0-16.8-3.4-22.9-9.5
	c-12.6-12.6-12.6-33.1,0-45.7c6.1-6.1,14.2-9.5,22.9-9.5C389.2,394.3,397.3,397.7,403.4,403.8z M335,388.8
	c-6.4,7.6-10.5,16.5-12.4,25.7L275.1,367l13.2-13.2l6.2-5.6L335,388.8z M269.7,334.4l-80.1,80.1c-1.9-9.2-6.1-18.1-12.4-25.7
	l68.1-68.1c-1.7,2.3-2.8,5.1-2.8,8.2c0,7.4,6,13.5,13.5,13.5s13.5-6,13.5-13.5c0-7.4-6-13.5-13.5-13.5c-3.1,0-5.9,1-8.2,2.8l8.2-8.2
	h40.4L269.7,334.4z M283,283l96.3-96.3c3.8,7,5.7,14.9,5.5,23.1c-0.3,12.9-5.7,24.7-15.2,33.4L326,283H283z M436.6,283h-70.6
	l21.8-19.9c15-13.7,23.5-32.4,23.9-52.7c0.5-20.3-7.2-39.3-21.5-53.7l-9.5-9.5L244.8,283H75.4c-7.4,0-13.5-6-13.5-13.5V124.8H450
	v144.6C450,276.9,444,283,436.6,283z"/>
</svg>
