<?xml version="1.0" encoding="utf-8"?>
<!-- Generator: Adobe Illustrator 17.1.0, SVG Export Plug-In . SVG Version: 6.00 Build 0)  -->
<!DOCTYPE svg PUBLIC "-//W3C//DTD SVG 1.1//EN" "http://www.w3.org/Graphics/SVG/1.1/DTD/svg11.dtd">
<svg version="1.1" id="Layer_1" xmlns="http://www.w3.org/2000/svg" xmlns:xlink="http://www.w3.org/1999/xlink" x="0px" y="0px"
	 viewBox="0 0 409.8 410.4" enable-background="new 0 0 409.8 410.4" xml:space="preserve">
<g>
	<defs>
		<rect id="SVGID_1_" width="409.8" height="410.4"/>
	</defs>
	<clipPath id="SVGID_2_">
		<use xlink:href="#SVGID_1_"  overflow="visible"/>
	</clipPath>
	<path clip-path="url(#SVGID_2_)" fill="#EBF2FA" d="M132,241.6H84c-6.7,0-12,5.3-12,12v72c0,6.7,5.3,12,12,12h48
		c6.7,0,12-5.3,12-12v-72C144,246.9,138.7,241.6,132,241.6"/>
	<path clip-path="url(#SVGID_2_)" fill="#D4E2EE" d="M228,217.6h-48c-6.7,0-12,5.3-12,12v96c0,6.7,5.3,12,12,12h48
		c6.7,0,12-5.3,12-12v-96C240,222.9,234.7,217.6,228,217.6"/>
</g>
<g>
	<defs>
		<rect id="SVGID_3_" x="0.8" y="0.4" width="409" height="410"/>
	</defs>
	<clipPath id="SVGID_4_">
		<use xlink:href="#SVGID_3_"  overflow="visible"/>
	</clipPath>
	<path clip-path="url(#SVGID_4_)" fill="#4EA6F6" d="M324,193.6h-48c-6.7,0-12,5.3-12,12v120c0,6.7,5.3,12,12,12h48
		c6.7,0,12-5.3,12-12v-120C336,198.9,330.7,193.6,324,193.6"/>
	<path clip-path="url(#SVGID_4_)" fill="#4EA6F6" d="M336,108c0,15.6-10.1,28.8-24,33.8v15c0,6.7-5.3,12-12,12c-6.7,0-12-5.3-12-12
		v-15c-13.9-5-24-18.2-24-33.8c0-6.7,5.3-12,12-12c6.7,0,12,5.3,12,12c0,6.7,5.3,12,12,12c6.7,0,12-5.3,12-12c0-6.7-5.3-12-12-12
		c-19.9,0-36-16.1-36-36c0-15.6,10.1-28.8,24-33.8V12c0-6.7,5.3-12,12-12c6.7,0,12,5.3,12,12v14.2c13.9,5,24,18.2,24,33.8
		c0,6.7-5.3,12-12,12c-6.7,0-12-5.3-12-12c0-6.7-5.3-12-12-12c-6.7,0-12,5.3-12,12c0,6.7,5.3,12,12,12C319.9,72,336,88.1,336,108"/>
	<path clip-path="url(#SVGID_4_)" fill="#3E91D6" d="M336,108c0,15.6-10.1,28.8-24,33.8v15c0,6.7-5.3,12-12,12V120
		c6.7,0,12-5.3,12-12c0-6.7-5.3-12-12-12V72C319.9,72,336,88.1,336,108"/>
	<path clip-path="url(#SVGID_4_)" fill="#3E91D6" d="M300,48V0c6.7,0,12,5.3,12,12v14.2c13.9,5,24,18.2,24,33.8c0,6.7-5.3,12-12,12
		c-6.7,0-12-5.3-12-12C312,53.3,306.7,48,300,48"/>
</g>
<g>
	<defs>
		<rect id="SVGID_5_" width="409.8" height="410.4"/>
	</defs>
	<clipPath id="SVGID_6_">
		<use xlink:href="#SVGID_5_"  overflow="visible"/>
	</clipPath>
	<path clip-path="url(#SVGID_6_)" fill="#3E91D6" d="M336,205.6v120c0,6.7-5.3,12-12,12h-24v-144h24
		C330.7,193.6,336,198.9,336,205.6"/>
	<path clip-path="url(#SVGID_6_)" fill="#C3D4E2" d="M228,337.6h-24v-120h24c6.7,0,12,5.3,12,12v96C240,332.3,234.7,337.6,228,337.6
		"/>
</g>
<g>
	<defs>
		<rect id="SVGID_7_" x="0.8" y="0.4" width="409" height="410"/>
	</defs>
	<clipPath id="SVGID_8_">
		<use xlink:href="#SVGID_7_"  overflow="visible"/>
	</clipPath>
	<path clip-path="url(#SVGID_8_)" fill="#DAE3EA" d="M144,253.6v72c0,6.7-5.3,12-12,12h-24v-96h24C138.7,241.6,144,246.9,144,253.6"
		/>
	<path clip-path="url(#SVGID_8_)" fill="#D4E2EF" d="M406,382l-24,24c-4.6,4.8-12.2,4.8-16.8,0c-4.8-4.6-4.8-12.2,0-16.8l3.4-3.6H36
		c-6.7,0-12-5.3-12-12V41l-3.6,3.4c-4.6,4.8-12.2,4.8-16.8,0c-4.8-4.6-4.8-12.2,0-16.8l24-24c4.6-4.8,12.2-4.8,16.8,0l24,24
		c4.8,4.6,4.8,12.2,0,16.8c-4.6,4.8-12.2,4.8-16.8,0L48,41v320.6h320.6l-3.4-3.6c-4.8-4.6-4.8-12.2,0-16.8c4.6-4.8,12.2-4.8,16.8,0
		l24,24C410.8,369.8,410.8,377.4,406,382"/>
	<path clip-path="url(#SVGID_8_)" fill="#C3D4E2" d="M406,382l-24,24c-4.6,4.8-12.2,4.8-16.8,0c-4.8-4.6-4.8-12.2,0-16.8l3.4-3.6
		H204v-24h164.6l-3.4-3.6c-4.8-4.6-4.8-12.2,0-16.8c4.6-4.8,12.2-4.8,16.8,0l24,24C410.8,369.8,410.8,377.4,406,382"/>
</g>
</svg>
