<?xml version="1.0" encoding="utf-8"?>
<!-- Generator: Adobe Illustrator 17.1.0, SVG Export Plug-In . SVG Version: 6.00 Build 0)  -->
<!DOCTYPE svg PUBLIC "-//W3C//DTD SVG 1.1//EN" "http://www.w3.org/Graphics/SVG/1.1/DTD/svg11.dtd">
<svg version="1.1" id="Layer_1" xmlns="http://www.w3.org/2000/svg" xmlns:xlink="http://www.w3.org/1999/xlink" x="0px" y="0px"
	 viewBox="-49 141 512 512" enable-background="new -49 141 512 512" xml:space="preserve">
<path fill="#EBF2FA" d="M207,653c-68.5,0-132.8-26.6-181.1-74.9C-22.4,529.8-49,465.5-49,397c0-68.5,26.6-132.8,74.9-181.1
	C74.2,167.6,138.5,141,207,141c68.5,0,132.8,26.6,181.1,74.9C436.4,264.2,463,328.5,463,397c0,68.5-26.6,132.8-74.9,181.1l0,0l0,0
	C339.8,626.4,275.5,653,207,653z"/>
<path fill="#DAE3EA" d="M207,141c-1.9,0-3.8,0.2-5.7,0.3v511.4c1.9,0,3.8,0.3,5.7,0.3c68.5,0,132.8-26.6,181.1-74.9
	C436.4,529.8,463,465.5,463,397c0-68.5-26.6-132.8-74.9-181.1C339.8,167.6,275.5,141,207,141z"/>
<path id="SVGCleanerId_0" fill="none" stroke="#4A4A4A" stroke-width="30" stroke-linecap="round" stroke-linejoin="round" stroke-miterlimit="10" d="
	M212.6,391.4"/>
<g>
	
		<path id="SVGCleanerId_0_1_" fill="none" stroke="#4A4A4A" stroke-width="30" stroke-linecap="round" stroke-linejoin="round" stroke-miterlimit="10" d="
		M212.6,391.4"/>
</g>
<path fill="#4DA5F8" d="M112.5,508.2c-4.3,0-8.5-1.6-11.8-4.9c-6.5-6.5-6.5-17.1,0-23.6l189-189c6.5-6.5,17.1-6.5,23.6,0
	c6.5,6.5,6.5,17.1,0,23.6l-189,189C121,506.6,116.8,508.2,112.5,508.2z"/>
<path fill="#3E91D6" d="M289.7,290.7l-88.3,88.3v47.2l111.9-111.9c6.5-6.5,6.5-17.1,0-23.6C306.8,284.2,296.2,284.2,289.7,290.7z"/>
<path fill="#4DA5F8" d="M151.3,347c-12.8,0-25.7-4.9-35.4-14.7c-9.5-9.5-14.7-22.1-14.7-35.4c0-13.4,5.2-26,14.7-35.4
	c9.5-9.5,22-14.7,35.4-14.7c13.4,0,26,5.2,35.4,14.7l0,0v0h0c9.5,9.5,14.7,22.1,14.7,35.4c0,13.4-5.2,26-14.7,35.4
	C177,342.1,164.1,347,151.3,347z M151.3,280.2c-4.5,0-8.7,1.7-11.8,4.9c-3.2,3.2-4.9,7.4-4.9,11.8c0,4.5,1.7,8.7,4.9,11.8
	c6.5,6.5,17.1,6.5,23.6,0c3.2-3.2,4.9-7.4,4.9-11.8c0-4.5-1.7-8.7-4.9-11.8c0,0,0,0,0,0C160,282,155.8,280.2,151.3,280.2z"/>
<path fill="#3E91D6" d="M273.8,536.2c-13.4,0-26-5.2-35.4-14.7c-9.5-9.5-14.7-22-14.7-35.4c0-13.4,5.2-26,14.7-35.4
	c9.5-9.5,22-14.7,35.4-14.7c13.4,0,26,5.2,35.4,14.7l0,0v0h0c9.5,9.5,14.7,22.1,14.7,35.4c0,13.4-5.2,26-14.7,35.4
	C299.8,531,287.2,536.2,273.8,536.2z M273.8,469.4c-4.5,0-8.7,1.7-11.8,4.9c-3.2,3.2-4.9,7.4-4.9,11.8c0,4.5,1.7,8.7,4.9,11.8
	c6.3,6.3,17.3,6.3,23.6,0c3.2-3.2,4.9-7.4,4.9-11.8c0-4.5-1.7-8.7-4.9-11.8c0,0,0,0,0,0C282.5,471.1,278.3,469.4,273.8,469.4z"/>
</svg>
