<?xml version="1.0" encoding="utf-8"?>
<!-- Generator: Adobe Illustrator 17.1.0, SVG Export Plug-In . SVG Version: 6.00 Build 0)  -->
<!DOCTYPE svg PUBLIC "-//W3C//DTD SVG 1.1//EN" "http://www.w3.org/Graphics/SVG/1.1/DTD/svg11.dtd">
<svg version="1.1" id="Layer_1" xmlns="http://www.w3.org/2000/svg" xmlns:xlink="http://www.w3.org/1999/xlink" x="0px" y="0px"
	 viewBox="0 0 35 35" enable-background="new 0 0 35 35" xml:space="preserve">
<g>
	<path fill="#DCE8F2" d="M22.4,6.2v22.5l-2,2H3.9l-2-2V6.2l2-2.1h16.4L22.4,6.2z M22.4,6.2"/>
	<path fill="#CEDDE8" d="M22.4,6.2v22.5l-2,2h-8.2V4.1h8.2L22.4,6.2z M22.4,6.2"/>
	<rect x="3.9" y="4.1" fill="#FFFFFF" width="16.4" height="26.7"/>
	<rect x="12.1" y="4.1" fill="#EFF5FC" width="8.2" height="26.7"/>
	<path fill="#DCE8F2" d="M22.4,3.1v3.1H1.9V3.1C1.9,1.4,3.3,0,5,0h14.3C21,0,22.4,1.4,22.4,3.1L22.4,3.1z M22.4,3.1"/>
	<path fill="#DCE8F2" d="M22.4,28.8v3.1c0,1.7-1.4,3.1-3.1,3.1H5c-1.7,0-3.1-1.4-3.1-3.1v-3.1H22.4z M22.4,28.8"/>
	<path fill="#CEDDE8" d="M22.4,3.1v3.1H12.1V0h7.2C21,0,22.4,1.4,22.4,3.1L22.4,3.1z M22.4,3.1"/>
	<path fill="#CEDDE8" d="M12.1,28.8h10.2v3.1c0,1.7-1.4,3.1-3.1,3.1h-7.2V28.8z M12.1,28.8"/>
	<path fill="#68B1E1" d="M29.6,8.3H13.2c-1.7,0-3.1,1.4-3.1,3.1v12.3c0,1.7,1.4,3.1,3.1,3.1h5.1v3.1c0,0.4,0.2,0.8,0.6,0.9
		c0.4,0.2,0.8,0.1,1.1-0.2l1.3-1.3l2.5-2.5h5.7c1.7,0,3.1-1.4,3.1-3.1V11.3C32.6,9.6,31.3,8.3,29.6,8.3L29.6,8.3z M29.6,8.3"/>
	<path fill="#4AA2DA" d="M32.6,11.3v12.3c0,1.7-1.4,3.1-3.1,3.1h-5.7l-2.5,2.5V8.3h8.2C31.3,8.3,32.6,9.6,32.6,11.3L32.6,11.3z
		 M32.6,11.3"/>
	<path fill="#EFF5FC" d="M24.4,19.5c0,1.3-0.9,2.5-2,2.9v1.2c0,0.6-0.5,1-1,1c-0.6,0-1-0.5-1-1v-1.2c-1.2-0.4-2-1.6-2-2.9
		c0-0.6,0.5-1,1-1c0.6,0,1,0.5,1,1c0,0.6,0.5,1,1,1c0.6,0,1-0.5,1-1c0-0.6-0.5-1-1-1c-1.7,0-3.1-1.4-3.1-3.1c0-1.3,0.9-2.5,2-2.9
		v-1.2c0-0.6,0.5-1,1-1c0.6,0,1,0.5,1,1v1.2c1.2,0.4,2,1.6,2,2.9c0,0.6-0.5,1-1,1c-0.6,0-1-0.5-1-1c0-0.6-0.5-1-1-1
		c-0.6,0-1,0.5-1,1c0,0.6,0.5,1,1,1C23.1,16.5,24.4,17.8,24.4,19.5L24.4,19.5z M24.4,19.5"/>
	<path fill="#E0E8EE" d="M24.4,19.5c0,1.3-0.9,2.5-2,2.9v1.2c0,0.6-0.5,1-1,1v-4.1c0.6,0,1-0.5,1-1c0-0.6-0.5-1-1-1v-2
		C23.1,16.5,24.4,17.8,24.4,19.5L24.4,19.5z M24.4,19.5"/>
	<path fill="#E0E8EE" d="M21.4,14.4v-4.1c0.6,0,1,0.5,1,1v1.2c1.2,0.4,2,1.6,2,2.9c0,0.6-0.5,1-1,1c-0.6,0-1-0.5-1-1
		C22.4,14.9,21.9,14.4,21.4,14.4L21.4,14.4z M21.4,14.4"/>
</g>
<rect id="_x3C_Slice_x3E_" x="-163" y="-187" fill="none" width="360" height="409.6"/>
</svg>
