<?xml version="1.0" encoding="utf-8"?>
<!-- Generator: Adobe Illustrator 17.1.0, SVG Export Plug-In . SVG Version: 6.00 Build 0)  -->
<!DOCTYPE svg PUBLIC "-//W3C//DTD SVG 1.1//EN" "http://www.w3.org/Graphics/SVG/1.1/DTD/svg11.dtd">
<svg version="1.1" id="Layer_1" xmlns="http://www.w3.org/2000/svg" xmlns:xlink="http://www.w3.org/1999/xlink" x="0px" y="0px"
	 viewBox="0 0 495 409" enable-background="new 0 0 495 409" xml:space="preserve">
<g>
	<defs>
		<rect id="SVGID_1_" width="495" height="409"/>
	</defs>
	<clipPath id="SVGID_2_">
		<use xlink:href="#SVGID_1_"  overflow="visible"/>
	</clipPath>
	<path clip-path="url(#SVGID_2_)" fill="#50A5F8" d="M59,362H22.5C10.1,362,0,351.9,0,339.5V216.7c0-12.4,10.1-22.5,22.5-22.5H59
		c12.4,0,22.5,10.1,22.5,22.5v122.8C81.5,351.9,71.4,362,59,362"/>
	<path clip-path="url(#SVGID_2_)" fill="#87BEE7" d="M173.1,286.8l60.2,33.8c14.4,8.1,32.3,2.8,40.6-12c8.5-15,4.1-34.4-9.8-43.8
		l-48.1-32.4c-22.5-15.2-48.7-23.2-75.4-23.2H81.5V342c13,0.4,25.6,4.6,36.5,12.1l43.9,30.1c44.2,30.3,100.6,31.9,146.3,4.3
		l174.1-123.2c16-13.7,17-38.3,2.3-53.4c-12.2-12.5-31.5-14.2-45.6-4L278,296.2"/>
</g>
<g>
	<defs>
		<rect id="SVGID_3_" width="495" height="409"/>
	</defs>
	<clipPath id="SVGID_4_">
		<use xlink:href="#SVGID_3_"  overflow="visible"/>
	</clipPath>
	<path clip-path="url(#SVGID_4_)" fill="#EBF2FA" d="M429.6,114c0-62.5-50.7-113.1-113.1-113.1C254,0.9,203.3,51.5,203.3,114
		c0,62.5,50.7,113.1,113.1,113.1C378.9,227.1,429.6,176.5,429.6,114"/>
	<path clip-path="url(#SVGID_4_)" fill="#FFFFFF" d="M391.9,114c0-41.6-33.8-75.4-75.4-75.4c-41.7,0-75.4,33.8-75.4,75.4
		s33.8,75.4,75.4,75.4C358.1,189.4,391.9,155.6,391.9,114"/>
	<path clip-path="url(#SVGID_4_)" fill="#50A5F8" d="M311.8,169.1v-13.6c-7.8-0.1-16-2.5-20.7-5.9l3.2-9c4.9,3.2,11.9,5.8,19.5,5.8
		c9.6,0,16.1-5.5,16.1-13.1c0-7.4-5.3-11.9-15.3-16c-13.8-5.4-22.3-11.5-22.3-23.2c0-11.1,8-19.6,20.4-21.6V58.9h8.4v13
		c8.1,0.3,13.7,2.4,17.6,4.7l-3.4,8.9c-2.8-1.6-8.4-4.6-17-4.6c-10.4,0-14.3,6.2-14.3,11.5c0,7,5,10.5,16.8,15.3
		c13.9,5.6,21,12.6,21,24.6c0,10.6-7.4,20.5-21.4,22.8v13.9H311.8z"/>
</g>
</svg>
