<?xml version="1.0" encoding="utf-8"?>
<!-- Generator: Adobe Illustrator 17.1.0, SVG Export Plug-In . SVG Version: 6.00 Build 0)  -->
<!DOCTYPE svg PUBLIC "-//W3C//DTD SVG 1.1//EN" "http://www.w3.org/Graphics/SVG/1.1/DTD/svg11.dtd">
<svg version="1.1" id="Layer_1" xmlns="http://www.w3.org/2000/svg" xmlns:xlink="http://www.w3.org/1999/xlink" x="0px" y="0px"
	 viewBox="0 0 376.2 494.3" enable-background="new 0 0 376.2 494.3" xml:space="preserve">
<g>
	<defs>
		<rect id="SVGID_1_" width="376.2" height="494.3"/>
	</defs>
	<clipPath id="SVGID_2_">
		<use xlink:href="#SVGID_1_"  overflow="visible"/>
	</clipPath>
	<path clip-path="url(#SVGID_2_)" fill="#D5E3F0" d="M245.6,97.9L202,97.7l-0.1,18.1L78,116.2V97.9H33.3c-18.4,0-33.3,14.7-33.3,33
		v287.9c0,18.2,14.8,33.1,38.7,33.1h205.5c19.1,0,34.6-15.3,34.6-34.3V130.9C278.9,112.7,264,97.9,245.6,97.9"/>
	<polygon clip-path="url(#SVGID_2_)" fill="#FFFFFF" points="184.5,243.7 26.8,243.7 26.8,150.7 252,150.7 252,243.7 	"/>
	<rect x="119.1" y="400" clip-path="url(#SVGID_2_)" fill="#FFFFFF" width="40.3" height="30.3"/>
	<rect x="119.1" y="330.7" clip-path="url(#SVGID_2_)" fill="#FFFFFF" width="40.3" height="30.3"/>
	<rect x="119.1" y="266.8" clip-path="url(#SVGID_2_)" fill="#FFFFFF" width="40.3" height="30.3"/>
	<rect x="37.2" y="266.8" clip-path="url(#SVGID_2_)" fill="#FFFFFF" width="43.8" height="30.3"/>
	<rect x="38.9" y="330.7" clip-path="url(#SVGID_2_)" fill="#FFFFFF" width="40.3" height="30.3"/>
	<rect x="38.9" y="400" clip-path="url(#SVGID_2_)" fill="#FFFFFF" width="40.3" height="30.3"/>
	<path clip-path="url(#SVGID_2_)" d="M230.7,436.6h-33.3c-2.2,0-4-1.8-4-4v-25.9c0-2.2,1.8-4,4-4h33.3c2.2,0,4,1.8,4,4v25.9
		C234.7,434.8,232.9,436.6,230.7,436.6 M201.4,428.6h25.4v-18h-25.4V428.6z"/>
	<path clip-path="url(#SVGID_2_)" d="M230.7,388.9h-33.3c-2.2,0-4-1.8-4-4V359c0-2.2,1.8-4,4-4h33.3c2.2,0,4,1.8,4,4v25.9
		C234.7,387.1,232.9,388.9,230.7,388.9 M201.4,380.9h25.4v-17.9h-25.4V380.9z"/>
	<path clip-path="url(#SVGID_2_)" d="M230.7,341.2h-33.3c-2.2,0-4-1.8-4-4v-25.9c0-2.2,1.8-4,4-4h33.3c2.2,0,4,1.8,4,4v25.9
		C234.7,339.4,232.9,341.2,230.7,341.2 M201.4,333.2h25.4v-17.9h-25.4V333.2z"/>
	<path clip-path="url(#SVGID_2_)" d="M230.7,298.8h-33.3c-2.2,0-4-1.8-4-4v-25.9c0-2.2,1.8-4,4-4h33.3c2.2,0,4,1.8,4,4v25.9
		C234.7,297.1,232.9,298.8,230.7,298.8 M201.4,290.9h25.4v-17.9h-25.4V290.9z"/>
	<path clip-path="url(#SVGID_2_)" fill="#4FA5F6" d="M198.4,0l-9.3,1.7c-1.8,1.2-3.7,2.9-5.6,5.1c-5,6.1-5.5,12.9-5.7,15.3L78,22.6
		l0,93.6l123.9-0.3l0.4-110.4C202.3,3.3,200.7,1.2,198.4,0"/>
	<path clip-path="url(#SVGID_2_)" fill="#3F91D6" d="M181.9,23.1c0.2-2.4,0.7-9.2,5.7-15.3c1.9-2.2,3.8-3.8,5.6-5.1
		c1.6-1.1,3.1-1.9,4.2-2.4H92.9c-10.3,0-19.9,8-25.8,14.6l-7,8.2H181.9z"/>
	<path clip-path="url(#SVGID_2_)" fill="#4FA5F6" d="M212,454h99l-0.5-1.3V277.5c0-10.4-8.5-18.8-19-18.8l-79.5,0.1L212,454z"/>
	<path clip-path="url(#SVGID_2_)" fill="#3F91D6" d="M212,258.7l-13.9-0.1l-8.3,2c-0.2,0.1-0.3,0.2-0.5,0.3l-5.4,4.2
		c-0.1,0.1-0.3,0.3-0.4,0.5l-4.4,11.9v157.7l3.7,11c0.1,0.1,0.1,0.1,0.2,0.2l9,6.5c0.2,0.1,0.3,0.1,0.5,0.2l19.5,1h0V258.7z"/>
	<path clip-path="url(#SVGID_2_)" fill="#C3D4E2" d="M337.7,416.4c-5.1-3.9-50.5-44.5-56.2-48.8c-7-5.2-16.4-6.4-24.1-2.4
		c-1.9,1-3.6,2.2-5.3,3.7c-0.3,0.3-0.6,0.6-0.9,0.9c-7.7,8.1-7,21.1,1.3,28.6l84.6,90.8l39.1,5V394.2c0-3.4-1.5-6.6-4.1-8.8
		L310.6,334v60.5"/>
</g>
</svg>
