<?xml version="1.0" encoding="utf-8"?>
<!-- Generator: Adobe Illustrator 17.1.0, SVG Export Plug-In . SVG Version: 6.00 Build 0)  -->
<!DOCTYPE svg PUBLIC "-//W3C//DTD SVG 1.1//EN" "http://www.w3.org/Graphics/SVG/1.1/DTD/svg11.dtd">
<svg version="1.1" id="Layer_1" xmlns="http://www.w3.org/2000/svg" xmlns:xlink="http://www.w3.org/1999/xlink" x="0px" y="0px"
	 viewBox="0 0 409.6 409.6" enable-background="new 0 0 409.6 409.6" xml:space="preserve">
<g>
	<defs>
		<rect id="SVGID_1_" width="409.6" height="409.6"/>
	</defs>
	<clipPath id="SVGID_2_">
		<use xlink:href="#SVGID_1_"  overflow="visible"/>
	</clipPath>
	<path clip-path="url(#SVGID_2_)" fill="#D5E3F0" d="M0,277.6c0,6.6,5.4,12,12,12h204v-72H12c-6.6,0-12,5.4-12,12V277.6z"/>
	<polygon clip-path="url(#SVGID_2_)" fill="#70DA40" points="216,241.6 216,313.6 108,313.6 108,229.6 	"/>
	<path clip-path="url(#SVGID_2_)" fill="#EBF2FA" d="M204,145.6H12c-6.6,0-12,5.4-12,12v48c0,6.6,5.4,12,12,12h204v-60
		C216,151,210.6,145.6,204,145.6"/>
	<path clip-path="url(#SVGID_2_)" fill="#DAE3EA" d="M216,157.6v60l-108,12v-84h96C210.7,145.6,216,150.9,216,157.6"/>
	<polygon clip-path="url(#SVGID_2_)" fill="#EBF2FA" points="409.6,258.9 409.6,344.3 344.3,409.6 113.3,409.6 48,344.3 48,258.9 
		113.3,193.6 344.3,193.6 	"/>
	<polygon clip-path="url(#SVGID_2_)" fill="#D9E3EA" points="409.6,258.9 409.6,344.3 344.3,409.6 228,409.6 228,193.6 344.3,193.6 
			"/>
	<path clip-path="url(#SVGID_2_)" fill="#4EA5F5" d="M409.6,397.6v-53.3c-7.1-4.1-15.2-6.7-24-6.7c-26.5,0-48,21.5-48,48
		c0,8.8,2.5,16.9,6.7,24h53.3C404.2,409.6,409.6,404.2,409.6,397.6"/>
	<path clip-path="url(#SVGID_2_)" fill="#4EA5F5" d="M72,337.6c-8.8,0-16.9,2.5-24,6.7v53.3c0,6.6,5.4,12,12,12h53.3
		c4.1-7.1,6.7-15.2,6.7-24C120,359.1,98.5,337.6,72,337.6"/>
	<path clip-path="url(#SVGID_2_)" fill="#4EA5F5" d="M385.6,265.6c8.8,0,16.9-2.5,24-6.7v-53.3c0-6.6-5.4-12-12-12h-53.3
		c-4.1,7.1-6.7,15.2-6.7,24C337.6,244.1,359.1,265.6,385.6,265.6"/>
	<path clip-path="url(#SVGID_2_)" fill="#4EA5F5" d="M120,217.6c0-8.8-2.5-16.9-6.7-24H60c-6.6,0-12,5.4-12,12v53.3
		c7.1,4.1,15.2,6.7,24,6.7C98.5,265.6,120,244.1,120,217.6"/>
	<path clip-path="url(#SVGID_2_)" fill="#4EA5F5" d="M264,325.6c0,15.6-10.1,28.8-24,33.8v14.2c0,6.7-5.3,12-12,12
		c-6.7,0-12-5.3-12-12v-14.2c-13.9-5-24-18.2-24-33.8c0-6.7,5.3-12,12-12c6.7,0,12,5.3,12,12c0,6.7,5.3,12,12,12c6.7,0,12-5.3,12-12
		c0-6.7-5.3-12-12-12c-19.9,0-36-16.1-36-36c0-15.6,10.1-28.8,24-33.8v-14.2c0-6.7,5.3-12,12-12c6.7,0,12,5.3,12,12v14.2
		c13.9,5,24,18.2,24,33.8c0,6.7-5.3,12-12,12c-6.7,0-12-5.3-12-12c0-6.7-5.3-12-12-12c-6.7,0-12,5.3-12,12c0,6.7,5.3,12,12,12
		C247.9,289.6,264,305.7,264,325.6"/>
	<path clip-path="url(#SVGID_2_)" fill="#3D91D6" d="M264,325.6c0,15.6-10.1,28.8-24,33.8v14.2c0,6.7-5.3,12-12,12v-48
		c6.7,0,12-5.3,12-12c0-6.7-5.3-12-12-12v-24C247.9,289.6,264,305.7,264,325.6"/>
	<path clip-path="url(#SVGID_2_)" fill="#3D91D6" d="M228,265.6v-48c6.7,0,12,5.3,12,12v14.2c13.9,5,24,18.2,24,33.8
		c0,6.7-5.3,12-12,12c-6.7,0-12-5.3-12-12C240,270.9,234.7,265.6,228,265.6"/>
	<path clip-path="url(#SVGID_2_)" fill="#EBF2FA" d="M216,12v49.6c0,6.7-5.3,12-12,12H12c-6.7,0-12-5.3-12-12V12C0,5.3,5.3,0,12,0
		h192C210.7,0,216,5.3,216,12"/>
	<path clip-path="url(#SVGID_2_)" fill="#DAE3EA" d="M216,12v49.6c0,6.7-5.3,12-12,12h-96V0h96C210.7,0,216,5.3,216,12"/>
	<path clip-path="url(#SVGID_2_)" fill="#D5E3F0" d="M240,85.6v48c0,6.7-5.3,12-12,12H36c-6.7,0-12-5.3-12-12v-48
		c0-6.7,5.3-12,12-12h192C234.7,73.6,240,78.9,240,85.6"/>
	<path clip-path="url(#SVGID_2_)" fill="#C3D5E3" d="M240,85.6v48c0,6.7-5.3,12-12,12h-96v-72h96C234.7,73.6,240,78.9,240,85.6"/>
</g>
</svg>
