<?xml version="1.0" encoding="utf-8"?>
<!-- Generator: Adobe Illustrator 17.1.0, SVG Export Plug-In . SVG Version: 6.00 Build 0)  -->
<!DOCTYPE svg PUBLIC "-//W3C//DTD SVG 1.1//EN" "http://www.w3.org/Graphics/SVG/1.1/DTD/svg11.dtd">
<svg version="1.1" id="Layer_1" xmlns="http://www.w3.org/2000/svg" xmlns:xlink="http://www.w3.org/1999/xlink" x="0px" y="0px"
	 viewBox="0 0 464 496" enable-background="new 0 0 464 496" xml:space="preserve">
<g>
	<defs>
		<rect id="SVGID_1_" width="464" height="496"/>
	</defs>
	<clipPath id="SVGID_2_">
		<use xlink:href="#SVGID_1_"  overflow="visible"/>
	</clipPath>
	<path clip-path="url(#SVGID_2_)" fill="#D5E3F0" d="M106.5,140.2c-15.3,7.3-23,24.6-18.4,40.3c4.4,14.9,19,25.1,35.1,24.3l-15.1-63
		"/>
	<path clip-path="url(#SVGID_2_)" fill="#D5E3F0" d="M328.9,142c12.6,3.2,19,20.2,14.3,37.8c-4.6,17.7-23,29.4-35.6,26.2L328.9,142z
		"/>
	<path clip-path="url(#SVGID_2_)" fill="#D5E3F0" d="M276.8,310.2l-6.1,0L248,322.9c-9.3,4.8-19.5,9.8-30,10l-0.3,0
		c-11.7,0.2-29.1-3.9-39.4-9.4l-17.2-13l-6.7,0c-50.3,10.2-88.1,54.1-88.1,106.8v45.5h300.2v-45.5
		C366.5,364.1,327.9,319.8,276.8,310.2"/>
</g>
<g>
	<defs>
		<rect id="SVGID_3_" width="464" height="496"/>
	</defs>
	<clipPath id="SVGID_4_">
		<use xlink:href="#SVGID_3_"  overflow="visible"/>
	</clipPath>
	<path clip-path="url(#SVGID_4_)" fill="#4FA5F5" d="M254.7,279.5l-17.3,6.3c-6.6,2.4-13.6,3.7-20.6,4.1
		c-11.2,0.5-22.2-2.4-32.3-7.1l-9.8-5.3L157,311l21.2,12.4c10.3,5.6,27.7,9.6,39.4,9.4l0.3,0c10.4-0.2,20.7-5.2,30-10l29.6-12.7
		L254.7,279.5z"/>
	<path clip-path="url(#SVGID_4_)" fill="#FFFFFF" d="M327.1,77.6c-3.4-10.7-11.3-34.6-34.9-53.6C264.7,1.4,233.3,0.6,223.6,0.7
		c-60.9-6.1-93.9,29-93.9,29c-22.3,15.6-8.1,39-8.1,39c-4.5,3.8-8.9,7.5-13.4,11.4c-0.5,1.2-1.3,3.1-2.1,5.3
		c-6.3,18.1-5.4,34.8-3.6,47.7h-0.2c0.4,2.5,0.9,5,1.4,7.4c0.1,0.4,0.1,0.9,0.2,1.3c0.7,4.3,1.8,9.3,3.4,15
		c9.8,39.3,24.9,67.9,36.2,85.8c23.4,37.2,41.1,45.6,51.5,49.1c5.2,1.7,24.7,7.4,46.4,0c12.9-4.4,27.7-14,47.7-47.1
		c8.2-13.5,18.3-32.8,26.9-57.9c0,0.5-0.1,1.1-0.1,1.6c5.4-11.9,12.3-30.4,14.9-54.1C332.3,120,334.5,100.7,327.1,77.6"/>
	<path clip-path="url(#SVGID_4_)" fill="#C3D5E3" d="M115.6,147.3c2.8-15.4,4.2-23.3,8-32.3c3.1-7.2,6.4-15.1,13.7-22.6
		c12.5-12.8,28.3-15.9,35.8-17.3c24.1-4.7,44.2,3.3,50.6,5.6c18.9,6.7,20.4,12.6,34.9,16.8c18.4,5.2,36,1.4,49-3.2
		c2.8,11.5,4.5,21.5,5.7,29.4c2.8,19.1,3.1,33.5,3.2,37c0.2,11.1-0.2,20.5-0.8,27.6c5.5-11.9,12.4-30.4,15-54.1
		c1.5-14.2,3.8-33.5-3.7-56.6c-3.4-10.7-11.4-34.6-35.2-53.6C264.1,1.4,232.5,0.6,222.6,0.7c-61.5-6.2-94.7,29-94.7,29
		c-22.5,15.6-8.2,39-8.2,39c-4.5,3.8-9,7.5-13.5,11.4c-0.5,1.2-1.3,3.1-2.1,5.3c-7.9,22.5-4.6,42.8-2.2,56.3
		c1.5,8.4,4.2,19.9,9.6,33.1C112.9,163.6,114.4,154.2,115.6,147.3"/>
</g>
<g>
	<defs>
		<rect id="SVGID_5_" width="464" height="496"/>
	</defs>
	<clipPath id="SVGID_6_">
		<use xlink:href="#SVGID_5_"  overflow="visible"/>
	</clipPath>
	<path clip-path="url(#SVGID_6_)" fill="#4FA5F5" d="M321.2,335c6.1-1.4,12.4-2.1,18.8-2.1c45.6,0,82.5,36.5,82.5,81.6
		S385.6,496,340.1,496c-45.6,0-82.5-36.5-82.5-81.6C257.6,375.8,284.7,343.4,321.2,335"/>
	<path clip-path="url(#SVGID_6_)" fill="#FFFFFF" d="M338.3,454v-10.7c-6.2-0.1-12.7-2-16.4-4.7l2.6-7.1c3.9,2.5,9.5,4.6,15.5,4.6
		c7.6,0,12.8-4.4,12.8-10.4c0-5.8-4.2-9.5-12.1-12.6c-11-4.3-17.7-9.1-17.7-18.4c0-8.8,6.3-15.5,16.2-17.1v-10.7h6.7v10.3
		c6.4,0.2,10.8,1.9,14,3.7l-2.7,7c-2.3-1.3-6.7-3.6-13.5-3.6c-8.3,0-11.4,4.9-11.4,9.1c0,5.5,4,8.3,13.3,12.1
		c11.1,4.5,16.6,10,16.6,19.4c0,8.4-5.9,16.2-17,18.1v11H338.3z"/>
</g>
</svg>
