<?xml version="1.0" encoding="utf-8"?>
<!-- Generator: Adobe Illustrator 17.1.0, SVG Export Plug-In . SVG Version: 6.00 Build 0)  -->
<!DOCTYPE svg PUBLIC "-//W3C//DTD SVG 1.1//EN" "http://www.w3.org/Graphics/SVG/1.1/DTD/svg11.dtd">
<svg version="1.1" id="Layer_1" xmlns="http://www.w3.org/2000/svg" xmlns:xlink="http://www.w3.org/1999/xlink" x="0px" y="0px"
	 viewBox="0 0 298.7 512" enable-background="new 0 0 298.7 512" xml:space="preserve">
<g>
	<defs>
		<rect id="SVGID_1_" width="298.7" height="512"/>
	</defs>
	<clipPath id="SVGID_2_">
		<use xlink:href="#SVGID_1_"  overflow="visible"/>
	</clipPath>
	<path clip-path="url(#SVGID_2_)" fill="#F7931A" d="M42.7,405.3H21.3C9.6,405.3,0,414.9,0,426.7C0,438.5,9.6,448,21.3,448h21.3
		v42.7c0,11.8,9.6,21.3,21.3,21.3c11.8,0,21.3-9.5,21.3-21.3V448h85.3v42.7c0,11.8,9.6,21.3,21.3,21.3c11.8,0,21.3-9.5,21.3-21.3
		v-44.8c48.6-9.9,85.3-53,85.3-104.5c0-28.5-11.1-55.3-31.3-75.4c-3.6-3.6-7.4-6.9-11.4-9.9c25.9-19.5,42.7-50.5,42.7-85.3
		c0-28.5-11.1-55.3-31.3-75.4c-15-15-33.7-25-54.1-29.1V21.3C213.3,9.5,203.8,0,192,0c-11.8,0-21.3,9.5-21.3,21.3V64H85.3V21.3
		C85.3,9.5,75.8,0,64,0C52.2,0,42.7,9.5,42.7,21.3V64H21.3C9.6,64,0,73.5,0,85.3c0,11.8,9.6,21.3,21.3,21.3h21.3V405.3z M256,341.3
		c0,35.3-28.7,64-64,64H85.3v-128H192c17.1,0,33.1,6.7,45.3,18.8C249.3,308.2,256,324.2,256,341.3 M256,170.7c0,35.3-28.7,64-64,64
		H85.3v-128H192c17.1,0,33.1,6.7,45.3,18.8C249.3,137.5,256,153.6,256,170.7"/>
</g>
</svg>
