<?xml version="1.0" encoding="utf-8"?>
<!-- Generator: Adobe Illustrator 17.1.0, SVG Export Plug-In . SVG Version: 6.00 Build 0)  -->
<!DOCTYPE svg PUBLIC "-//W3C//DTD SVG 1.1//EN" "http://www.w3.org/Graphics/SVG/1.1/DTD/svg11.dtd">
<svg version="1.1" id="Layer_1" xmlns="http://www.w3.org/2000/svg" xmlns:xlink="http://www.w3.org/1999/xlink" x="0px" y="0px"
	 viewBox="0 0 40 38" enable-background="new 0 0 40 38" xml:space="preserve">
<rect y="0" fill="#FFFFFF" width="21.8" height="4.7"/>
<rect y="9.6" fill="#FFFFFF" width="21.8" height="4.7"/>
<rect y="19.3" fill="#FFFFFF" width="40" height="4.7"/>
<g>
	<defs>
		<rect id="SVGID_1_" width="40" height="38"/>
	</defs>
	<clipPath id="SVGID_2_">
		<use xlink:href="#SVGID_1_"  overflow="visible"/>
	</clipPath>
	<path clip-path="url(#SVGID_2_)" fill="#FFFFFF" d="M4.3,31.1v1.2H1.6V34h2.3v1.2H1.6v2.7H0v-6.9H4.3z M11.8,34.5
		c0,0.5-0.1,1-0.3,1.4c-0.2,0.4-0.4,0.8-0.7,1.1c-0.3,0.3-0.7,0.6-1.1,0.7C9.3,37.9,8.8,38,8.3,38c-0.5,0-1-0.1-1.4-0.3
		c-0.4-0.2-0.8-0.4-1.1-0.7c-0.3-0.3-0.5-0.7-0.7-1.1c-0.2-0.4-0.3-0.9-0.3-1.4s0.1-1,0.3-1.4c0.2-0.4,0.4-0.8,0.7-1.1
		c0.3-0.3,0.7-0.6,1.1-0.7C7.3,31.1,7.8,31,8.3,31c0.5,0,1,0.1,1.4,0.3c0.4,0.2,0.8,0.4,1.1,0.7c0.3,0.3,0.5,0.7,0.7,1.1
		C11.7,33.5,11.8,34,11.8,34.5 M10.2,34.5c0-0.3,0-0.6-0.1-0.9c-0.1-0.3-0.2-0.5-0.4-0.7c-0.2-0.2-0.4-0.3-0.6-0.4
		c-0.2-0.1-0.5-0.2-0.8-0.2c-0.3,0-0.6,0-0.8,0.2c-0.2,0.1-0.4,0.2-0.6,0.4c-0.2,0.2-0.3,0.4-0.4,0.7c-0.1,0.3-0.1,0.6-0.1,0.9
		c0,0.3,0,0.6,0.1,0.9c0.1,0.3,0.2,0.5,0.4,0.7c0.2,0.2,0.4,0.3,0.6,0.4c0.2,0.1,0.5,0.1,0.8,0.1c0.3,0,0.6,0,0.8-0.1
		c0.2-0.1,0.4-0.2,0.6-0.4c0.2-0.2,0.3-0.4,0.4-0.7C10.2,35.1,10.2,34.8,10.2,34.5 M13.4,31.1c0.1,0,0.1,0,0.2,0c0,0,0.1,0,0.1,0
		c0,0,0.1,0,0.1,0.1c0,0,0.1,0.1,0.1,0.1l3.2,4.1c0-0.1,0-0.3,0-0.4c0-0.1,0-0.2,0-0.4v-3.6h1.4v6.9h-0.8c-0.1,0-0.2,0-0.3-0.1
		c-0.1,0-0.2-0.1-0.2-0.2l-3.2-4.1c0,0.1,0,0.2,0,0.3c0,0.1,0,0.2,0,0.3v3.7h-1.4v-6.9H13.4z M25.7,34.5c0,0.5-0.1,1-0.3,1.4
		c-0.2,0.4-0.4,0.8-0.7,1.1c-0.3,0.3-0.7,0.5-1.1,0.7c-0.4,0.2-0.9,0.3-1.4,0.3h-2.6v-6.9h2.6c0.5,0,1,0.1,1.4,0.3
		c0.4,0.2,0.8,0.4,1.1,0.7c0.3,0.3,0.5,0.7,0.7,1.1C25.6,33.6,25.7,34,25.7,34.5 M24.1,34.5c0-0.3,0-0.6-0.1-0.9
		c-0.1-0.3-0.2-0.5-0.4-0.7c-0.2-0.2-0.4-0.3-0.6-0.4c-0.2-0.1-0.5-0.2-0.8-0.2h-1v4.4h1c0.3,0,0.6-0.1,0.8-0.2
		c0.2-0.1,0.4-0.2,0.6-0.4c0.2-0.2,0.3-0.4,0.4-0.7C24,35.1,24.1,34.8,24.1,34.5 M34.9,34.5c0,0.5-0.1,1-0.3,1.4
		c-0.2,0.4-0.4,0.8-0.7,1.1c-0.3,0.3-0.7,0.6-1.1,0.7c-0.4,0.2-0.9,0.3-1.4,0.3c-0.5,0-1-0.1-1.4-0.3c-0.4-0.2-0.8-0.4-1.1-0.7
		c-0.3-0.3-0.5-0.7-0.7-1.1c-0.2-0.4-0.3-0.9-0.3-1.4s0.1-1,0.3-1.4c0.2-0.4,0.4-0.8,0.7-1.1c0.3-0.3,0.7-0.6,1.1-0.7
		c0.4-0.2,0.9-0.3,1.4-0.3c0.5,0,1,0.1,1.4,0.3c0.4,0.2,0.8,0.4,1.1,0.7c0.3,0.3,0.5,0.7,0.7,1.1C34.8,33.5,34.9,34,34.9,34.5
		 M33.3,34.5c0-0.3,0-0.6-0.1-0.9c-0.1-0.3-0.2-0.5-0.4-0.7c-0.2-0.2-0.4-0.3-0.6-0.4c-0.2-0.1-0.5-0.2-0.8-0.2
		c-0.3,0-0.6,0-0.8,0.2c-0.2,0.1-0.4,0.2-0.6,0.4c-0.2,0.2-0.3,0.4-0.4,0.7c-0.1,0.3-0.1,0.6-0.1,0.9c0,0.3,0,0.6,0.1,0.9
		c0.1,0.3,0.2,0.5,0.4,0.7c0.2,0.2,0.4,0.3,0.6,0.4c0.2,0.1,0.5,0.1,0.8,0.1c0.3,0,0.6,0,0.8-0.1c0.2-0.1,0.4-0.2,0.6-0.4
		c0.2-0.2,0.3-0.4,0.4-0.7C33.3,35.1,33.3,34.8,33.3,34.5 M40,31.1v1.2h-2.8V34h2.3v1.2h-2.3v2.7h-1.6v-6.9H40z"/>
	<path clip-path="url(#SVGID_2_)" fill="#FFFFFF" d="M32.5,14.6c-4.2,0-7.5-3.3-7.5-7.3c0-4,3.4-7.3,7.5-7.3S40,3.3,40,7.3
		C40,11.4,36.6,14.6,32.5,14.6 M32.5,9.7c1.4,0,2.5-1.1,2.5-2.5c0-1.4-1.1-2.5-2.5-2.5c-1.4,0-2.5,1.1-2.5,2.5
		C30,8.6,31.1,9.7,32.5,9.7"/>
</g>
</svg>
