<?xml version="1.0" encoding="utf-8"?>
<!-- Generator: Adobe Illustrator 17.1.0, SVG Export Plug-In . SVG Version: 6.00 Build 0)  -->
<!DOCTYPE svg PUBLIC "-//W3C//DTD SVG 1.1//EN" "http://www.w3.org/Graphics/SVG/1.1/DTD/svg11.dtd">
<svg version="1.1" id="Layer_1" xmlns="http://www.w3.org/2000/svg" xmlns:xlink="http://www.w3.org/1999/xlink" x="0px" y="0px"
	 viewBox="0 0 225 18" enable-background="new 0 0 225 18" xml:space="preserve">
<g id="Page-1">
	<g id="Home-page---logos---media" transform="translate(-817.000000, -315.000000)">
		<g id="WSJ_Logo" transform="translate(817.000000, 315.000000)">
			<path id="path13406" fill="#4FA5F7" d="M223.6,15.4c-0.7,0-1.2,0.5-1.2,1.2c0,0.7,0.5,1.2,1.2,1.2c0.7,0,1.2-0.5,1.2-1.2
				C224.8,15.9,224.2,15.4,223.6,15.4z M180.2,17.8h5.5v-0.5l-0.6-0.1c-0.5-0.1-0.8-0.4-0.8-1.1v-7h1.3c0.8,0,1.2,0.2,1.3,1.7
				l0.1,3.3c0.1,2.9,1,3.8,2.5,3.8c1.6,0,2-1,2-2.4v-0.6h-0.6v0.4c0,0.9-0.1,1.6-0.5,1.6c-0.4,0-0.4-0.3-0.5-1.4l-0.2-2.3
				c-0.2-3-0.6-4.1-3-4.5c2.3-0.6,3.7-2.1,3.7-4.3c0-2.9-2.4-4.3-4.7-4.3h-9.3v0.5l0.5,0.1c1,0.2,1,0.7,1,2.8v10.2
				c0,2.3-0.7,3.4-2.2,3.4c-1.4,0-2.2-0.6-2.2-3.1V1.8c0-0.7,0.2-0.9,0.8-1l0.7-0.2V0.1h-5.7v0.5l0.6,0.2c0.5,0.2,0.7,0.4,0.7,1.1
				v11.9c0,2.7,1.7,4.2,4.2,4.2c2.5,0,3.8-1.5,3.8-4.2V2.5c0-1.4,0.3-1.9,1.5-1.9c1,0,1.4,0.3,1.4,1.2V16c0,0.7-0.2,1-0.8,1.1
				l-0.6,0.2V17.8z M216.8,1.8c0-0.7,0.2-0.9,0.8-1l0.7-0.2V0.1h-5.7v0.5l0.6,0.2c0.5,0.2,0.8,0.4,0.8,1.1v14.3
				c0,0.7-0.3,1.1-1.1,1.1c-1,0-1.1-0.3-1.5-1.8l-3.5-15.3h-1.1l-3.3,14.8c-0.4,1.7-0.6,2-1.3,2.3l-0.5,0.1v0.5h3.9v-0.5l-0.6-0.1
				c-0.8-0.2-1-0.6-0.6-2.5l2-9.5l2.2,10.1c0.3,1.5,0.3,1.7-0.9,1.9l-0.6,0.1v0.5h14.4v-5.8H221c-0.3,2.7-0.8,5.2-3.2,5.2h-1.1V1.8z
				 M208.3,13v-0.7h-3.7l-0.1,0.7H208.3z M193.1,2.1v12.2c0,1.8,0,2.7-1,2.9l-0.5,0.1v0.5h4v-0.5c-1.7-0.2-1.7-0.8-1.7-2.8V2.9
				l-0.7-0.6l6.7,15.4h1.1V3.5c0-2.1,0-2.6,1.1-2.8l0.4-0.1V0.1h-4.1v0.5l0.5,0.1c1.4,0.2,1.4,0.7,1.4,2.7v8.9l0.3-0.1l-5.1-12.1
				h-3.9v0.5l0.4,0.1C192.4,0.8,192.6,1.3,193.1,2.1z M184.3,0.7h1.1c1.1,0,2.1,0.7,2.1,4c0,3.4-0.8,3.7-2.3,3.7h-0.9V0.7z
				 M166.2,8.8c0,7.4-0.7,8.4-2.1,8.4c-1.4,0-2-1-2-8.4c0-7.1,0.7-8.1,2-8.1C165.5,0.7,166.2,1.7,166.2,8.8z M169.1,8.9
				c0-4.9-1.7-8.9-5-8.9c-3.4,0-5,4-5,8.9c0,4.9,1.7,9,5,9C167.6,17.9,169.1,13.8,169.1,8.9z M157.5,1.8c0-0.7,0.2-0.9,0.7-1.1
				l0.6-0.2V0.1h-5.6v0.5l0.7,0.2c0.5,0.1,0.8,0.3,0.8,1v12.3c0,1.7-0.2,3.1-1.5,3.1c-0.9,0-1.5-0.6-1.5-1.1c0.1-0.8,1.5-0.7,1.6-2
				c0.1-0.9-0.5-1.3-1.1-1.4c-0.8-0.1-1.9,0.6-1.9,1.9c0,1.7,1.2,3.3,3.2,3.3c2.3,0,4-1.4,4-4.2V1.8z M66.5,1.8c0-0.7,0.2-0.9,0.8-1
				L68,0.6V0.1h-5.7v0.5l0.6,0.2c0.5,0.2,0.8,0.4,0.8,1.1v14.3c0,0.7-0.3,1.1-1.1,1.1c-1,0-1.1-0.3-1.5-1.8L57.6,0.1h-1.1l-3.3,14.8
				c-0.4,1.7-0.6,2-1.3,2.3l-0.5,0.1v0.5h3.9v-0.5l-0.6-0.1c-0.8-0.2-1-0.6-0.6-2.5l2-9.5l2.2,10.1c0.3,1.5,0.3,1.7-0.9,1.9
				l-0.6,0.1v0.5h14.5v-5.8h-0.5c-0.3,2.7-0.8,5.2-3.2,5.2h-1.1V1.8z M142.3,0.7h0.6c1.7,0,2.3,2.5,2.5,5.2h0.5V0.1H136V6h0.5
				c0.2-2.7,0.8-5.2,2.5-5.2h0.6V16c0,0.7-0.2,1-0.8,1.1l-0.7,0.2v0.5h5.9v-0.5l-0.8-0.2c-0.5-0.1-0.8-0.3-0.8-1.1V0.7z M129.9,8.9
				l0.8,0c1.2,0,1.6,0.5,1.8,3.2h0.5V5.1h-0.5c-0.3,2.2-0.6,3.2-1.8,3.2l-0.9,0V0.7h1.9c2.1,0,2.6,2.5,2.9,5.2h0.5V0.1h-9.4v0.5
				l0.6,0.2c0.6,0.2,0.8,0.5,0.8,1.1V16c0,0.7-0.2,1-0.8,1.1l-0.6,0.2v0.5h9.7v-5.8h-0.5c-0.3,2.7-0.7,5.2-3.1,5.2h-1.9V8.9
				L129.9,8.9z M119.6,8.9l0.8,0c1.2,0,1.6,0.5,1.8,3.2h0.5V5.1h-0.5c-0.3,2.2-0.6,3.2-1.8,3.2l-0.9,0V0.7h1.9
				c2.1,0,2.6,2.5,2.9,5.2h0.5V0.1h-9.7v0.5l0.9,0.2c0.6,0.2,0.8,0.5,0.8,1.1V16c0,0.7-0.2,1-0.8,1.1l-0.6,0.2v0.5h9.7v-5.8h-0.5
				c-0.3,2.7-0.7,5.2-3.1,5.2h-1.9V8.9L119.6,8.9z M108.4,0.7h0.8c1.1,0,2.1,0.7,2.1,4c0,3.4-0.8,3.7-2.3,3.7h-0.6V0.7z M104.3,17.8
				h5.5v-0.5l-0.6-0.1c-0.5-0.1-0.8-0.4-0.8-1.1v-7h1c0.8,0,1.2,0.3,1.3,1.7l0.1,3.3c0.1,2.9,1,3.8,2.5,3.8c1.6,0,2-1,2-2.4v-0.6
				h-0.6v0.4c0,0.9-0.1,1.6-0.5,1.6c-0.4,0-0.4-0.3-0.5-1.4l-0.2-2.3c-0.2-3.1-0.7-4.1-3-4.5c2.3-0.6,3.7-2.1,3.7-4.3
				c0-2.9-2.4-4.3-4.7-4.3h-5.2v0.5l0.6,0.2c0.5,0.2,0.8,0.4,0.8,1.1V16c0,0.7-0.2,1-0.8,1.1l-0.6,0.2V17.8z M100.1,0.7h0.6
				c1.7,0,2.3,2.5,2.5,5.2h0.5V0.1h-9.9V6h0.5c0.2-2.7,0.8-5.2,2.5-5.2h0.6V16c0,0.7-0.2,1-0.8,1.1l-0.7,0.2v0.5h5.7v-0.5l-0.7-0.2
				c-0.7-0.2-0.8-0.7-0.8-1.1V0.7z M93.8,13.2c0-5.2-6.1-6.6-6.1-10.4c0-0.8,0.3-2,1.7-2c2,0,2.7,2.4,3,5.3h0.5V0.1h-0.3
				c-0.1,0.6-0.4,0.8-0.7,0.8c-0.6,0-1-0.9-2.5-0.9c-2.3,0-3.9,1.8-3.9,4.2c0,4.3,6.1,6.1,6.1,10.1c0,1.8-0.9,2.8-2.1,2.8
				c-1.8,0-3-2-3.4-5.3h-0.5v5.8H86c0.3-0.8,0.6-0.9,0.9-0.9c0.5,0,1.1,1,2.6,1C92,17.9,93.8,15.9,93.8,13.2z M76,1.8
				c0-0.7,0.2-0.9,0.8-1l0.7-0.2V0.1h-5.7v0.5l0.6,0.2c0.5,0.2,0.8,0.4,0.8,1.1V16c0,0.7-0.2,1-0.8,1.1l-0.6,0.2v0.5h8.9v-5.8h-0.5
				c-0.3,2.7-0.8,5.2-3.2,5.2H76V1.8z M57.9,13v-0.7h-3.7L54.1,13H57.9z M42.2,17.8h1.1l2.5-12.6h-0.4l2.8,12.6h1L52.5,3
				c0.4-1.6,0.5-2.1,1.2-2.3l0.5-0.1V0.1h-3.8v0.5L51,0.7c0.8,0.2,1,0.6,0.6,2.5l-2.2,10h0.3L47.6,2.7c-0.2-1-0.4-1.8,0.5-2l0.6-0.1
				V0.1h-5.3v0.5l0.4,0.1c0.5,0.1,0.6,0.4,0.8,1.4l0.8,3.8l-0.2-2.3l-1.9,9.3h0.2L41.5,2.7c-0.2-1-0.3-1.8,0.5-2l0.4-0.1V0.1h-5.4
				v0.5l0.5,0.1c0.5,0.1,0.8,0.4,1.1,1.8L42.2,17.8z M27.6,8.9l0.8,0c1.2,0,1.6,0.5,1.8,3.2h0.5V5.1h-0.5c-0.3,2.2-0.6,3.2-1.8,3.2
				l-0.9,0V0.7h1.9c2.1,0,2.6,2.5,2.9,5.2h0.5V0.1h-9.4v0.5l0.6,0.2c0.6,0.2,0.8,0.5,0.8,1.1V16c0,0.7-0.2,1-0.8,1.1l-0.6,0.2v0.5
				h9.7v-5.8h-0.5c-0.3,2.7-0.7,5.2-3.1,5.2h-1.9V8.9L27.6,8.9z M10.5,17.8h5.6v-0.5l-0.6-0.1c-0.5-0.1-0.8-0.4-0.8-1.1v-7h4.1v7
				c0,0.7-0.3,1-0.8,1.1l-0.6,0.1v0.5h5.6v-0.5l-0.6-0.2c-0.5-0.1-0.8-0.4-0.8-1.1V1.8c0-0.7,0.2-0.9,0.8-1.1l0.6-0.2V0.1h-5.6v0.5
				l0.6,0.2c0.5,0.1,0.8,0.3,0.8,1v6.6h-4.1V1.8c0-0.7,0.3-0.9,0.8-1l0.6-0.2V0.1h-5.6v0.5l0.6,0.2c0.5,0.2,0.8,0.4,0.8,1.1V16
				c0,0.7-0.2,1-0.8,1.1l-0.6,0.2V17.8z M6.3,0.7h0.6c1.7,0,2.3,2.5,2.5,5.2h0.5V0.1H0V6h0.5C0.7,3.3,1.3,0.7,3,0.7h0.6V16
				c0,0.7-0.2,1-0.8,1.1l-0.7,0.2v0.5H8v-0.5l-0.8-0.2C6.6,17,6.3,16.8,6.3,16V0.7z"/>
		</g>
	</g>
</g>
</svg>
