<?xml version="1.0" encoding="utf-8"?>
<!-- Generator: Adobe Illustrator 17.1.0, SVG Export Plug-In . SVG Version: 6.00 Build 0)  -->
<!DOCTYPE svg PUBLIC "-//W3C//DTD SVG 1.1//EN" "http://www.w3.org/Graphics/SVG/1.1/DTD/svg11.dtd">
<svg version="1.1" id="Layer_1" xmlns="http://www.w3.org/2000/svg" xmlns:xlink="http://www.w3.org/1999/xlink" x="0px" y="0px"
	 viewBox="0 0 93.7 33.9" enable-background="new 0 0 93.7 33.9" xml:space="preserve">
<g>
	<defs>
		<rect id="SVGID_1_" y="0" width="93.7" height="33.9"/>
	</defs>
	<clipPath id="SVGID_2_">
		<use xlink:href="#SVGID_1_"  overflow="visible"/>
	</clipPath>
	<path clip-path="url(#SVGID_2_)" fill="#FFFFFF" d="M93.7,19.1c0,8.2-6.5,14.8-14.6,14.8c-8.1,0-14.6-6.6-14.6-14.8
		c0-8.2,6.5-14.8,14.6-14.8C87.1,4.3,93.7,10.9,93.7,19.1 M80.7,25.4c-0.4-0.2-0.9-0.3-1.4-0.3c-0.8,0-1.5,0.1-2.2,0.2
		c-0.7,0.2-1.5,0.3-2.2,0.4c-0.7,0.1-1.4,0.4-2.2,0.4c-1.3,0.1-1,0-0.2-1.4c0.7-1.4,1.7-3.1,2.6-4.8c1.2-2.2,1.9-4.5,0.8-7
		c-1.6-3.4-6.2-0.9-7.9,1.1c-0.6,0.8,1.7,1.1,2.3,0.5c1.2-1.6,3.2-2.6,3.4-0.2c0.1,1-0.2,2.1-0.6,3c-1,2.3-2.3,4.3-3.6,6.4
		c-0.8,1.4-1.3,2.9,0.4,3.5c0.5,0.2,1.1,0.3,1.7,0.3c0.7,0,1.3-0.2,2-0.3c1-0.2,2-0.4,2.9-0.6c0.5-0.1,1-0.2,1.5-0.2
		c0.6-0.1,1.3,0,2,0c0.3,0,0.5,0.1,0.8,0.1c0.2,0,0.8-0.4,0.8-0.6C81.5,25.7,80.9,25.5,80.7,25.4 M91,17.8c-0.5,0-1,0-1.5,0.1
		c-0.2,0-0.3,0.1-0.5,0.1c-0.3,0.1-0.6,0.1-0.9,0.2c0.3-1.4,0.6-2.9,0.9-4.2c0.2-1,0.1-2.2-0.3-2.9c-0.1-0.2-0.7-0.3-1-0.2
		c-0.2,0.1-0.6,0.4-0.8,0.7c-0.2,0.4-0.5,1-0.6,1.3c-0.6,1.9-0.9,3.7-1.3,5.7c0,0.1,0,0.2,0,0.3c-0.2,0-0.4,0.1-0.6,0.1
		c-0.7,0.1-1.3,0.4-1.9,0.4c-0.3,0-0.6,0.1-0.8-0.1c-0.1-0.2,0-0.6,0.1-0.8c0.1-0.6,0.3-1.3,0.6-1.9c1-2.7,1.3-3.2,1.6-4.8
		c0.1-0.4,0-0.8-0.1-1.1c-0.1-0.3-0.3-0.4-0.6-0.4c-0.3,0-0.7,0-0.9,0.2c-0.1,0-0.2,0.1-0.3,0.2c-0.2,0.2-0.3,0.3-0.5,0.5
		c0,0.1-0.1,0.1-0.1,0.2c-0.3,0.5-0.6,1-0.9,1.6c-0.2,0.6-0.5,1.1-0.7,1.7c-0.4,1.1-0.8,2.3-1.1,3.5c0,0.2-0.1,0.4-0.1,0.6
		c-0.3,1.3-0.3,2.6,1.8,2.4c1.5-0.1,2.9-0.5,4.3-0.9c-0.1,0.3-0.1,0.7-0.1,1c-0.1,0.5-0.3,2.5-0.4,3c0,0.6-0.1,1.2-0.1,1.7
		c0,0.2,0,0.4,0,0.6c0,0.1,0.1,0.3,0.2,0.5c0.2,0.2,0.5,0.2,0.8,0.2c0.4-0.1,0.6-0.1,0.8-0.4c0.2-0.2,0.4-0.6,0.5-0.9
		c0.2-0.5,0.4-0.9,0.5-1.6c0.2-1,0.6-3.6,0.8-4.6c0-0.1,0-0.2,0.1-0.4c0.3-0.1,0.5-0.1,0.8-0.2c0.6-0.1,1.1-0.2,1.7-0.2
		c0.3,0,0.7,0,1,0c0.2,0,1,0.1,0.9-0.3C92.2,18.1,91.4,17.9,91,17.8"/>
	<path clip-path="url(#SVGID_2_)" fill="#FFFFFF" d="M24.2,21.3c-0.2,2.8-0.8,5.7-2,5.6c-1.1,0-1.6-2-1.6-4c0-2.3,1-5.2,1-5.2
		s0.8,0.2,1.1,0.2c0.4,0,1.2,0.1,1.2,0.1C24.1,18.8,24.2,19.9,24.2,21.3 M57.1,14.8c0.1-0.3,0.5-0.6,0.8-0.6c0.2,0,0.4,0.2,0.4,0.7
		c0,2.4-1.4,2.6-1.6,2.7C56.8,16.6,56.8,15.6,57.1,14.8 M62,24C61.9,24,61.9,24,62,24c-1.1,1-4.2,3.2-5.2,1c-0.4-0.9-0.4-2.1-0.4-3
		c0-0.8,0.1-1.7,0.1-2.5c1.4,0,3.5-1.4,3.5-4.6c0-2.1-2-2.2-2.5-2.2c-4.1,0-5,6.3-5,9.2c0,0.1,0,0.2,0,0.3c-1.1,2-2.2,3.7-3.3,3.8
		c-0.5,0-0.8-0.9-0.8-1.9c0-1.9,0.6-4,0.9-6c0.3-2,0-3.3-1.5-3.4c-3.6-0.2-5.6,4.8-5.8,5.1c0.1-2.6-0.7-4.2-3.1-4.3
		c-1.7,0-3.4,2.6-3.4,2.6s0-0.2,0-0.5c0-1.1-0.1-3.7-2.2-3.7c0,0,0,0,0,0c-0.5,0-1.5,0.5-2.4,1c-1.3,0.7-4,1.5-4.2,1.3
		c-1.1-1.7-2.7-2.1-3.7-2.2c-2.2-0.3-3.9,0.6-4.1,1.8c0,0.4,0.1,0.7,0.3,0.9c-0.5,0.3-1,0.9-1.4,1.6c-0.5,0.8-0.9,2.2-1.1,2.9
		c-0.2,0.8-0.5,1.4-1,2.2c-0.6,1.1-1.5,2.7-2.4,3.1c-0.3,0.1-0.8,0.3-1-0.1c-0.3-0.4-0.1-1.7,0.1-2.3c0.2-0.8,0.5-2.2,0.7-3.1
		c0.2-1.1,0.5-2.3,0.6-3.3c0.2-1.3,0.1-2.8-1.1-3.5c-1.7-1-3.7-0.5-5.1,0.7c-0.9,0.8-1.5,1.7-2.1,2.9C5.4,18.3,5,19.1,5,19.1
		s0.3-2.4,0.4-3.1c0.6-4.1,1-8.2,1.9-12.2c0.2-0.9,0.5-1.7,0.5-2.6c0-0.5-0.1-0.9-0.3-1C6.7-0.5,5.1,1,4.6,1.9c-1.1,1.8-1.6,4-2,6.1
		C1.2,14.1,0,26.9,0,27.2c0,0.6,0.1,1.8,1.1,1.8c0.5,0,0.8,0,1.7-0.3c0.8-0.3,1.3-1.1,1.7-2c0.4-1,1-2.5,1.4-3.7
		c0.4-1.2,0.7-2,1.2-3c0.4-0.8,1.1-1.7,2-2c0.3-0.1,1-0.2,0.9,0.3c-0.1,0.2-0.8,3.1-1,3.9c-0.1,0.6-0.3,1.2-0.4,1.8
		c-0.5,2.9,1.4,5.8,4.6,4.9c1.5-0.5,2.7-1.5,3.5-2.8c0.1-0.2,0.3-0.4,0.4-0.6c0.8,2.6,3.1,3.5,4.3,3.6c2,0.1,6.3-1.3,6.3-9.1
		c0-0.5-0.1-1.4-0.1-1.9c0,0.1,1.7-0.2,2.9-0.6c0.3-0.1,0.6-0.2,0.9-0.4c-0.6,3-0.8,7.4-0.8,9.1c-0.1,2.4,0.5,2.8,1.3,2.9
		c0.4,0,0.9-0.1,0.9-0.1c1.9-0.6,1.9-1.9,1.9-1.9c0.1-6.5,3.5-9.8,4.2-9.8c0.2,0,0.3,0.3,0.3,0.7c0,1.4-0.3,2.9-0.9,5.4
		c-0.4,1.3-0.6,2.4-0.6,3c-0.1,2.2,1.2,2.3,1.4,2.3l0,0c1.2,0,1.5-1.1,1.5-1.1c2.7-8.5,5-9.6,5-9.6c-0.5,2.2-1,4.4-1,6.3
		c-0.1,2.5,0.9,4.7,3.7,4.6c1.7-0.1,3.3-2,4.5-4c0.8,3.7,3.2,4,4.2,4c1.7,0,3.4-0.8,4.5-2c0.3-0.4,0.7-0.8,1-1.2
		c0.2-0.3,0.8-1,0.8-1.4C63.3,23.6,62.4,23.7,62,24"/>
</g>
</svg>
