<?xml version="1.0" encoding="utf-8"?>
<!-- Generator: Adobe Illustrator 17.1.0, SVG Export Plug-In . SVG Version: 6.00 Build 0)  -->
<!DOCTYPE svg PUBLIC "-//W3C//DTD SVG 1.1//EN" "http://www.w3.org/Graphics/SVG/1.1/DTD/svg11.dtd">
<svg version="1.1" id="Layer_1" xmlns="http://www.w3.org/2000/svg" xmlns:xlink="http://www.w3.org/1999/xlink" x="0px" y="0px"
	 viewBox="0 0 126.4 39.4" enable-background="new 0 0 126.4 39.4" xml:space="preserve">
<polygon fill="#18185A" points="113.3,12.9 113.3,16 117.8,16 117.8,26.9 121.8,26.9 121.8,16 126.4,16 126.4,12.9 "/>
<polygon fill="#18185A" points="104.8,26.9 104.8,12.9 108.8,12.9 108.8,23.7 115.5,23.7 115.5,26.9 "/>
<g>
	<defs>
		<rect id="SVGID_1_" y="0" width="126.4" height="39.4"/>
	</defs>
	<clipPath id="SVGID_2_">
		<use xlink:href="#SVGID_1_"  overflow="visible"/>
	</clipPath>
	<path clip-path="url(#SVGID_2_)" fill="#18185A" d="M91.9,18.4c0.4-1.8,1.6-2.7,3.4-2.7c1.7,0,2.9,0.9,3.3,2.7l0,0.1L91.9,18.4
		L91.9,18.4z M99.6,22.8c-1.1,0.8-2.4,1.3-3.8,1.3c-2.1,0-3.5-1-3.9-2.8l0-0.1h10.9c0,0,0,0,0-0.1c0-0.3,0.1-0.8,0.1-1.3
		c0-4.4-3-7.3-7.5-7.3c-4.7,0-7.8,3-7.8,7.4c0,4.3,3.2,7.3,8,7.3c2.7,0,4.8-0.6,6.5-2l0.1,0L99.6,22.8L99.6,22.8z"/>
	<polygon clip-path="url(#SVGID_2_)" fill="#18185A" points="78.3,26.9 75.4,18 72.5,26.9 67.7,26.9 63.3,12.9 67.5,12.9 70.3,22.7 
		73.3,12.9 77.6,12.9 80.6,22.7 83.5,12.9 87.5,12.9 83.1,26.9 	"/>
	<polygon clip-path="url(#SVGID_2_)" fill="#18185A" points="35.1,23.8 27,23.8 27,21.3 34.5,21.3 34.5,18.3 27,18.3 27,15.9 
		35,15.9 35,12.9 23,12.9 23,26.9 35.1,26.9 	"/>
	<rect x="16.5" y="12.9" clip-path="url(#SVGID_2_)" fill="#18185A" width="4" height="14"/>
	<path clip-path="url(#SVGID_2_)" fill="#18185A" d="M6.5,12.9c4.9,0,8.2,2.8,8.2,7s-3.2,7-8.2,7H0v-14H6.5z M6.4,23.7
		c2.7,0,4.3-1.4,4.3-3.9c0-2.5-1.6-3.9-4.3-3.9H3.8v7.7H6.4z"/>
	<path clip-path="url(#SVGID_2_)" fill="#18185A" d="M38.7,19.8C38.7,19.8,38.7,19.8,38.7,19.8l0,0.2c0.1,0.2,0,0.3,0,0.5
		c0,0.2,0,0.3,0.1,0.5h0c0.1-0.2,0.1-0.5,0-0.7c0-0.3-0.1-0.6,0.1-0.9l0.1,0l0,0c0,0,0.1-0.2,0.1-0.2c0,0,0,0,0,0
		c0.1-0.1,0.1-0.3,0.1-0.4h0c0.1-0.1,0.1-0.2,0.1-0.3c0,0,0,0,0,0l0,0c0.1,0,0.1-0.2,0.1-0.3c0,0,0,0,0.1,0c0,0,0,0,0.1,0l0,0l0,0
		c0,0,0,0,0,0c0,0,0,0,0,0c0,0,0,0,0.1,0l0,0l0,0l0,0l0,0c0,0,0.1-0.1,0-0.1c0,0,0,0,0.2-0.4c0,0,0,0,0,0l0,0l0,0
		c0,0,0.1-0.1,0.1-0.1c0.1,0,0.1-0.1,0.1-0.1c0,0,0,0,0,0c0,0,0,0,0,0.1c0,0,0,0.1,0,0.1l0,0c-0.1,0-0.1,0-0.2,0.1
		c-0.1,0.1-0.1,0.2-0.1,0.2l0,0l0,0l0,0l0,0c0,0,0.1,0,0.1-0.1c0,0,0,0,0-0.1c0,0,0.1,0,0.1,0c0.1,0,0.1,0,0.2,0c0,0,0-0.1,0-0.1
		c0,0,0,0,0.1,0c0,0,0.1,0,0.1,0l0-0.1c0,0,0,0,0,0c0,0,0,0,0,0c0,0,0,0,0-0.1l0,0l0,0c-0.1,0-0.2,0.2-0.2,0.2h0c0,0-0.1,0-0.1-0.1
		c-0.1-0.1,0-0.3,0-0.4c0,0,0,0,0-0.1l0,0l0,0l0,0l0,0c0,0,0.1-0.1,0.1-0.1c0.1,0,0.1-0.1,0.1-0.2c0,0,0-0.1,0-0.1c0,0-0.1,0-0.1,0
		c0,0,0,0-0.1,0c-0.1,0-0.1,0-0.3,0.2c0.1-0.1,0.2-0.2,0.3-0.2c0,0,0.1,0,0.1-0.1c0,0,0.1-0.1,0.1-0.1c0,0,0.1,0,0.2,0
		c0.1,0,0.2,0.1,0.3,0.1l0.1,0c0.1,0,0.1-0.1,0.1-0.1c0,0,0.1-0.1,0.1-0.1l0,0h0l0,0c0,0,0,0,0,0c0,0,0,0,0.1,0c0,0,0.2-0.1,0.2-0.2
		c0,0,0,0,0,0c0,0,0,0,0,0C42,16.1,42,16.1,42,16c0,0,0,0,0-0.2l0,0l0,0c0.1-0.1,0.1-0.1,0.1-0.1c0,0,0,0,0,0c0,0,0.1-0.1,0.1-0.1
		c0,0,0,0,0,0c0,0,0,0,0,0c0,0,0,0,0-0.1l0-0.1l0,0l0,0c0-0.2,0-0.2,0-0.4c0,0,0,0,0,0l0,0l0,0c0.1,0,0.1,0,0.4-0.8c0,0,0,0,0-0.1
		l0-0.1l-0.1,0c-0.1,0-0.3,0.2-0.4,0.3l0,0l-0.1,0c-0.1,0.1-0.1,0.1-0.1,0.1c0,0,0,0,0-0.1c0,0,0,0,0-0.1c-0.1-0.1,0-0.2,0.2-0.3
		c0.1,0,0.1-0.1,0.1-0.1c0,0,0,0,0,0c0,0,0,0,0,0c0-0.1,0-0.1,0.1-0.2c0-0.1,0.1-0.1,0-0.3c0,0,0,0,0,0c0,0,0,0,0,0c0,0,0,0,0,0
		c0-0.1,0-0.1,0-0.1c0,0-0.3,0.2-0.5,0.5c0,0.1-0.1,0.1-0.2,0.1c-0.1,0.1-0.1,0.1-0.2,0.2c-0.2,0.3-0.2,0.3-0.2,0.4
		c0,0,0,0.1-0.1,0.1c-0.1,0.1-0.3,0.2-0.2,0.2l0,0l0,0c0,0-0.1,0.2-0.4,0.7c0,0,0,0-0.1,0c0-0.1,0.1-0.2,0.1-0.4
		c0-0.1,0.1-0.2,0.1-0.2c0.1-0.1,0.1-0.1,0.1-0.2c0,0,0-0.1,0-0.1c0,0,0,0,0-0.1c0.2-0.4,0.2-0.4,0.3-0.5c0,0,0,0,0,0
		c0.4-0.6,0.6-0.7,1-1l0,0l0,0c0,0,0.1-0.1,0.1-0.1c0,0,0,0,0.1,0l0.1,0c0.1,0,0.1,0,0,0c0,0-0.1,0-0.1,0.1c0,0,0,0,0,0c0,0,0,0,0,0
		c0,0,0,0,0,0c0,0-0.1,0.1-0.1,0.1c0,0,0,0,0,0c0,0,0.1-0.1,0.1-0.1c0,0,0,0,0.1,0c0,0,0,0,0,0.1c-0.1,0.1,0,0.1,0,0.1c0,0,0,0,0,0
		c0,0,0-0.1,0.1-0.1c0,0,0.1-0.1,0.1-0.1c0.1-0.1,0.1-0.1,0.1-0.2c0,0,0.1,0,0.1-0.1c0,0,0,0,0,0c0,0,0,0,0,0c0,0-0.1,0,0.1-0.1
		l0.1,0c0,0,0,0,0,0h0c0.1,0,0.1,0,0.5-0.3c0.1,0,0.2-0.1,0.3-0.2c0,0,0.1-0.1,0.1-0.1c0,0,0,0,0,0c0,0,0,0,0,0c0,0,0,0,0,0
		c-0.1,0-0.2,0.1-0.2,0.1l0,0c0.4-0.3,0.7-0.4,1-0.6l0,0c0.1,0,0.3-0.1,0.4-0.2c0,0,0,0,0-0.1l0-0.1l0.4-0.2l0,0c-0.1,0-0.1,0.1,0,0
		c0,0,0.2-0.1,0.4-0.1c0,0-0.1,0.1-0.1,0.1l0,0c-0.1,0-0.2,0.1-0.3,0.1c0,0,0,0,0,0c0,0,0,0,0,0c-0.1,0-0.3,0.1-0.3,0.1c0,0,0,0,0,0
		c0,0,0,0,0,0c0,0,0,0,0,0c0,0,0,0-0.1,0l0,0c0,0,0,0,0,0c0,0,0,0,0,0.1l0,0h0c0,0,0,0,0,0l0,0l0,0h0c0,0,0,0,0.3-0.1
		c0.1,0,0.1-0.1,0.1-0.1c0,0,0,0-0.1-0.1l0,0h0l0,0l0,0h0c0,0,0.1-0.1,0.2-0.1l0.1,0l0.1,0.1L45.9,11l0.1,0l0.1,0
		c0.1,0,0.1,0,0.3-0.1l0.1,0c0.1,0,0.2-0.1,0.2-0.1c0,0,0.1,0,0.1,0l0.2,0c0,0,0.1-0.1,0.3-0.1c0,0,0.1,0,0.1,0
		c0.1,0,0.5-0.1,0.5-0.1c0,0-0.2,0.1-0.4,0.1c0,0-0.1,0-0.2,0c-0.2,0.1-0.5,0.1-0.5,0.1c0,0-0.2,0.1-0.1,0.1c0,0-0.1,0.1-0.1,0
		c-0.2,0-0.3,0.1-0.5,0.2c0,0,0,0,0,0c0,0,0,0,0.1,0c0,0,0,0,0,0c0.1,0,0.1,0,0.1,0c0,0,0,0,0,0c0,0,0,0-0.5,0.5
		c-0.2,0.2-0.3,0.2-0.3,0.2c-0.1,0-0.2,0.2-0.3,0.2c0,0,0,0,0.2-0.1c0,0,0,0,0,0c-0.1,0.1-0.1,0.2-0.2,0.3c0,0,0,0,0,0
		c0-0.1-0.1-0.1-0.1-0.1c0,0-0.1,0.1,0,0.2c0,0,0,0,0,0c0,0.1-0.3,0.3-0.3,0.3c-0.1-0.1-0.6,0.4-0.6,0.4c0,0,0,0,0,0
		c0,0.1,0,0.1,0,0.2c0,0.1-0.1,0.1-0.2,0.2c0,0,0,0,0,0c-0.1,0.2-0.2,0.4-0.2,0.6c0,0,0,0,0,0c0,0.1-0.1,0.1,0,0.2c0,0,0,0,0.1,0
		c0,0,0,0,0,0c0.1,0,0.1,0.2,0.2,0.2c0.2-0.2,0.4-0.4,0.4-0.4c0,0,0-0.1,0.1-0.2c0.1-0.1,0.2-0.1,0.3-0.1c0.1-0.1,0.2-0.3,0.3-0.4
		c0,0,0,0,0,0c0,0,0,0,0,0c0.4-0.3,0.4-0.3,0.4-0.3c0,0,0,0,0,0c0,0.1,0,0.1-0.1,0.1c0.3,0,0.4,0,0.6-0.3c0,0,0.3-0.2,0.3-0.2
		c0,0,0.1-0.1,0.3-0.1c0.3,0,0.8-0.3,0.8-0.3c-0.1,0-0.2-0.1-0.3,0c0-0.1,0.1-0.1,0.2-0.2c0,0,0,0,0,0c0.1,0.1,0,0.2,0.1,0.2
		c0.1,0,0.2-0.1,0.2-0.2c0-0.1-0.2-0.2-0.1-0.3c0,0,0.1,0,0.1,0.1c0,0,0.1,0,0.1-0.1c0,0-0.1,0-0.2,0c0,0,0,0,0,0
		c0-0.1,0.1-0.1,0.1-0.2c0,0,0.1,0.1,0.1,0.1c0.1,0,0.1,0,0.2-0.2c0,0,0.1,0,0.1,0c0,0,0.1,0,0.1,0c0,0-0.2-0.2,0-0.2
		c0.1,0,0.2-0.1,0.2-0.2c-0.1,0-0.1,0-0.1,0c0,0,0-0.1,0-0.1c0.1,0,0.2,0,0.2,0c0,0,0-0.1,0-0.1c0,0,0,0-0.1,0c0,0,0,0,0,0
		c0,0,0,0,0,0c0,0,0,0,0.1,0c0,0,0,0,0,0c0,0-0.1,0-0.1,0c0.1-0.2,0.4-0.2,0.5-0.4c0,0,0,0-0.1,0c0-0.1,0.2,0,0.2-0.1c0,0,0,0,0,0
		c0.1-0.1,0.2-0.1,0.2-0.1c0,0,0,0,0-0.1c0,0,0,0,0,0c0,0-0.1,0-0.1,0.1c0,0,0,0,0,0c0,0,0,0,0,0c0,0,0,0-0.2,0.1
		c0.1-0.1,0.2-0.1,0.3-0.2c-0.1,0-0.1,0.1-0.2,0.1c0,0,0,0,0.1-0.1c0,0,0,0,0,0c0,0-0.1,0-0.1,0c0,0,0,0,0.3-0.1c0,0,0,0,0,0v0l0,0
		c0.1,0,0.1,0,0.2-0.1c-0.1,0-0.1,0-0.2,0.1c0,0,0,0,0.1,0c0,0,0-0.1,0-0.1c0-0.1,0-0.1,0,0c0,0,0.1,0,0.1,0l0.2-0.2
		C43.6,10.1,38.8,14.5,38.7,19.8 M46.4,10.7C46.4,10.7,46.4,10.6,46.4,10.7l0.1,0L46.4,10.7L46.4,10.7c0,0-0.1,0.1-0.1,0.1l0,0l0,0
		c0,0-0.1,0-0.2,0c0,0,0,0,0,0c0,0,0,0,0,0c0,0,0.1-0.1,0.2-0.1c0,0,0,0,0,0C46.2,10.7,46.3,10.7,46.4,10.7 M39.6,16.6
		C39.6,16.6,39.6,16.6,39.6,16.6C39.6,16.6,39.6,16.6,39.6,16.6c0,0,0,0.1,0,0.1c0,0.1,0,0.1,0,0.1c0,0-0.1,0.3-0.1,0.3h0
		c0,0,0-0.1,0-0.1c0,0,0,0,0,0c0,0-0.1,0.1-0.1,0.1c0,0.1-0.1,0.2-0.1,0.2c0,0,0,0,0-0.1c0-0.1,0-0.1,0-0.1c0,0-0.1,0.2-0.1,0.2
		l0.1-0.2c0-0.1,0.2-0.4,0.2-0.4C39.5,16.6,39.5,16.5,39.6,16.6C39.5,16.6,39.5,16.6,39.6,16.6C39.6,16.6,39.6,16.6,39.6,16.6
		 M39.5,17.4C39.5,17.4,39.5,17.4,39.5,17.4C39.5,17.4,39.5,17.4,39.5,17.4C39.5,17.4,39.5,17.4,39.5,17.4c-0.1-0.1,0-0.2,0-0.2
		c0,0,0,0,0,0c0,0,0,0,0,0c0,0,0,0,0,0c0,0,0,0.1,0,0.1C39.6,17.4,39.6,17.4,39.5,17.4L39.5,17.4C39.5,17.4,39.5,17.4,39.5,17.4
		 M39.3,17.4C39.3,17.4,39.3,17.4,39.3,17.4C39.4,17.4,39.4,17.4,39.3,17.4C39.4,17.4,39.4,17.4,39.3,17.4
		C39.4,17.5,39.4,17.5,39.3,17.4c0.1,0,0.1,0,0.1,0c0,0,0,0,0,0c0,0.1-0.2,0.1-0.2,0.1c0,0,0,0,0,0C39.2,17.5,39.3,17.4,39.3,17.4
		C39.3,17.4,39.3,17.4,39.3,17.4C39.3,17.4,39.3,17.4,39.3,17.4C39.3,17.4,39.3,17.4,39.3,17.4C39.3,17.4,39.3,17.4,39.3,17.4
		 M52.3,10.2C52.3,10.2,52.3,10.2,52.3,10.2c0,0,0,0,0.1,0C52.3,10.3,52.3,10.3,52.3,10.2c-0.2,0-0.2,0-0.3,0l0,0h0
		c0.2,0.1,0.5,0.1,0.7,0.2c0,0-0.1,0-0.1,0c0.6,0.3,0.8,0.3,0.9,0.3c0.1,0,0.1,0,0.1,0c0,0,0,0,0,0c0.2,0.2,0.5,0.2,0.7,0.3
		c-0.1,0-0.3,0-0.3,0c0,0.1,0.1,0,0.2,0.1c0,0,0,0,0,0c0.1,0.2,0.3,0.1,0.4,0.1c0,0,0,0-0.1,0c0,0,0,0,0,0c-0.2,0-0.3-0.2-0.5-0.2
		c0.1,0.1,1.2,0.6,1.2,0.6c0,0,0,0,0,0c0.2-0.1,0.4,0.1,0.5,0.2c0,0,0,0,0,0c-0.1,0-0.3-0.1-0.4-0.2c0,0,0,0,0,0c0,0,0,0.1,0,0.1
		c0,0-0.1,0-0.1,0c0,0-0.3-0.1-0.3-0.1c-0.1,0-0.2-0.1-0.2-0.1c-0.1,0-0.2,0-0.2-0.1c-0.2-0.1-0.2-0.1-0.3-0.2c-0.1,0-0.1,0-0.2,0
		c0,0,0,0,0,0l0,0c0,0,0.1,0,0.1,0l1.3,0.7c-0.3-0.1-0.3-0.1-1-0.2c0.1,0.1,0.4,0.1,0.5,0.2c0,0,0,0,0,0c0,0,0.1,0,0.1,0.1
		c-0.1,0-0.1-0.1-0.2-0.1c0,0,0,0.1,0,0.1c0,0-0.1,0-0.1,0c0,0,0,0.1,0,0.1c-0.1,0-0.1,0-0.1,0c0,0,0,0,0,0c-0.1,0-0.1,0-0.1-0.1
		c0,0,0,0,0,0c0,0,0,0.1,0.1,0.1c-0.2,0-0.1,0.2-0.1,0.2c0,0,0,0,0,0c0,0.1,0.1,0.1,0.1,0.2c0,0,0,0,0,0c0,0,0,0,0,0s0,0,0,0h0
		c0,0,0,0,0,0c0,0,0,0,0,0c0,0,0,0,0,0c0,0,0,0,0,0c0,0,0,0,0,0h0c-0.3-0.1-0.2-0.1-0.2-0.2c0,0,0,0,0,0c-0.1,0-0.1,0-0.4-0.1
		c0.1,0.1,0.2,0.2,0.3,0.3c0.1,0,0.2,0.1,0.2,0.2c0,0,0,0,0,0c0,0-0.1,0-0.1,0c0,0,0,0.1,0,0.1c-0.1,0.1-0.1,0.1,0.2,0.3
		c-0.1,0.1-0.4,0-0.4,0l0,0c0,0.1,0.1,0.2,0.2,0.2c0,0,0,0,0.1,0.1c0,0,0,0,0,0c-0.4-0.1-0.7-0.4-1.1-0.6c0.1,0,0.2,0,0.3,0.1
		c0.1,0,0.3,0.1,0.5,0c0,0,0.2-0.2-0.1-0.3c0,0-0.8-0.3-0.8-0.2c0,0-0.1,0-0.1,0c0,0-0.1,0-0.1,0c0,0,0,0,0,0c0,0-0.1,0-0.1,0
		c0,0,0,0,0,0c0,0-0.1,0-0.1,0c0,0,0,0,0,0c0,0-0.1,0-0.1,0c0,0,0,0,0,0c0,0,0,0,0.1-0.1c-0.1-0.1-0.2-0.1-0.3-0.1c0,0,0,0,0,0
		c0,0,0,0,0,0c-0.1,0-0.1-0.1-0.1-0.1c0,0,0,0,0,0c0.1,0.1,0.1,0.1,0,0.1c0,0-0.1-0.1-0.1-0.1c0,0,0,0,0,0.1c0,0,0,0,0,0
		c0-0.1,0-0.1,0-0.2c0,0,0,0-0.1,0.1c0,0,0,0,0,0c0,0,0,0,0,0c0,0,0,0.1,0,0.1c0,0,0,0,0.1,0.1c0,0,0,0-0.1-0.1c0,0,0-0.1,0-0.1
		c0,0-0.1,0-0.1,0c0,0,0,0,0,0c0,0,0,0,0,0c0,0-0.1,0-0.1,0c0,0,0.1,0,0.1,0c-0.1,0-0.1,0-0.1,0c0,0,0,0.1,0.1,0.1c0,0-0.1,0-0.1,0
		c0,0,0,0,0,0c0,0,0,0,0-0.1c0,0-0.1,0-0.1,0c0,0,0,0,0,0c0,0,0,0.1,0,0.1c0,0-0.1,0-0.1,0c0,0,0,0.1,0,0.1c0,0,0.1,0,0.1,0
		c0,0,0,0,0,0c0,0,0,0,0,0c0,0,0,0,0,0c0,0,0,0,0,0c0,0,0,0,0,0c0,0,0-0.1,0-0.1C51,12.8,51,12.9,50.9,13c0.1,0,0.1-0.1,0.2-0.1
		c0,0,0,0,0,0c0,0,0,0,0,0c0,0,0,0.1,0,0.1c-0.1,0-0.1,0-0.1,0.2c0,0,0,0,0,0h0c0,0.1-0.1,0.2,0,0.3c0,0,0,0,0,0c0,0,0,0,0,0
		c0,0.1,0,0.2,0,0.2c-0.1,0.1-0.1,0.1-0.1,0.1c0,0,0,0,0.1,0.1c0,0-0.1,0-0.1,0c-0.1,0.1-0.1,0.1-0.1,0.2c0,0-0.1,0-0.1,0
		c0,0,0,0,0,0c0,0,0,0.1,0,0.1c-0.1,0-0.1,0.1-0.2,0.1c0,0,0,0,0,0c0,0,0,0,0,0c0,0,0,0-0.1,0c0,0,0,0,0,0c0,0-0.1,0-0.1,0.1
		c0,0,0,0,0,0c0,0-0.1,0-0.1,0c0,0,0,0.1,0,0.1c0,0,0,0,0.1,0.1c0,0,0,0.1,0,0.1c0,0,0,0.1,0,0.1c0.1,0,0.1,0,0.2,0c0,0,0,0,0,0
		c0,0-0.1,0-0.1,0.1c0,0,0,0,0,0c0,0,0,0,0,0c0,0,0,0,0,0c0,0,0,0,0,0c0,0.1,0,0.1,0,0.1c0,0,0,0,0,0c0,0,0,0,0.1-0.1c0,0,0,0,0,0
		c0,0,0,0-0.1,0.1c0.1,0.1,0.3,0.1,0.4,0.1c0.2,0,0.2-0.2,0.3-0.2h0h0h0h0h0c0,0,0,0,0,0h0c0,0,0,0,0,0c0,0,0-0.1,0-0.1
		c0.4,0.1,0.3,0.5,0.6,0.7c0,0.1,0,0.1,0,0.1c0,0,0,0,0.2,0c0,0,0-0.1,0-0.1c0.1-0.1,0.1-0.1,0.2-0.1c0,0,0-0.1,0-0.1c0,0,0,0,0,0
		c0,0,0,0,0.1-0.2l0,0c0,0,0,0,0,0c0-0.1,0-0.4,0-0.4c0.1-0.1,0.1-0.3,0.1-0.3c0,0-0.1-0.1-0.3-0.1c-0.1-0.1-0.1-0.2-0.1-0.4
		c0,0,0-0.1,0-0.1l0.2-0.4c0-0.1-0.1-0.2,0-0.3c0.3-0.1,0.3,0,0.4,0.1c0,0,0,0,0,0c0,0.1-0.1,0.3-0.1,0.4c0,0,0,0-0.1,0
		c0,0,0,0.1,0,0.1c0.1,0.1,0.1,0.3,0.2,0.4c0,0,0,0,0.3,0.1c0.3,0.1,0.4-0.2,0.6-0.2c0.1,0.1,0.1,0.1,0.2,0.1
		c-0.1,0.1-0.3,0.2-0.3,0.2c-0.2,0-0.3,0.1-0.4,0.2c0.1,0.2,0.1,0.2,0.2,0.2c0,0.1,0.1,0.3,0.1,0.3c-0.1,0-0.2-0.1-0.3-0.1
		c-0.2,0.2,0,0.4,0,0.5c0,0,0,0,0.1,0.1c0,0,0,0,0,0c0,0,0,0,0,0c0,0,0,0,0,0c0,0-0.1,0-0.1,0c0,0,0,0,0,0c0,0.1-0.1,0.2-0.2,0
		c0,0-0.2,0-0.6,0.3C52,16,52,16,51.9,16c0,0,0-0.1,0-0.1c-0.1,0-0.2,0.1-0.3,0.2c0,0,0,0,0,0c0,0,0-0.1,0-0.1c-0.2,0-0.2,0-0.3-0.1
		c0,0,0,0,0,0c0.1,0,0.1,0,0.1,0c0,0,0,0,0,0c0,0,0-0.1-0.1-0.1c0,0-0.1,0-0.1,0c0-0.1,0-0.1,0.1-0.2c0-0.1-0.1-0.3-0.1-0.3
		c-0.1,0-0.1,0-0.1,0.1c0,0,0,0,0,0c0,0,0,0.1,0,0.1c0,0-0.1,0-0.1,0c0,0,0,0,0,0c0,0.1-0.1,0.2,0.3,0.7c-0.1,0.1-0.2,0-0.3,0.1
		c0,0,0,0.1,0,0.1c-0.1,0-0.3,0-0.2,0.1c0,0,0,0,0,0c0,0-0.1,0-0.1,0c-0.1,0.1-0.1,0.2-0.2,0.3c-0.1,0.1-0.2,0.1-0.3,0.1
		c0,0,0,0.1,0,0.1l0,0c0,0.1,0,0.1-0.2,0.1c0,0-0.1,0.1-0.1,0.1c-0.1,0-0.2-0.1-0.3-0.1c0,0,0,0,0,0.1c0.1,0.1,0.1,0.1,0,0.2
		c-0.5,0-0.5,0-0.5,0c0,0,0,0.1,0,0.1c0.8,0.2,0.8,0.5,0.6,0.9c0,0-0.8,0.1-1.2,0c-0.1,0.1-0.2,0.1-0.2,0.1c0.1,0.4,0.1,0.6,0,0.9
		c0.1,0.1,0.1,0.3,0.2,0.4c0.4,0,0.4,0,0.6,0.2c0,0,0,0,0.1,0c0,0,0,0,0-0.1c0.4,0,0.4,0,1-0.5c0-0.2,0-0.2,0-0.3
		c0,0,0.1-0.1,0.1-0.1c0,0,0,0,0-0.1c0.1-0.2,0.3-0.1,0.4-0.2c0.1-0.1,0-0.2,0.1-0.3c0.1-0.1,0.2,0,0.3,0c0.1,0,0.2,0.1,0.2,0
		c0.2-0.1,0.2-0.3,0.4-0.3c0.1,0,0.2,0,0.2,0l1.2,0.8c0.1,0,0.1,0,0.1,0.3c0,0,0.1,0,0.1,0c0.1-0.2,0.1-0.2,0.1-0.2
		c0-0.1-0.1-0.1-0.1-0.2c0.1-0.1,0.1-0.1,0.3,0c0,0,0,0,0,0c-0.3-0.4-1.3-0.3-1.2-1c0,0,0.1-0.1,0.1-0.1c0,0,0.1,0.1,0.1,0.1
		c0,0,0.1,0,0.1,0c0.2,0.4,0.7,0.4,1,0.6c0,0.1-0.1,0.3,0.4,0.6c0.1-0.1,0.1-0.1,0.2,0c0,0-0.1,0-0.1,0c0,0,0,0,0,0.1
		c0.2,0.2,0.2,0.2,0.4,0.3c0-0.1,0-0.1,0-0.2c0,0,0.1,0,0.1,0c0,0-0.1,0-0.1,0c0,0,0,0,0.1,0c0.1,0,0.1,0,0.2-0.1
		c0,0-0.1-0.1-0.1-0.1c0,0,0,0-0.1,0c0,0,0,0-0.1,0c0,0,0,0,0-0.1c0-0.1-0.2-0.2-0.2-0.3c0,0,0,0,0.1,0c0,0,0,0,0.1,0
		c0,0,0.1,0,0.1,0c0,0,0-0.1,0-0.1c0.1,0,0.1,0,0.2-0.1c0.1,0,0.2,0.1,0.2,0.1c0.2-0.2,0.2-0.2,0.3-0.2c0,0,0,0,0-0.1
		c-0.4-0.2-0.3-0.4-0.2-0.5c0-0.2,0-0.2,0.1-0.3c0-0.1,0.1-0.4,0.3-0.4c0,0,0,0.1,0,0.1c0,0,0.1,0,0.1,0c0,0,0.1,0,0.1,0
		c0,0-0.1,0.1-0.1,0.1c0.1,0.1,0.2,0.1,0.2,0.2c0,0,0.1,0,0.1,0c0.1-0.2,0.2-0.2,0.3-0.2c0,0,0,0-0.1,0c-0.2,0.1-0.3-0.1-0.2-0.2
		c0,0,0.3-0.3,0.4-0.3c0,0.1,0,0.1-0.1,0.2c0,0,0.1,0.1,0.1,0.1c0,0,0,0,0,0.1c0,0,0,0.1,0,0.1c0,0-0.1,0.1-0.1,0.1
		c0.2,0.2,0.6,0.1,0.8,0.3c0.3,0.3,0,0.4-0.1,0.4c0,0,0,0-0.1,0c0,0,0,0,0,0c-0.1,0-0.2,0-0.4,0c-0.1,0-0.3,0-0.4,0
		c-0.1,0-0.2,0-0.8,0.4c0,0.2-0.5,0.1-0.4,0.3c0,0,0.1,0,0.1,0c0.2,0.4,0.2,0.4,0.4,0.5c0.1,0,0.2,0,0.4,0c0.2,0,0.5,0.1,0.7-0.2
		c0.1,0,0.1,0,0.2-0.1c0.1,0.1,0.2,0.4-0.1,1.2c-0.1,0.1-0.9,0.2-0.9,0.2c-0.2,0-0.4,0-0.6-0.1c-0.3-0.1-0.6-0.2-0.9,0
		c-0.2,0.1,0.1,0.4-0.2,0.5c0,0-0.7-0.2-0.7-0.3c-0.1,0-0.2,0-0.3,0c-0.2,0-0.4,0-0.5-0.2c-0.1,0-0.1,0-0.2,0c0,0,0-0.1,0-0.1
		c0.3-0.2,0.2-0.2,0.1-0.4c0,0,0.1-0.1,0.1-0.1c0,0-0.1,0-0.1,0c0,0,0,0,0-0.1c-0.6-0.1-1.1,0.2-1.7,0.3c-0.3,0-0.4,0.3-0.7,0.4
		c0,0-0.3,0-0.7-0.1c-0.2,0.1-0.7,0.7-0.7,0.7c-0.1,0.2,0,0.4-0.1,0.6c-0.1,0.1-0.1,0.1-0.5,0.4c-0.2,0.1-0.6,1.1-0.6,1.1
		c0,0,0.2,1.7,0.4,1.8c0,0,0,0,0.1,0c0.2,0.4,1.1,1,1.5,1.1c0.4,0.1,0.7-0.1,1.1-0.1c0.4,0,0.6-0.4,1-0.3c0.2,0.1,0.4,0.3,0.7,0.2
		c0,0,0,0,0,0h0h0c0,0,0,0,0,0h0h0h0h0c0.2,0,0.2,0,0.3,0c0.1,0.1,0.1,0.1,0.2,0.1c0,0.1,0,0.3-0.1,0.4c0,0,0,0,0,0.1c0,0,0,0,0,0.1
		c0,0,0,0,0.1,0c-0.1,0-0.1,0.1-0.2,0.2c0,0,0,0,0.3,0.3l0,0c0.2,0.1,0.2,0.1,0.3,0.5c0,0.1-0.1,0.1,0,0.1c0,0.1,0.1,0.1,0.1,0.2
		c0,0.1-0.2,0.2-0.2,0.3c0,0-0.2,0.3-0.2,0.3c0,0-0.1,0.1,0,0.1c0,0,0,0,0.1,0.1c0.1,0.1,0.1,0.3,0.1,0.3C52.3,29,52.3,29,52.3,29
		c0.1,0.1,0,0.3-0.1,0.4c0,0,0,0,0.1,0c0.8-0.1,1.7-0.6,1.8-0.8c0,0,0,0,0,0c0.1-0.1,0.3-0.1,0.5-0.3c0.1-0.1,0.1-0.3,0.3-0.4
		c0,0,0.4-0.3,0.6-0.4c0.3-0.1,0.4-0.3,0.4-0.3c0,0,0.3-0.5,0.3-0.5c0,0,0,0,0-0.1c0,0,0.1-0.4,0.1-0.4c-0.1,0-0.1,0,0.2-0.4
		c0.4-0.6,1.1-1,1.5-1.5c0,0,0.7-1,0.6-1.2c-0.2,0.3-0.9,0.5-0.9,0.5c0-0.1-0.1-0.1-0.1-0.2c0,0,0.1-0.1,0.1-0.1
		c-0.2-0.2-0.4-0.3-0.5-0.5L56,20.5c0.1,0.1,0.2,0.3,0.3,0.4c0,0,0.1,0,0.1,0c0-0.1,0-0.1,0-0.2c0.2,0.4,0.6,0.7,0.8,1.1
		c0.4,0.8,0.4,0.8,0.4,0.8c0.1,0.2,0.1,0.7,0.1,0.8c0,0,0,0,0.1,0c0.7-0.2,1.8-1.4,2-2.3c-0.1-0.1-0.1-0.1-0.1-0.2
		c-0.2,0-0.2,0-0.3-0.4c0,0,0,0-0.4,0.6c0,0,0,0-0.1-0.3c0,0-0.1,0-0.1,0c0,0,0,0.1,0,0.1c-0.4-0.5-0.5-0.8-0.2-1h0
		c0.5,0.5,0.5,0.5,0.8,0.4c0.1,0.1,0.1,0.1,0.1,0.2c0.2,0.1,0.5,0,0.6-0.2c0.1,0,0.1,0,0.2-0.1c0.1,0.1,0.1,0.1,0.1,0.2
		c0.1,0,0.1,0.1,0.2,0.1c0,0,0,0,0-0.1c0,0.3,0,0.3,0,0.3c0,0,0,0,0,0c0,0,0,0,0.1-0.3c0,0,0.1,0.5-0.1,2.2c0,0,0.5-1,0.6-3
		c0-4.1-2.8-7.5-6.7-9.1c-0.2-0.1-0.5-0.2-0.8-0.3l-0.4-0.1c0,0,0,0,0.1,0c0,0-0.1,0-0.1,0c0.1,0,0.2,0.1,0.2,0.1
		c-0.1,0-0.1,0-0.2,0c0,0,0.1,0,0.1,0c0,0,0,0,0,0c0,0,0,0,0.5,0.2c-0.2-0.1-0.5-0.2-0.7-0.2l0,0C52.6,10.3,52.6,10.3,52.3,10.2
		C52.3,10.2,52.3,10.2,52.3,10.2 M58.5,16.3c0,0,0.1,0,0.1,0c0,0,0,0,0,0C58.6,16.3,58.6,16.3,58.5,16.3
		C58.5,16.3,58.5,16.3,58.5,16.3 M58.5,16.5C58.5,16.5,58.5,16.5,58.5,16.5C58.5,16.4,58.5,16.4,58.5,16.5
		C58.6,16.4,58.6,16.5,58.5,16.5C58.6,16.5,58.6,16.5,58.5,16.5C58.6,16.5,58.6,16.5,58.5,16.5c0.1,0,0.2,0.1,0.2,0.2
		c0,0.1,0,0.2-0.1,0.2c0,0,0-0.1,0-0.1c0-0.1,0,0,0,0C58.5,16.8,58.4,16.5,58.5,16.5C58.5,16.5,58.5,16.5,58.5,16.5
		C58.5,16.5,58.5,16.5,58.5,16.5L58.5,16.5z M58,18.4c-0.1-0.1-0.1-0.2,0-0.2c0-0.3,0-0.3-0.2-0.5c-0.1-0.1-0.2-0.2-0.2-0.2
		c0-0.1,0-0.1-0.1-0.2c0-0.1-0.1-0.1-0.1-0.1c-0.1-0.2,0.2-0.6,0.2-0.6c0.1-0.1,0.3-0.1,0.3-0.1c0.1,0,0.2,0.3,0.2,0.3
		c0,0.1-0.1,0.1-0.2,0.1c-0.1,0.1,0.1,0.1,0,0.2c0,0-0.1,0-0.1,0c0,0,0,0.1,0,0.1c0,0,0.1,0,0.1,0.1c0.1,0.1,0.1,0.1,0.1,0.1
		c0,0,0,0,0.1,0c0,0,0,0,0,0c0,0,0,0,0,0c0,0,0,0,0,0.1c0,0.1,0.1,0.2,0.1,0.2c0,0,0-0.1,0-0.1c0,0,0.1,0,0.1,0c0,0,0,0.1,0.1,0.1
		c0,0,0.1,0,0.1,0.1c-0.1,0.1-0.1,0.1-0.1,0.1c0,0-0.1,0-0.1,0c0,0,0,0.2,0.1,0.2c0,0,0,0,0,0c0,0,0,0,0,0c0,0,0,0.1,0,0.1
		c0.2-0.1,0.2,0.5,0.2,0.5c0,0,0,0.1-0.2,0.1c0,0,0,0,0,0v0c0,0,0,0-0.1,0c-0.1,0-0.1-0.1-0.1-0.1c0,0-0.1,0-0.1,0c0,0,0,0,0,0
		C58.1,18.5,58.1,18.5,58,18.4 M52.2,10.7c0,0,0.1,0,0.1,0.1c0,0,0,0,0,0c0,0,0,0,0,0c0,0,0,0,0,0c0,0,0,0,0,0c0,0,0,0,0,0
		c0,0,0,0,0,0c0,0,0,0,0,0c0,0,0,0,0,0c0,0.1,0.1,0.1,0.2,0.1c0,0,0,0,0,0c0,0,0,0,0,0c0,0,0,0,0,0c0.1,0,0.2,0.1,0.2,0.1
		c0.1,0.1,0.1,0.1,0.1,0.1c0,0,0,0,0,0c0,0,0,0,0.1,0c0,0,0.1,0,0.1,0.1c0,0,0,0,0,0c0,0,0.1,0,0.1,0.1c0,0,0,0,0,0v0
		c0.2,0.1,0.2,0.1,0.2,0.1c-0.1,0.1,0.1,0.1,0.1,0.1c0.1,0,0.1,0.1,0.2,0.1c0,0,0,0,0,0c0,0-0.1,0-0.1,0c0,0,0,0,0,0
		c0,0,0.1,0,0.1,0.1c0.1,0.1,0.3,0,0.3,0c0,0,0,0,0,0c0,0,0,0-0.1-0.1c-0.1,0-0.2-0.1-0.4-0.2c0,0-0.4-0.2-0.4-0.3
		c-0.1-0.1-0.1-0.1-0.2-0.1c0,0,0,0,0,0c-0.4-0.4-0.4-0.4-0.5-0.4C52.3,10.7,52.2,10.7,52.2,10.7C52.2,10.7,52.2,10.7,52.2,10.7
		 M53.8,11c0,0,0.1,0.1,0.1,0C53.9,11,53.9,11,53.8,11C53.8,11,53.8,11,53.8,11C53.8,11,53.8,11,53.8,11 M53.5,11.1
		C53.5,11.1,53.5,11.1,53.5,11.1L53.5,11.1c0,0,0.1,0.1,0.1,0.1C53.7,11.2,53.6,11.1,53.5,11.1C53.6,11.1,53.6,11.1,53.5,11.1
		C53.5,11.1,53.5,11.1,53.5,11.1 M44.2,11.6C44.2,11.7,44.1,11.7,44.2,11.6C44.1,11.7,44.1,11.7,44.2,11.6
		C44.1,11.7,44.1,11.7,44.2,11.6c-0.1,0.1-0.2,0.1-0.3,0.2c0,0,0,0,0,0c0,0,0,0,0,0c-0.1,0-0.1,0.1-0.1,0.2c0,0,0,0,0,0
		c0,0,0,0,0.1,0c0,0,0,0,0,0c0,0,0,0,0,0.1c0.1,0,0.1-0.1,0.2-0.1C44,12,44,12,44,12c0,0,0,0,0,0c-0.1,0-0.1,0.1-0.2,0.2
		c0,0-0.1,0-0.2,0.1c0,0,0.1,0,0.1,0c0,0,0,0,0,0c0,0-0.1,0.1-0.1,0.1h0c0,0,0,0,0,0c-0.1,0.1-0.3,0.2-0.4,0.3c0,0,0,0,0,0
		c0,0,0,0,0.1,0c0,0,0,0,0,0c0,0.1-0.1,0.2-0.2,0.2c0,0,0,0,0,0c0.1-0.1,0.1-0.2,0.1-0.2c-0.2,0-0.2,0.2-0.3,0.2c0,0-0.1,0.1-0.1,0
		c0,0,0,0,0,0c-0.3,0.1-0.3,0.2-0.3,0.2c0.1,0,0.1,0,0.1,0c0,0,0.1,0,0.1,0c0,0,0,0.1,0,0.1l-0.2,0.3c0,0,0,0.1,0,0.1
		c0,0.1,0,0.1,0,0.2c0,0,0,0.1,0,0.1c0.1,0,0.2-0.3,0.2-0.4c0,0,0,0,0,0c0,0,0,0,0,0.1c0,0.1,0,0.1,0.1,0.1c0,0,0.1-0.1,0.1-0.1
		c0,0,0,0,0,0c0,0,0,0,0-0.1c0-0.1,0.2-0.1,0.1-0.2c0-0.2,0.3-0.4,0.3-0.4c0,0.1-0.1,0.2-0.2,0.3c0,0,0,0,0,0l0.5-0.3
		c0,0,0.1-0.1,0-0.1c0-0.1,0.1-0.1,0.1-0.2c0,0,0,0,0,0c0-0.1,0-0.2,0.2-0.3c0,0,0,0,0,0c0,0,0.1,0,0.1,0c0,0,0,0,0,0
		c0.1-0.1,0.2-0.1,0.2-0.2c0,0,0,0-0.1,0c0-0.1,0.2,0,0.2-0.1c0,0,0,0,0,0c0,0,0,0,0,0c0,0,0.1,0,0.1-0.1c0,0,0,0,0,0
		c0,0-0.1,0-0.1,0c0-0.1,0.2,0,0.2-0.1c0,0,0,0-0.1,0c0,0,0,0,0,0c0,0,0.1-0.1,0.1-0.1c0,0,0,0,0,0l0.2-0.2c0,0,0,0-0.2,0.1
		c0,0,0,0,0.1-0.1c0,0,0,0-0.1,0c0.1-0.1,0.2-0.1,0.3-0.2c0,0-0.1,0-0.1,0.1c0,0,0,0,0,0c0,0,0,0,0,0c0,0,0,0,0,0c0,0,0,0,0,0
		c0,0,0,0,0,0c0.1,0,0.2-0.1,0.2-0.2c0,0,0,0,0,0c0,0,0,0,0,0c0,0,0,0,0,0c0,0-0.1,0-0.1,0c0,0,0.1,0,0.1-0.1
		c-0.1,0-0.5,0.2-0.6,0.3C44.4,11.6,44.3,11.6,44.2,11.6c0.1,0,0.5-0.2,0.7-0.3c0,0,0.1,0,0.1,0c0,0,0,0,0,0c0,0,0,0,0,0
		C44.8,11.3,44.2,11.6,44.2,11.6 M53.7,12.1c0,0,0.1,0.1,0.2,0.1c0,0,0,0,0,0c0,0,0,0,0,0c0,0,0,0,0,0c0,0,0,0,0,0c0,0,0,0,0,0
		C53.9,12.1,53.8,12.1,53.7,12.1C53.7,12.1,53.7,12.1,53.7,12.1 M43.2,12.6C43.2,12.6,43.3,12.6,43.2,12.6c0.1,0,0.1,0,0.2,0
		c0.2-0.1,0.2-0.1,0.1-0.2c0,0,0,0,0,0C43.4,12.4,43.2,12.6,43.2,12.6 M45,12.4c-0.1,0-0.1,0.1-0.2,0.1c0,0,0,0,0,0c0,0,0,0,0,0
		c0,0,0,0,0,0c0,0,0,0,0,0c0,0,0.1,0,0.1,0c0,0,0,0,0,0c0,0,0,0,0,0C45,12.5,45,12.5,45,12.4C45,12.4,45,12.4,45,12.4L45,12.4z
		 M42,13.3C41.9,13.4,41.9,13.4,42,13.3C41.9,13.4,42,13.3,42,13.3c0.1,0,0.1,0,0.1,0c0,0,0,0,0,0C42.1,13.3,42,13.3,42,13.3
		 M41.9,13.5C41.9,13.6,41.8,13.6,41.9,13.5C41.9,13.6,41.9,13.6,41.9,13.5C42,13.5,42,13.5,41.9,13.5L41.9,13.5L41.9,13.5
		C42,13.5,42,13.5,41.9,13.5C42,13.5,41.9,13.5,41.9,13.5 M47.6,13.5C47.6,13.5,47.6,13.6,47.6,13.5C47.6,13.6,47.6,13.6,47.6,13.5
		C47.6,13.6,47.5,13.6,47.6,13.5C47.5,13.6,47.5,13.5,47.6,13.5c-0.1,0-0.1,0.1-0.1,0.1c0,0,0,0,0,0c0,0,0,0-0.1,0c0,0,0-0.1-0.1,0
		c0,0,0,0-0.1,0.1c0,0,0,0,0,0c0,0,0-0.1,0-0.1c0,0,0,0,0,0.1c0,0.1,0,0.1,0,0.1c0,0,0,0,0,0c0,0,0,0,0,0c0,0,0,0-0.1,0
		c0,0,0-0.1,0-0.1c0,0-0.1-0.1-0.1-0.1c0,0-0.1,0,0,0.1c0,0,0,0,0,0c0,0,0,0,0,0c0,0,0,0,0,0c-0.2,0.1-0.1,0.2-0.1,0.2
		c0,0,0.1,0,0.1,0c0,0,0.1,0,0.1,0c0,0,0,0,0,0c0,0,0,0,0,0c0,0,0,0,0,0c0,0,0,0,0,0c0,0-0.1,0-0.1,0c-0.1,0-0.2,0-0.1,0
		c0,0,0,0,0.1,0c0,0,0.1,0,0.1,0c0,0.1,0,0.1,0,0.1c0,0,0,0,0,0c0,0,0,0,0,0c0,0.1,0,0.1-0.1,0.1c-0.1,0-0.1,0,0,0.1c0,0,0,0,0,0
		c0,0,0.1,0,0.1,0c0,0,0.1,0,0.1,0c0.1,0,0.1,0.1,0.2,0.1c0.1,0,0.1,0,0.2-0.1c0,0,0,0,0,0c0,0,0.1,0,0.1,0c0,0,0.1,0,0.1-0.1
		c0,0,0,0,0.1,0c0,0,0,0,0,0c0,0,0,0,0.1-0.1c0,0,0,0,0.1,0c0,0,0.1-0.1,0.1-0.1c0,0,0-0.1,0-0.1c0,0,0,0,0,0c0,0,0-0.1,0-0.1
		c0,0,0,0,0,0C47.7,13.5,47.7,13.5,47.6,13.5C47.7,13.5,47.7,13.5,47.6,13.5C47.6,13.5,47.6,13.5,47.6,13.5
		C47.6,13.5,47.6,13.5,47.6,13.5 M49.4,14.7c-0.1,0,0,0.2,0,0.2C49.4,14.9,49.4,14.8,49.4,14.7C49.4,14.7,49.4,14.7,49.4,14.7
		L49.4,14.7z M52.8,14.8C52.8,14.8,52.8,14.8,52.8,14.8C52.8,14.8,52.9,14.8,52.8,14.8C52.9,14.8,52.9,14.8,52.8,14.8
		C52.8,14.8,52.8,14.8,52.8,14.8 M52.9,14.8c-0.1,0-0.1,0.1-0.1,0.1c0,0,0,0,0,0C52.9,15,52.9,14.9,52.9,14.8
		C52.9,14.9,52.9,14.8,52.9,14.8C52.9,14.8,52.9,14.8,52.9,14.8 M52.4,15.1C52.4,15.1,52.4,15.1,52.4,15.1c-0.1,0.1,0,0.2,0,0.2
		C52.4,15.3,52.5,15.2,52.4,15.1C52.5,15.1,52.4,15.1,52.4,15.1C52.4,15.1,52.4,15.1,52.4,15.1 M49.1,15.1
		C49.1,15.2,49.1,15.2,49.1,15.1c0,0.1,0,0.1-0.2,0.1c-0.1,0-0.1,0.1-0.1,0.2c0,0-0.1,0.1-0.1,0.1c-0.1-0.1-0.1,0-0.1,0
		c0,0,0.1,0.1,0.1,0.1c0,0.1-0.1,0.1-0.1,0.1c0,0,0.1,0,0.1,0.1c0,0,0,0-0.1,0.1c-0.1,0-0.1,0-0.1,0.1c0,0,0,0,0,0c0,0,0,0,0.1-0.1
		c0,0,0,0,0,0c0,0.1,0,0.2,0.1,0.1c0,0,0-0.1,0-0.1c0,0,0,0.1,0,0.2c0,0,0,0.1,0,0.1c0,0,0.2,0,0.2,0c0,0,0,0,0,0c0,0,0,0.1,0,0.1
		c0,0,0.1,0,0.1,0.1c0,0,0,0.2,0,0.2c0,0-0.1,0-0.2,0c0,0-0.1,0-0.1,0c0,0,0,0,0,0c0,0,0,0,0,0c0,0.1,0,0.1,0,0.1c0,0,0.1,0,0,0
		c0,0,0,0.1-0.2,0.1c0,0,0,0,0,0c0,0,0.1,0,0.1,0c0,0,0.1,0,0.1,0c0,0,0.1,0,0.1,0c0,0,0.1,0,0.1,0c0,0,0,0.1-0.1,0.1
		c0,0-0.1,0-0.3,0.2c0,0.1,0,0.1,0,0.1c0,0,0,0,0,0c0,0,0,0,0.1,0c0,0,0,0,0,0c0,0,0.1,0,0.1,0h0c0,0,0,0,0,0c0,0,0.1,0,0.1,0v0h0
		c0-0.1,0-0.1,0-0.1l0.1,0c0,0,0,0,0.1,0c0,0,0,0,0.1,0c0.2,0,0.2,0,0.3,0c0,0,0.2-0.1,0.2-0.1c0,0,0,0-0.1,0c0,0-0.1,0-0.1,0
		c0-0.1,0.1-0.1,0.2-0.2c0-0.1-0.1-0.1-0.2-0.1c-0.1,0.1-0.1,0-0.1,0c0,0,0,0,0,0c0,0,0,0,0,0c0-0.1,0-0.1-0.1-0.2
		c0-0.1-0.1-0.1-0.2-0.2c0-0.1,0-0.1-0.1-0.2c0,0-0.1,0-0.1,0c0,0,0,0-0.1,0c0,0,0-0.1,0-0.1c0.1-0.1,0.1-0.3,0.1-0.3
		c0,0-0.2,0-0.3,0c0,0-0.1,0-0.1,0c0,0,0,0,0,0C49.1,15.3,49.2,15.1,49.1,15.1L49.1,15.1z M48.7,15.3c0,0-0.1,0.1-0.1,0.1
		C48.6,15.4,48.7,15.3,48.7,15.3C48.7,15.3,48.7,15.3,48.7,15.3L48.7,15.3z M51.6,15.6C51.6,15.6,51.6,15.6,51.6,15.6
		C51.6,15.6,51.5,15.6,51.6,15.6C51.5,15.6,51.5,15.6,51.6,15.6c-0.1,0.1,0,0.2,0,0.2c0,0,0,0,0,0c0,0,0,0-0.1,0
		c0,0,0.1,0.1,0.1,0.1c0,0,0.1-0.1,0.1-0.1c0,0,0,0,0-0.1c0,0,0-0.1,0-0.1c0,0,0,0,0,0C51.7,15.6,51.6,15.6,51.6,15.6
		C51.6,15.6,51.6,15.6,51.6,15.6C51.6,15.7,51.6,15.7,51.6,15.6C51.6,15.6,51.6,15.6,51.6,15.6C51.6,15.6,51.6,15.6,51.6,15.6
		 M48.6,16c-0.1,0-0.1,0.1-0.1,0.1c0,0,0,0-0.1,0c0,0-0.1,0-0.1,0c0,0,0,0.1,0,0.1c0.1,0,0.1,0,0,0c0,0-0.2,0.1-0.2,0.1
		c0,0,0,0-0.1,0c0,0,0,0-0.1,0c0,0,0,0,0,0.1c0,0,0,0,0,0c0,0,0,0.1,0,0.1c0,0,0.1,0,0.1,0.1c0,0,0,0,0,0c0,0,0,0,0,0c0,0,0,0,0,0
		c0,0,0,0-0.1,0.1c0,0,0,0,0,0c0,0.1,0.1,0.1,0.1,0.1c0.1,0,0.3,0,0.3-0.1c0,0,0,0,0.1,0c0,0,0,0,0.1,0c0,0,0,0,0.1,0c0,0,0,0,0,0
		c0.1,0,0-0.3,0-0.4c0-0.1,0.1-0.1,0.1-0.1C48.8,16.1,48.7,16,48.6,16L48.6,16z M41.8,16.3c-0.1,0-0.2,0.1-0.3,0.2
		c-0.1,0.1-0.1,0.1-0.1,0.2c0,0,0,0-0.1,0c0,0-0.1,0-0.1,0.1c0,0,0,0,0,0c0,0,0,0-0.1,0.1c0,0-0.1,0.1,0,0.1c0,0,0,0,0,0
		c0,0,0,0,0,0c0,0,0,0,0,0c0,0,0,0,0,0c0,0,0.1,0,0.1,0c0,0,0.1,0,0.1,0c0,0,0,0,0,0c0,0,0,0,0,0.1c0,0,0,0,0,0c0,0,0,0,0,0
		c0,0-0.1,0.1-0.1,0.1c0,0,0,0,0.1,0c0.1-0.1,0.1,0,0.1,0c0,0.1,0,0.1,0,0.1c0,0,0.1,0,0.1,0c0,0,0-0.1,0-0.1c0,0,0,0,0,0
		c-0.1-0.1,0.1-0.1,0.1-0.1c0,0,0,0-0.1,0c0,0,0,0,0,0c0,0,0-0.1,0.1-0.2c0,0,0,0,0,0c0,0,0,0-0.1,0c0,0,0,0,0,0c0,0,0,0,0,0
		c0,0,0,0,0,0l0-0.1c0,0,0,0,0,0c0,0,0,0-0.1,0c0,0,0,0,0,0c0,0,0,0,0,0c0,0,0-0.1,0.1-0.1c0.1-0.1,0.1-0.1,0.1-0.1
		C41.7,16.5,41.7,16.5,41.8,16.3C41.8,16.4,41.8,16.4,41.8,16.3C41.8,16.4,41.8,16.3,41.8,16.3L41.8,16.3z M41,16.7
		C41,16.7,41,16.7,41,16.7c0.1,0,0-0.2-0.1-0.2c0,0,0,0,0,0C40.9,16.5,40.9,16.6,41,16.7 M51.6,18.5L51.6,18.5L51.6,18.5
		C51.6,18.5,51.6,18.5,51.6,18.5C51.6,18.5,51.6,18.5,51.6,18.5c-0.1,0.1-0.1,0.1-0.1,0.1c0,0,0,0,0,0c0,0.1,0,0.1,0.1,0.2
		c0.1,0,0.1-0.1,0.1-0.2C51.7,18.6,51.7,18.5,51.6,18.5L51.6,18.5z M51.6,18.9c0,0-0.1,0.1-0.1,0.1c0,0,0,0,0,0c0,0,0,0,0,0
		c0,0,0,0,0,0c0,0,0,0,0,0c0,0,0,0,0,0c0,0,0.1,0.1,0.1,0.1c0,0,0,0,0,0.1c0,0.1,0.1,0.2,0.1,0.2c0,0,0,0,0,0c0,0,0,0,0,0
		c0,0,0,0,0,0c0,0,0.1,0,0.1-0.1c0,0,0-0.1,0-0.1c0-0.1,0-0.1,0-0.1C51.8,18.9,51.7,18.9,51.6,18.9C51.7,18.9,51.7,18.9,51.6,18.9
		 M50.5,19.2c-0.1,0-0.1,0.1-0.1,0.1C50.4,19.3,50.5,19.4,50.5,19.2C50.6,19.3,50.5,19.2,50.5,19.2C50.5,19.2,50.5,19.2,50.5,19.2
		 M56.2,19.3C56.2,19.3,56.2,19.3,56.2,19.3C56.2,19.3,56.2,19.3,56.2,19.3C56.1,19.4,56.1,19.4,56.2,19.3C56,19.5,56,19.5,56,19.5
		c0,0-0.1,0-0.1,0c0,0,0,0.1,0,0.1c0.1,0,0.1,0,0.2,0c0,0,0,0,0,0c0,0,0,0,0,0c0,0,0,0,0,0C56.1,19.5,56.1,19.5,56.2,19.3
		C56.1,19.4,56.2,19.4,56.2,19.3C56.2,19.4,56.2,19.4,56.2,19.3C56.2,19.3,56.2,19.3,56.2,19.3C56.2,19.3,56.2,19.3,56.2,19.3
		 M52.8,19.4c-0.1,0-0.2,0.1-0.2,0.1c0,0-0.1,0-0.1,0c0,0-0.1,0-0.1,0c0,0-0.1,0.1,0,0.1c0.1,0.1,0.2,0,0.3,0.1c0,0,0.1,0.1,0.1,0.1
		c0,0,0,0,0,0c0,0,0.1,0,0.1-0.1c0-0.1,0-0.1,0-0.1C52.9,19.5,52.9,19.4,52.8,19.4C52.9,19.4,52.9,19.4,52.8,19.4
		C52.9,19.4,52.9,19.4,52.8,19.4 M54.8,19.7C54.8,19.7,54.8,19.7,54.8,19.7c-0.1,0-0.1,0-0.1,0c0,0,0,0-0.1,0c0,0-0.1,0-0.1,0
		c-0.1,0-0.1,0-0.1,0c0,0,0,0-0.1,0c-0.1,0-0.1,0.1-0.1,0.1c0,0,0.2,0,0.3,0C54.7,19.8,54.9,19.7,54.8,19.7
		C54.9,19.7,54.9,19.7,54.8,19.7C54.9,19.7,54.9,19.7,54.8,19.7 M39.8,23.6C39.8,23.6,39.8,23.6,39.8,23.6
		C39.8,23.6,39.8,23.6,39.8,23.6C39.8,23.6,39.8,23.6,39.8,23.6C39.8,23.6,39.8,23.7,39.8,23.6C39.8,23.7,39.7,23.6,39.8,23.6
		c-0.1,0.1-0.1,0,0,0.4c-0.1-0.1-0.1-0.2-0.2-0.3c0,0,0,0,0,0.1c0,0,0,0,0,0c1.2,2.6,3.7,4.7,6.7,5.6c-0.1,0-0.2-0.1-0.2-0.2
		c-0.1-0.1-0.2-0.1-0.2-0.1c-0.1-0.1-0.2-0.1-0.3-0.2c0,0,0,0,0,0c0,0,0,0-0.1-0.1c0,0,0,0,0.1,0c0,0,0,0,0,0c0,0,0,0,0,0
		c0,0,0,0,0,0c0.1,0,0.1,0,0.2,0c0,0,0,0,0-0.1c0,0,0,0,0,0c0-0.1-0.1-0.1-0.1-0.2c0,0,0,0,0,0c0-0.1-0.1-0.1-0.1-0.1c0,0,0,0,0,0
		c-0.1-0.2-0.4-0.3-0.4-0.5c0,0,0,0,0,0c0.1,0,0.1,0,0.1,0c0,0,0,0,0,0c0-0.1-0.1-0.1,0-0.2c0,0,0,0,0,0c0,0,0.1,0,0.1-0.1
		c0,0,0-0.1,0-0.2c0-0.1-0.2-0.3-0.3-0.4c0,0-0.1,0-0.2,0c-0.1,0-0.3-0.1-0.4-0.2c-0.1,0-0.1-0.1-0.2-0.1c0,0,0,0,0,0c0,0,0,0-0.1,0
		c0,0-0.1,0-0.1,0c0,0-0.1,0-0.1,0c-0.1,0-0.1-0.1-0.2-0.1c0,0-0.1,0-0.1,0c0,0,0,0-0.1,0c0-0.2-0.5-0.4-0.5-0.4c0,0,0,0,0,0.1
		c0,0,0,0,0,0c-0.1,0-0.1,0-0.1,0c0,0.1,0,0.1,0,0.1c0,0,0,0,0,0c0,0,0,0,0,0c0,0,0-0.1,0-0.1c0,0,0,0-0.1-0.1c-0.1,0-0.1,0-0.2,0
		c0,0,0,0,0,0.1c-0.1,0-0.1-0.1-0.1-0.1c0,0,0,0,0,0h0h0c0,0,0,0,0,0c0,0,0-0.1,0-0.2c-0.2-0.2-0.3-0.4-0.6-0.6
		c-0.1-0.1-0.3-0.1-0.5-0.2c0,0,0,0,0,0c-0.1-0.1-0.2-0.2-0.3-0.3c-0.1-0.1-0.2-0.1-0.3-0.2c0-0.1-0.2-0.2-0.2-0.3c0,0,0,0,0,0
		c0,0-0.1-0.1-0.2,0c-0.1,0-0.2-0.2-0.2-0.2c-0.1-0.1-0.1-0.2-0.2-0.3c0,0,0,0.1,0,0.1c0,0,0,0,0.1,0.3c0,0,0,0,0,0
		C39.9,23.9,39.9,23.6,39.8,23.6C39.9,23.6,39.9,23.6,39.8,23.6C39.9,23.6,39.8,23.5,39.8,23.6C39.8,23.5,39.8,23.6,39.8,23.6
		 M57,26.8c-0.1,0.1-0.1,0.1-0.2,0.1c0,0-0.1,0-0.1,0.1c0,0-0.1,0.1-0.1,0.1l-0.3,0.2c-0.1,0-0.2,0.1-0.2,0.1
		c-0.2,0.2-0.2,0.3-0.3,0.3c0,0-0.1,0.1-0.1,0.1c-0.5,0.4-0.5,0.4-0.5,0.5c0.1,0.1,1.1-0.8,1.3-0.9c0.2-0.2,0.2-0.2,0.3-0.2
		C56.8,27.2,57,27,57,26.8C57,26.8,57,26.8,57,26.8"/>
</g>
</svg>
