<?xml version="1.0" encoding="utf-8"?>
<!-- Generator: Adobe Illustrator 17.1.0, SVG Export Plug-In . SVG Version: 6.00 Build 0)  -->
<!DOCTYPE svg PUBLIC "-//W3C//DTD SVG 1.1//EN" "http://www.w3.org/Graphics/SVG/1.1/DTD/svg11.dtd">
<svg version="1.1" id="Layer_1" xmlns="http://www.w3.org/2000/svg" xmlns:xlink="http://www.w3.org/1999/xlink" x="0px" y="0px"
	 viewBox="0 0 88.9 16.5" enable-background="new 0 0 88.9 16.5" xml:space="preserve">
<polygon fill="#FFFFFF" points="32.7,1.9 33.9,4.1 37.5,2.2 36.4,0 "/>
<polygon fill="#FFFFFF" points="29.2,4.4 29.2,6.9 31,6.9 31,13.4 29.2,13.4 29.2,15.9 40.7,15.9 40.7,13.4 39,13.4 39,4.4 "/>
<g>
	<defs>
		<rect id="SVGID_1_" y="0" width="88.9" height="16.5"/>
	</defs>
	<clipPath id="SVGID_2_">
		<use xlink:href="#SVGID_1_"  overflow="visible"/>
	</clipPath>
	<path clip-path="url(#SVGID_2_)" fill="#FFFFFF" d="M50,16.5c-1.6,0-3.2-0.3-4.8-0.9c-1.5-0.6-2.6-1.6-3.2-3.2
		c-1.2-2.9,0.1-6.3,3-7.5c1.7-0.8,3.4-1.1,5.1-1.1c1.8,0,3.6,0.5,5.4,1.4c2.2,1.1,3.4,3.4,3.1,5.8H50h-1.2v1.2c0,0.7,0.4,1.3,1,1.6
		c0.1,0,0.2,0.1,0.2,0.1c0.1,0,0.1,0,0.2,0.1c1.6,0.5,3.3-0.4,3.7-2h4.4c-0.5,1.6-1.6,2.6-3,3.3C53.6,16.1,51.8,16.5,50,16.5
		 M50,6.2c-0.7,0-1.2,0.5-1.2,1.2v1.6H50h1.3V7.5C51.2,6.8,50.7,6.2,50,6.2"/>
	<polygon clip-path="url(#SVGID_2_)" fill="#FFFFFF" points="14.4,6.7 18.6,0.8 27.5,0.8 27.5,3.3 25.8,3.3 25.8,13.5 27.5,13.5 
		27.5,16.1 16,16.1 16,13.5 17.8,13.5 17.8,6.9 11.2,16.1 4.6,6.9 4.6,13.5 6.4,13.5 6.4,16.1 0,16.1 0,13.5 1.8,13.5 1.8,3.3 
		0,3.3 0,0.8 10.1,0.8 	"/>
	<polygon clip-path="url(#SVGID_2_)" fill="#FFFFFF" points="61,13.4 59.2,13.4 59.2,15.9 71.1,15.9 71.1,13.4 69.3,13.4 69.3,0.6 
		59.2,0.6 59.2,3.2 61,3.2 	"/>
	<path clip-path="url(#SVGID_2_)" fill="#FFFFFF" d="M80.4,16.5c-1.6,0-3.3-0.3-4.9-0.9c-1.5-0.6-2.5-1.6-3.2-3.2
		c-1.2-2.9,0.1-6.3,3-7.5c1.7-0.8,3.3-1.1,5.1-1.1c1.8,0,3.6,0.5,5.4,1.4c2.2,1.1,3.4,3.4,3.1,5.8h-8.5h-1.3v1.2
		c0,0.7,0.4,1.3,1,1.6c0.1,0,0.2,0.1,0.3,0.1c0,0,0.1,0,0.2,0.1c1.6,0.5,3.3-0.4,3.8-2h4.4c-0.6,1.6-1.6,2.6-3,3.3
		C83.9,16.1,82.2,16.5,80.4,16.5 M80.4,6.2c-0.7,0-1.3,0.5-1.3,1.2v1.6h1.3h1.2V7.5C81.6,6.8,81,6.2,80.4,6.2"/>
</g>
</svg>
