<?xml version="1.0" encoding="utf-8"?>
<!-- Generator: Adobe Illustrator 17.1.0, SVG Export Plug-In . SVG Version: 6.00 Build 0)  -->
<!DOCTYPE svg PUBLIC "-//W3C//DTD SVG 1.1//EN" "http://www.w3.org/Graphics/SVG/1.1/DTD/svg11.dtd">
<svg version="1.1" id="Layer_1" xmlns="http://www.w3.org/2000/svg" xmlns:xlink="http://www.w3.org/1999/xlink" x="0px" y="0px"
	 viewBox="0 0 120.4 27.4" enable-background="new 0 0 120.4 27.4" xml:space="preserve">
<polygon fill="#FFFFFF" points="11.2,7.1 7.5,15.9 3.9,7.1 0,7.1 5.4,20.3 9.7,20.3 15.1,7.1 "/>
<polygon fill="#FFFFFF" points="103.8,7.1 99.9,7.1 99.9,15.1 95.1,7.1 90.5,7.1 90.5,20.3 94.2,20.3 94.2,12.3 99.2,20.3 
	103.8,20.3 "/>
<polygon fill="#FFFFFF" points="116.5,7 116.5,14.9 111.7,7 107.1,7 107.1,20.1 110.9,20.1 110.9,12.1 115.8,20.1 120.4,20.1 
	120.4,7 "/>
<path fill="#FFFFFF" d="M79.3,7.1h3.9l6.4,13.1h-4.1l-1.1-2.2h-6.3l-1,2.2h-3.9L79.3,7.1z M81.3,11l-1.9,3.9h3.8L81.3,11z"/>
<polygon fill="#FFFFFF" points="56,7.1 56,20.3 59.9,20.3 59.9,12.4 62.8,20.3 65.5,20.3 68.5,12.3 68.5,20.3 72.4,20.3 72.4,7.1 
	66.8,7.1 64.2,14.4 61.5,7.1 "/>
<g>
	<defs>
		<rect id="SVGID_1_" y="0" width="120.4" height="27.4"/>
	</defs>
	<clipPath id="SVGID_2_">
		<use xlink:href="#SVGID_1_"  overflow="visible"/>
	</clipPath>
	<path clip-path="url(#SVGID_2_)" fill="#FFFFFF" d="M49,24.2c0.7,0,1.2-0.2,1.2-0.8c0-0.8-0.7-1-1.4-1h-5.6c-2-0.1-3.9-1.5-4-3.9
		c0-1.8,1.3-4,3.8-4.2h9.6v3.2h-9.4c-0.4,0-0.7,0.5-0.7,0.9c0,0.5,0.3,0.9,0.8,0.9l5.7,0.1c2.5,0,4.4,1.4,4.4,4.2
		c0,3-2.9,3.9-4.3,3.9h-9v-3.2H49z"/>
	<path clip-path="url(#SVGID_2_)" fill="#FFFFFF" d="M49,10c0.7,0,1.2-0.3,1.2-0.8c0-0.8-0.7-1-1.4-1h-5.6c-2-0.1-3.9-1.5-4-3.9
		c0-1.8,1.3-4,3.8-4.2h9.6v3.2h-9.4c-0.4,0-0.7,0.5-0.7,0.9c0,0.5,0.3,0.9,0.8,0.9h5.7c2.5,0.1,4.4,1.5,4.4,4.3c0,3-2.9,3.9-4.3,3.9
		h-9V10H49z"/>
	<polygon clip-path="url(#SVGID_2_)" fill="#FFFFFF" points="23.9,20.3 23.9,7.1 36.7,7.1 36.7,10.3 27.7,10.3 27.7,12.1 35,12.1 
		35,15.3 27.7,15.3 27.7,17.1 36.7,17.1 36.7,20.3 	"/>
	<rect x="16.6" y="7.1" clip-path="url(#SVGID_2_)" fill="#FFFFFF" width="3.8" height="13.1"/>
</g>
</svg>
