<?xml version="1.0" encoding="utf-8"?>
<!-- Generator: Adobe Illustrator 17.1.0, SVG Export Plug-In . SVG Version: 6.00 Build 0)  -->
<!DOCTYPE svg PUBLIC "-//W3C//DTD SVG 1.1//EN" "http://www.w3.org/Graphics/SVG/1.1/DTD/svg11.dtd">
<svg version="1.1" id="Layer_1" xmlns="http://www.w3.org/2000/svg" xmlns:xlink="http://www.w3.org/1999/xlink" x="0px" y="0px"
	 viewBox="0 0 512 512" enable-background="new 0 0 512 512" xml:space="preserve">
<g display="none">
	<g display="inline">
		<g>
			<path fill="#4FA5F7" d="M83.5,486.7C39.1,486.7,3,450.6,3,406.3V205.9c0-44.4,36.1-80.5,80.5-80.5H127l108.8-96.7
				c2.5-2.2,5.7-3.5,9.1-3.5c3.4,0,6.6,1.2,9.1,3.5l108.8,96.7h65.8c26,0,47.1,21.1,47.1,47.1v55.1l2,0.7
				c18.8,6.7,31.4,24.5,31.4,44.4v66.8c0,19.9-12.6,37.7-31.4,44.4l-2,0.7v55.1c0,26-21.1,47.1-47.1,47.1H83.5z M83.5,152.8
				c-29.3,0-53.1,23.8-53.1,53.1v200.3c0,29.3,23.8,53.1,53.1,53.1h345c10.9,0,19.7-8.8,19.7-19.7v-53.1h-53.1
				c-44.4,0-80.5-36.1-80.5-80.5s36.1-80.5,80.5-80.5h53.1v-53.1c0-10.9-8.8-19.7-19.7-19.7H83.5z M395.1,253
				c-29.3,0-53.1,23.8-53.1,53.1s23.8,53.1,53.1,53.1h66.8c10.9,0,19.7-8.8,19.7-19.7v-66.8c0-10.9-8.8-19.7-19.7-19.7H395.1z
				 M168.2,125.4h153.3l-76.7-68.2L168.2,125.4z"/>
		</g>
	</g>
	<g display="inline">
		<g>
			<circle fill="#4FA5F7" cx="395.1" cy="306.1" r="16.7"/>
		</g>
	</g>
</g>
<g>
	<g>
		<path fill="#4FA5F7" d="M272.2,317.4h-27.5c-10,0-18.1-8.1-18.1-18.1s8.1-18.1,18.1-18.1h48.4c6.6,0,12-5.4,12-12
			c0-6.6-5.4-12-12-12h-22.7v-16.7c0-6.6-5.4-12-12-12c-6.6,0-12,5.4-12,12v16.7h-1.7c-23.2,0-42.1,18.9-42.1,42.1
			c0,23.2,18.9,42.1,42.1,42.1h27.5c10,0,18.1,8.1,18.1,18.1s-8.1,18.1-18.1,18.1h-49.3c-6.6,0-12,5.4-12,12c0,6.6,5.4,12,12,12
			h23.6v17.1c0,6.6,5.4,12,12,12s12-5.4,12-12v-17.1h2c0.1,0,0.2,0,0.3,0c23-0.3,41.5-19.1,41.5-42.1
			C314.3,336.3,295.4,317.4,272.2,317.4z"/>
		<path fill="#4FA5F7" d="M438.8,290.2c-12.6-29-30-57.1-52-83.4c-26.6-32-53.1-53.4-66.6-63.3l51-94.6c2.5-4.7,1.7-10.5-2.2-14.2
			c-13.2-12.9-27.2-19.2-42.8-19.2c-14.3,0-27.4,5.4-38.8,10.2c-9,3.7-17.5,7.3-24.4,7.3c-2.1,0-3.9-0.3-5.7-1
			c-23.8-8.7-42.1-14.1-59.8-14.1c-22.4,0-41.5,9-60.2,28.2c-3.9,4-4.5,10.3-1.4,15l55,83.1c-13.6,10.1-39.6,31.3-65.7,62.6
			c-21.9,26.3-39.4,54.4-52,83.4c-15.8,36.5-23.8,74.6-23.8,113.2c0,51.3,41.8,93.1,93.1,93.1h227c51.3,0,93.1-41.8,93.1-93.1
			C462.6,364.8,454.6,326.7,438.8,290.2z M161.5,56.1c11.6-10,22.7-14.4,36-14.4c14.2,0,30.2,4.8,51.5,12.7
			c4.4,1.6,9.1,2.4,13.9,2.4c11.7,0,22.9-4.6,33.6-9.1c10.3-4.3,20.1-8.4,29.6-8.4c4.6,0,11.1,0.8,19.3,6.6l-48,89.2h-83.6
			L161.5,56.1z M369.5,472.5h-227c-38.1,0-69.1-31-69.1-69.1c0-64.1,23.5-124.9,69.7-180.7c29.2-35.3,58.9-57.2,67.9-63.6h89.8
			c9.1,6.3,38.7,28.3,67.9,63.6c46.3,55.8,69.7,116.5,69.7,180.7C438.6,441.5,407.6,472.5,369.5,472.5z"/>
	</g>
</g>
</svg>
