<?xml version="1.0" encoding="utf-8"?>
<!-- Generator: Adobe Illustrator 17.1.0, SVG Export Plug-In . SVG Version: 6.00 Build 0)  -->
<!DOCTYPE svg PUBLIC "-//W3C//DTD SVG 1.1//EN" "http://www.w3.org/Graphics/SVG/1.1/DTD/svg11.dtd">
<svg version="1.1" id="Layer_1" xmlns="http://www.w3.org/2000/svg" xmlns:xlink="http://www.w3.org/1999/xlink" x="0px" y="0px"
	 viewBox="0 0 512 512" enable-background="new 0 0 512 512" xml:space="preserve">
<path fill="#6AC94B" d="M223.1,420.7l-19.3,7.4c-10.7,4.1-16,16-11.9,26.7c4.1,10.7,16,16,26.7,11.9l19.3-7.4l14.8,38.6
	c4.1,10.7,16,16,26.7,11.9c10.7-4.1,16-16,11.9-26.7l-14.8-38.6l77.2-29.5l14.8,38.6c4.1,10.7,16,16,26.7,11.9
	c10.7-4.1,16-16,11.9-26.7l-15.5-40.6c40.6-25.8,58.9-77.5,41.1-124.1c-9.9-25.8-29.2-46.2-54.4-57.5c-4.5-2-9.1-3.7-13.8-5.1
	c16.7-26.6,21.2-60.4,9.1-92c-9.9-25.8-29.2-46.2-54.4-57.5c-18.8-8.4-39.2-11-59-7.7l-15.5-40.6c-4.1-10.7-16-16-26.7-11.9
	c-10.7,4.1-16,16-11.9,26.7l14.8,38.6l-77.2,29.5l-14.8-38.6c-4.1-10.7-16-16-26.7-11.9s-16,16-11.9,26.7l14.8,38.6l-19.3,7.4
	c-10.7,4.1-16,16-11.9,26.7c4.1,10.7,16,16,26.7,11.9l19.3-7.4L223.1,420.7z M394.1,289c12.2,31.9-3.9,67.9-35.8,80.1l-96.6,36.9
	l-44.3-115.9l96.6-36.9c15.5-5.9,32.3-5.4,47.5,1.3C376.6,261.3,388.2,273.5,394.1,289z M335.1,134.5c12.2,31.9-3.9,67.9-35.8,80.1
	l-96.6,36.9l-44.3-115.9L255,98.7c15.5-5.9,32.3-5.4,47.5,1.3C317.6,106.8,329.2,119,335.1,134.5z"/>
</svg>
