<?xml version="1.0" encoding="utf-8"?>
<!-- Generator: Adobe Illustrator 17.1.0, SVG Export Plug-In . SVG Version: 6.00 Build 0)  -->
<!DOCTYPE svg PUBLIC "-//W3C//DTD SVG 1.1//EN" "http://www.w3.org/Graphics/SVG/1.1/DTD/svg11.dtd">
<svg version="1.1" id="Layer_1" xmlns="http://www.w3.org/2000/svg" xmlns:xlink="http://www.w3.org/1999/xlink" x="0px" y="0px"
	 viewBox="0 0 512 512" enable-background="new 0 0 512 512" xml:space="preserve">
<g>
	<path fill="#4FA5F7" d="M286.8,354.1c-1.5,0-2.9,0-4.4-0.1c-33.6-2.1-60.6-29.1-62.7-62.7c-1.2-18.8,5.2-36.7,18.1-50.4
		c12.7-13.5,30.6-21.3,49-21.3c1.5,0,2.9,0,4.4,0.1c33.6,2.1,60.6,29.1,62.7,62.7c1.2,18.8-5.2,36.7-18.1,50.4
		C323.2,346.3,305.3,354.1,286.8,354.1C286.8,354.1,286.8,354.1,286.8,354.1z M286.8,246.2c-1.5,0-2.9,0.1-4.4,0.2
		c-18.8,2-33.9,17.1-35.9,35.9c-1.2,11.6,2.4,22.8,10.2,31.5c7.7,8.6,18.7,13.5,30.2,13.5c1.5,0,2.9-0.1,4.4-0.2
		c18.8-2,33.9-17.1,35.9-35.9c1.2-11.6-2.4-22.8-10.2-31.5C309.3,251.2,298.3,246.2,286.8,246.2z"/>
	<path fill="#4FA5F7" d="M83.4,423.3c-7,0-12.7-5.7-12.7-12.7v-48.9H21.8c-7,0-12.7-5.7-12.7-12.7V101.4c0-7,5.7-12.7,12.7-12.7
		h406.8c7,0,12.7,5.7,12.7,12.7v48.9h48.9c7,0,12.7,5.7,12.7,12.7v247.6c0,7-5.7,12.7-12.7,12.7H83.4z M473.7,341.6
		c-25.9,6-46.5,26.6-52.5,52.5l-0.6,2.5h55.6V341L473.7,341.6z M179.7,178.7c-3.2,20.3-12.6,38.8-27.2,53.4
		c-14.6,14.6-33.1,24.1-53.4,27.2l-1.7,0.3V314l1.7,0.3c20.3,3.2,38.8,12.6,53.4,27.2c14.6,14.6,24.1,33.1,27.2,53.4l0.3,1.7h213.6
		l0.3-1.7c3.2-20.3,12.6-38.8,27.2-53.4c14.6-14.6,33.1-24.1,53.4-27.2l1.7-0.3v-54.3l-1.7-0.3c-20.3-3.2-38.8-12.6-53.4-27.2
		c-14.6-14.6-24.1-33.1-27.2-53.4l-0.3-1.7H180L179.7,178.7z M97.4,396.6H153l-0.6-2.5c-6-25.9-26.6-46.5-52.5-52.5l-2.5-0.6V396.6z
		 M35.8,335l34.9,0V163c0-7,5.7-12.7,12.7-12.7h331.3v-34.9H35.8V335z M97.4,232.6l2.5-0.6c25.9-6,46.5-26.6,52.5-52.5l0.6-2.5H97.4
		V232.6z M421.2,179.5c6,25.9,26.6,46.5,52.5,52.5l2.5,0.6V177h-55.6L421.2,179.5z"/>
</g>
</svg>
