<?xml version="1.0" encoding="utf-8"?>
<!-- Generator: Adobe Illustrator 17.1.0, SVG Export Plug-In . SVG Version: 6.00 Build 0)  -->
<!DOCTYPE svg PUBLIC "-//W3C//DTD SVG 1.1//EN" "http://www.w3.org/Graphics/SVG/1.1/DTD/svg11.dtd">
<svg version="1.1" id="Layer_1" xmlns="http://www.w3.org/2000/svg" xmlns:xlink="http://www.w3.org/1999/xlink" x="0px" y="0px"
	 viewBox="0 0 512 512" enable-background="new 0 0 512 512" xml:space="preserve">
<g>
	<path fill="#4FA5F7" d="M64.8,426c-34.2,0-62.1-27.8-62.1-62.1V148.1C2.8,113.8,30.6,86,64.8,86h382.4c34.2,0,62.1,27.8,62.1,62.1
		v215.9c0,34.2-27.8,62.1-62.1,62.1H64.8z M64.8,110c-21,0-38,17.1-38,38v215.9c0,21,17.1,38,38,38h382.4c21,0,38-17.1,38-38V148.1
		c0-21-17.1-38-38-38H64.8z"/>
	<path fill="#4FA5F7" d="M217.5,323.9c-20.4,0-33.6-13.9-33.6-35.4s13.2-35.4,33.6-35.4c20.4,0,33.6,13.9,33.6,35.4
		S237.9,323.9,217.5,323.9z M217.5,268.4c-3.5,0-11.7,2-11.7,20.1s8.2,20.1,11.7,20.1c3.5,0,11.7-2,11.7-20.1S221,268.4,217.5,268.4
		z"/>
	<polygon fill="#4FA5F7" points="109,321.9 199,190.1 225,190.1 135,321.9 	"/>
	<path fill="#4FA5F7" d="M116.5,258.9c-20.4,0-33.6-13.9-33.6-35.4c0-21.5,13.2-35.4,33.6-35.4c20.4,0,33.6,13.9,33.6,35.4
		C150.1,245,136.9,258.9,116.5,258.9z M116.5,203.4c-3.5,0-11.7,2-11.7,20.1c0,18.2,8.2,20.1,11.7,20.1c3.5,0,11.7-2,11.7-20.1
		C128.1,205.3,120,203.4,116.5,203.4z"/>
	<rect x="307" y="212" fill="#4FA5F7" width="122.1" height="24"/>
	<rect x="307" y="276" fill="#4FA5F7" width="122.1" height="24"/>
</g>
</svg>
