<?xml version="1.0" encoding="utf-8"?>
<!-- Generator: Adobe Illustrator 17.1.0, SVG Export Plug-In . SVG Version: 6.00 Build 0)  -->
<!DOCTYPE svg PUBLIC "-//W3C//DTD SVG 1.1//EN" "http://www.w3.org/Graphics/SVG/1.1/DTD/svg11.dtd">
<svg version="1.1" id="Layer_1" xmlns="http://www.w3.org/2000/svg" xmlns:xlink="http://www.w3.org/1999/xlink" x="0px" y="0px"
	 viewBox="0 0 512 512" enable-background="new 0 0 512 512" xml:space="preserve">
<g>
	<g>
		<g>
			<path fill="#4FA5F7" d="M80,506c-40.8,0-74-33.2-74-74V268c0-40.8,33.2-74,74-74h30v-76.5C110,56,161.1,6,224,6
				c62.9,0,114,50,114,111.5V194h30c40.8,0,74,33.2,74,74v40c0,7.7-6.3,14-14,14s-14-6.3-14-14v-40c0-25.4-20.6-46-46-46H80
				c-25.4,0-46,20.6-46,46v164c0,25.4,20.6,46,46,46h158c7.7,0,14,6.3,14,14s-6.3,14-14,14H80z M224,34c-47.4,0-86,37.4-86,83.5V194
				h172v-76.5C310,71.4,271.4,34,224,34z"/>
			<path fill="#4FA5F7" d="M468,499c-3.5,0-6.7-1.4-9.2-3.8L403,439.4l-55.8,55.8c-2.5,2.5-5.7,3.8-9.2,3.8c-3.5,0-6.7-1.4-9.2-3.8
				c-2.5-2.5-3.8-5.7-3.8-9.2c0-3.5,1.4-6.7,3.8-9.2l55.8-55.8l-55.8-55.8c-2.5-2.5-3.8-5.7-3.8-9.2c0-3.5,1.4-6.7,3.8-9.2
				c2.5-2.5,5.7-3.8,9.2-3.8c3.5,0,6.7,1.4,9.2,3.8l55.8,55.8l55.8-55.8c2.5-2.5,5.7-3.8,9.2-3.8s6.7,1.4,9.2,3.8
				c2.5,2.5,3.8,5.7,3.8,9.2s-1.4,6.7-3.8,9.2L421.4,421l55.8,55.8c2.5,2.5,3.8,5.7,3.8,9.2c0,3.5-1.4,6.7-3.8,9.2
				C474.7,497.6,471.5,499,468,499z"/>
			<path fill="#4FA5F7" d="M262,362c-8.8,0-16-7.2-16-16s7.2-16,16-16s16,7.2,16,16S270.8,362,262,362z"/>
			<path fill="#4FA5F7" d="M112,362c-8.8,0-16-7.2-16-16s7.2-16,16-16s16,7.2,16,16S120.8,362,112,362z"/>
			<path fill="#4FA5F7" d="M187,362c-8.8,0-16-7.2-16-16s7.2-16,16-16s16,7.2,16,16S195.8,362,187,362z"/>
		</g>
	</g>
</g>
</svg>
