<?xml version="1.0" encoding="utf-8"?>
<!-- Generator: Adobe Illustrator 17.1.0, SVG Export Plug-In . SVG Version: 6.00 Build 0)  -->
<!DOCTYPE svg PUBLIC "-//W3C//DTD SVG 1.1//EN" "http://www.w3.org/Graphics/SVG/1.1/DTD/svg11.dtd">
<svg version="1.1" id="Layer_1" xmlns="http://www.w3.org/2000/svg" xmlns:xlink="http://www.w3.org/1999/xlink" x="0px" y="0px"
	 viewBox="0 0 512 512" enable-background="new 0 0 512 512" xml:space="preserve">
<g>
	<g>
		<g>
			<path fill="#4FA5F7" d="M338,362c-8.8,0-16-7.2-16-16s7.2-16,16-16s16,7.2,16,16S346.8,362,338,362z"/>
			<path fill="#4FA5F7" d="M80,506c-40.8,0-74-33.2-74-74V268c0-40.8,33.2-74,74-74h30v-76.5C110,56,161.1,6,224,6
				c62.9,0,114,50,114,111.5V194h30c40.8,0,74,33.2,74,74v40c0,7.7-6.3,14-14,14s-14-6.3-14-14v-40c0-25.4-20.6-46-46-46H80
				c-25.4,0-46,20.6-46,46v164c0,25.4,20.6,46,46,46h158c7.7,0,14,6.3,14,14s-6.3,14-14,14H80z M224,34c-47.4,0-86,37.4-86,83.5V194
				h172v-76.5C310,71.4,271.4,34,224,34z"/>
			<path fill="#4FA5F7" d="M368.5,506c-11.7,0-22.9-4.4-31.3-12.5l-63.9-62.4c-2.7-2.6-4.2-6.1-4.2-9.8s1.4-7.3,4-9.9
				c2.7-2.7,6.2-4.2,10-4.2c3.7,0,7.1,1.4,9.8,4l63.7,62.2c4.2,4,8.9,4.8,12,4.8c0.4,0,0.8,0,1.2,0c2.7-0.2,7.9-1.2,12-6l0.2-0.2
				l98.7-137.9c2.6-3.7,6.9-5.9,11.4-5.9c2.9,0,5.7,0.9,8.1,2.6c3,2.2,5.1,5.4,5.7,9.1c0.6,3.7-0.3,7.4-2.4,10.4l-99,138.3
				c-0.2,0.2-0.3,0.4-0.5,0.6c-7.9,9.9-19.7,16-32.4,16.8C370.6,506,369.5,506,368.5,506z"/>
			<path fill="#4FA5F7" d="M262,362c-8.8,0-16-7.2-16-16s7.2-16,16-16s16,7.2,16,16S270.8,362,262,362z"/>
			<path fill="#4FA5F7" d="M112,362c-8.8,0-16-7.2-16-16s7.2-16,16-16s16,7.2,16,16S120.8,362,112,362z"/>
			<path fill="#4FA5F7" d="M187,362c-8.8,0-16-7.2-16-16s7.2-16,16-16s16,7.2,16,16S195.8,362,187,362z"/>
		</g>
	</g>
</g>
</svg>
