<?xml version="1.0" encoding="utf-8"?>
<!-- Generator: Adobe Illustrator 17.1.0, SVG Export Plug-In . SVG Version: 6.00 Build 0)  -->
<!DOCTYPE svg PUBLIC "-//W3C//DTD SVG 1.1//EN" "http://www.w3.org/Graphics/SVG/1.1/DTD/svg11.dtd">
<svg version="1.1" id="Layer_1" xmlns="http://www.w3.org/2000/svg" xmlns:xlink="http://www.w3.org/1999/xlink" x="0px" y="0px"
	 viewBox="0 0 512 512" enable-background="new 0 0 512 512" xml:space="preserve">
<path d="M256.1,512c-0.1,0-0.1,0-0.2,0c-2.5,0-5-0.7-7.2-2.1L89.1,409.9c-2.1-1.3-3.8-3.2-4.9-5.3c-0.4-0.9-0.8-1.8-1-2.7
	c-0.5-1.7-0.6-3.6-0.3-5.4c0,0,0,0,0,0c0,0,0,0,0,0c0-0.3,0.1-0.6,0.2-0.9l52-237.6c0.4-2,1.2-3.9,2.4-5.5L245,5.5
	C247.7,2,251.8,0,256,0c4.2,0,8.3,2,11,5.5l107.5,146.9c0.3,0.4,0.6,0.9,0.9,1.4c0,0,0,0,0,0c0,0,0,0,0,0c0.2,0.3,0.4,0.7,0.5,1
	c0.5,1,0.8,2,1,3.1l52,237.6c0.1,0.3,0.1,0.6,0.2,0.9c0,0,0,0,0,0c0,0,0,0,0,0c0.3,1.8,0.2,3.7-0.3,5.4c-0.2,0.9-0.6,1.8-1,2.7
	c-1.1,2.1-2.7,4-4.9,5.3L263.2,509.9C261,511.3,258.6,512,256.1,512z M143.1,411.9l88.9,55.7l-17.7-55.7H143.1z M297.8,411.9
	l-17.7,55.7l88.9-55.7H297.8z M242.5,411.9l13.5,42.5l13.5-42.5H242.5z M306.4,385h86.3l-55.3-97.5L306.4,385z M233.9,385h44.2
	l41.2-129.4L256,143.8l-63.3,111.7L233.9,385z M119.3,385h86.3l-31-97.5L119.3,385z M348.6,252.5l35,61.8l-22.3-101.8L348.6,252.5z
	 M150.7,212.5l-22.3,101.8l35-61.8L150.7,212.5z M269.6,113.1l60.9,107.5l18.3-57.6L269.6,54.7V113.1z M163.2,163l18.3,57.6
	l60.9-107.5V54.7L163.2,163z"/>
</svg>
