<?xml version="1.0" encoding="utf-8"?>
<!-- Generator: Adobe Illustrator 17.1.0, SVG Export Plug-In . SVG Version: 6.00 Build 0)  -->
<!DOCTYPE svg PUBLIC "-//W3C//DTD SVG 1.1//EN" "http://www.w3.org/Graphics/SVG/1.1/DTD/svg11.dtd">
<svg version="1.1" id="Layer_1" xmlns="http://www.w3.org/2000/svg" xmlns:xlink="http://www.w3.org/1999/xlink" x="0px" y="0px"
	 viewBox="0 0 512 512" enable-background="new 0 0 512 512" xml:space="preserve">
<path display="none" fill="#00C3B3" d="M512,138.5L256,375.8l-77.8,72.1L0,257.7l73-68.4L183.3,307l72.7-67.4L444.2,65L512,138.5z"
	/>
<path display="none" fill="#04AA9A" d="M512,138.5L256,375.8V239.6L444.2,65L512,138.5z"/>
<g>
	<path fill="#E54C4C" d="M329,256l145,145l-73,73L256,329L111,474l-73-73l145-145L39,111l72-72l145,144L401,38l73,73L329,256z"/>
	<path fill="#D62B2B" d="M329,256l145,145l-73,73L256,329V183L401,38l73,73L329,256z"/>
</g>
</svg>
