<?xml version="1.0" encoding="utf-8"?>
<!-- Generator: Adobe Illustrator 17.1.0, SVG Export Plug-In . SVG Version: 6.00 Build 0)  -->
<!DOCTYPE svg PUBLIC "-//W3C//DTD SVG 1.1//EN" "http://www.w3.org/Graphics/SVG/1.1/DTD/svg11.dtd">
<svg version="1.1" id="Layer_1" xmlns="http://www.w3.org/2000/svg" xmlns:xlink="http://www.w3.org/1999/xlink" x="0px" y="0px"
	 viewBox="0 0 512 512" enable-background="new 0 0 512 512" xml:space="preserve">
<path fill="#FFDA44" d="M0,256c0,31.3,5.6,61.3,15.9,89L256,367.3L496.1,345c10.3-27.7,15.9-57.7,15.9-89s-5.6-61.3-15.9-89
	L256,144.7L15.9,167C5.6,194.7,0,224.7,0,256z"/>
<g>
	<path fill="#D80027" d="M496.1,167C459.9,69.5,366.1,0,256,0S52.1,69.5,15.9,167H496.1z"/>
	<path fill="#D80027" d="M15.9,345c36.2,97.5,130,167,240.1,167s203.9-69.5,240.1-167H15.9z"/>
</g>
</svg>
