<?xml version="1.0" encoding="utf-8"?>
<!-- Generator: Adobe Illustrator 17.1.0, SVG Export Plug-In . SVG Version: 6.00 Build 0)  -->
<!DOCTYPE svg PUBLIC "-//W3C//DTD SVG 1.1//EN" "http://www.w3.org/Graphics/SVG/1.1/DTD/svg11.dtd">
<svg version="1.1" id="Layer_1" xmlns="http://www.w3.org/2000/svg" xmlns:xlink="http://www.w3.org/1999/xlink" x="0px" y="0px"
	 viewBox="0 0 512 512" enable-background="new 0 0 512 512" xml:space="preserve">
<g>
	<path fill="#4FA5F7" d="M369.1,456.5c-70.3,0-127.4-57.2-127.4-127.4c0-1.8,0-3.6,0.1-5.6l0.1-2.1H40.5c-13.8,0-25-11.2-25-25V80.5
		c0-13.8,11.2-25,25-25h371c13.8,0,25,11.2,25,25V221l0.9,0.6c36.9,23.5,59,63.6,59.1,107.2c0.1,33.3-12.7,64.9-36,88.9
		c-23.3,24.1-54.5,37.8-87.7,38.8C371.5,456.5,370.3,456.5,369.1,456.5C369.1,456.5,369.1,456.5,369.1,456.5z M369.1,227.6
		c-1.6,0-3.2,0-4.8,0.1c-51.8,2.4-94.2,44.8-96.6,96.6c-1.3,28,8.7,54.5,28,74.8c19.4,20.3,45.4,31.4,73.3,31.4c1.6,0,3.2,0,4.8-0.1
		c51.8-2.4,94.2-44.8,96.6-96.6c1.3-28-8.7-54.5-28-74.8C423,238.8,397,227.6,369.1,227.6z M41.5,295.4h204.6l0.4-1.4
		c15.6-54.4,66-92.3,122.5-92.3c13.2,0,26.3,2,38.8,6.1l2.6,0.8v-57h-369V295.4z M41.5,125.5h369v-44h-369V125.5z"/>
	<path fill="#4FA5F7" d="M402,377.7c-1.8,0-3.4-0.7-4.6-1.9l-28.3-28.3l-28.3,28.3c-1.2,1.2-2.9,1.9-4.6,1.9c-1.8,0-3.4-0.7-4.6-1.9
		l-9.1-9.1c-2.6-2.6-2.6-6.7,0-9.3l28.3-28.3l-28.3-28.3c-2.6-2.6-2.6-6.7,0-9.3l9.1-9.1c1.2-1.2,2.9-1.9,4.6-1.9
		c1.8,0,3.4,0.7,4.6,1.9l28.3,28.3l28.3-28.3c1.2-1.2,2.9-1.9,4.6-1.9s3.4,0.7,4.6,1.9l9.1,9.1c2.6,2.6,2.6,6.7,0,9.3l-28.3,28.3
		l28.3,28.3c2.6,2.6,2.6,6.7,0,9.3l-9.1,9.1C405.4,377,403.8,377.7,402,377.7z"/>
</g>
</svg>
