<?xml version="1.0" encoding="utf-8"?>
<!-- Generator: Adobe Illustrator 17.1.0, SVG Export Plug-In . SVG Version: 6.00 Build 0)  -->
<!DOCTYPE svg PUBLIC "-//W3C//DTD SVG 1.1//EN" "http://www.w3.org/Graphics/SVG/1.1/DTD/svg11.dtd">
<svg version="1.1" id="Layer_1" xmlns="http://www.w3.org/2000/svg" xmlns:xlink="http://www.w3.org/1999/xlink" x="0px" y="0px"
	 viewBox="0 0 247.3 33.4" enable-background="new 0 0 247.3 33.4" xml:space="preserve">
<polygon fill="#18185A" points="11.5,18.8 14.8,16.8 18.1,18.8 14.8,20.7 "/>
<polygon fill="#4FA5F7" points="15.1,15.6 15.1,11.8 18.4,13.6 18.4,17.5 "/>
<polygon fill="#4FA5F7" points="11.2,13.6 14.5,11.8 14.5,15.6 11.2,17.5 "/>
<polygon fill="#18185A" points="13.5,0 0.3,7.7 4.5,9.9 13.5,4.8 "/>
<polygon fill="#4FA5F7" points="0,23.4 4.1,21 4.1,10.7 0,8.4 "/>
<polygon fill="#4FA5F7" points="14.8,28.6 5.4,23.2 1.3,25.6 14.8,33.4 28.3,25.6 24.2,23.2 "/>
<polygon fill="#18185A" points="16.1,0 16.1,4.8 20.1,7.1 25.5,10.2 25.5,21 29.6,23.4 29.6,7.8 24.8,5 22.1,3.6 19.6,2.1 "/>
<g>
	<defs>
		<rect id="SVGID_1_" y="0" width="247.3" height="33.4"/>
	</defs>
	<clipPath id="SVGID_2_">
		<use xlink:href="#SVGID_1_"  overflow="visible"/>
	</clipPath>
	<path clip-path="url(#SVGID_2_)" fill="#18185A" d="M42.6,14.3c0.1-2.1,0.6-3.6,1.6-4.6s2.3-1.5,4.1-1.5c1.6,0,2.9,0.3,3.8,1
		C53,9.9,53.6,11,54,12.6c0.1,0.4,0.3,0.6,0.6,0.6h0.6c0.1,0,0.3,0,0.4-0.1c0.1-0.1,0.2-0.3,0.2-0.4v-0.1c-0.1-0.9-0.4-1.9-0.9-2.8
		c-0.5-0.9-1.3-1.7-2.4-2.3c-1.1-0.6-2.4-0.9-4.1-0.9c-2.5,0-4.3,0.7-5.5,2.1c-0.9,0.9-1.4,2-1.7,3.4c0,0.5,0,1.1,0,1.6
		c0,0.5-0.1,0.9-0.2,1.3v4.2c0.1,2.3,0.8,4.1,2,5.5c1.2,1.4,3,2.1,5.5,2c1.6,0,3-0.3,4.1-0.9c1.1-0.6,1.9-1.4,2.4-2.3
		c0.5-0.9,0.8-1.8,0.9-2.8c0-0.2-0.1-0.3-0.2-0.4c-0.1-0.1-0.2-0.2-0.4-0.2h-0.6c-0.3,0-0.5,0.2-0.6,0.6c-0.3,1.6-1,2.7-1.9,3.4
		c-1,0.7-2.2,1-3.8,1c-1.8,0-3.1-0.5-4.1-1.5s-1.5-2.5-1.6-4.6V14.3z"/>
	<path clip-path="url(#SVGID_2_)" fill="#18185A" d="M60.1,26.3c-0.1-0.1-0.2-0.3-0.2-0.4V7.5c0-0.2,0.1-0.3,0.2-0.5
		c0.1-0.1,0.3-0.2,0.4-0.2H67c2,0,3.6,0.5,4.7,1.4c1.1,1,1.7,2.4,1.7,4.2c0,1.5-0.4,2.7-1.1,3.6c-0.7,0.9-1.8,1.5-3.1,1.8l4.5,7.7
		c0.1,0.1,0.1,0.2,0.1,0.3c0,0.1-0.1,0.3-0.2,0.4c-0.1,0.1-0.2,0.2-0.4,0.2h-0.3c-0.3,0-0.5-0.1-0.6-0.2c-0.1-0.1-0.3-0.3-0.4-0.6
		l-4.5-7.5h-5.8v7.7c0,0.2-0.1,0.3-0.2,0.4c-0.1,0.1-0.3,0.2-0.5,0.2h-0.5C60.4,26.5,60.2,26.4,60.1,26.3 M66.9,16.5
		c1.6,0,2.8-0.3,3.6-1c0.8-0.7,1.2-1.7,1.2-3c0-1.3-0.4-2.3-1.2-3c-0.8-0.7-2-1-3.6-1h-5.2v8H66.9z"/>
	<path clip-path="url(#SVGID_2_)" fill="#18185A" d="M82.7,26.3c-0.1-0.1-0.2-0.3-0.2-0.4V19L75.7,7.8c-0.1-0.1-0.1-0.3-0.1-0.4
		s0.1-0.3,0.2-0.4c0.1-0.1,0.2-0.2,0.4-0.2h0.6c0.3,0,0.5,0.1,0.6,0.4l6.1,9.9l6.1-9.9c0.2-0.3,0.4-0.4,0.6-0.4h0.6
		c0.1,0,0.3,0.1,0.4,0.2c0.1,0.1,0.2,0.2,0.2,0.4c0,0.1,0,0.2-0.1,0.4L84.5,19v6.9c0,0.2-0.1,0.3-0.2,0.4s-0.3,0.2-0.5,0.2h-0.5
		C83,26.5,82.8,26.4,82.7,26.3"/>
	<path clip-path="url(#SVGID_2_)" fill="#18185A" d="M95.1,26.3c-0.1-0.1-0.2-0.3-0.2-0.4V7.5c0-0.2,0.1-0.3,0.2-0.5
		c0.1-0.1,0.3-0.2,0.4-0.2h6.8c2,0,3.6,0.5,4.7,1.5s1.7,2.4,1.7,4.3s-0.6,3.3-1.7,4.3s-2.7,1.5-4.7,1.5h-5.7v7.4
		c0,0.2-0.1,0.3-0.2,0.4s-0.3,0.2-0.5,0.2h-0.5C95.3,26.5,95.2,26.4,95.1,26.3 M102.2,16.8c1.6,0,2.8-0.4,3.6-1
		c0.8-0.7,1.2-1.7,1.2-3.1c0-1.3-0.4-2.4-1.2-3.1c-0.8-0.7-2-1-3.6-1h-5.5v8.2H102.2z"/>
	<path clip-path="url(#SVGID_2_)" fill="#18185A" d="M116.9,26.3c-0.1-0.1-0.2-0.3-0.2-0.4V8.6h-5.5c-0.2,0-0.3-0.1-0.4-0.2
		c-0.1-0.1-0.2-0.3-0.2-0.4V7.5c0-0.2,0.1-0.3,0.2-0.5c0.1-0.1,0.3-0.2,0.4-0.2H124c0.2,0,0.4,0.1,0.5,0.2c0.1,0.1,0.2,0.3,0.2,0.5
		v0.4c0,0.2-0.1,0.3-0.2,0.4s-0.3,0.2-0.5,0.2h-5.5v17.3c0,0.2-0.1,0.3-0.2,0.4c-0.1,0.1-0.3,0.2-0.5,0.2h-0.4
		C117.2,26.5,117,26.4,116.9,26.3"/>
	<path clip-path="url(#SVGID_2_)" fill="#18185A" d="M126.8,19v-2.4v-2.4c0.1-2.5,0.8-4.5,2.1-5.8c1.3-1.3,3.1-2,5.3-2s4,0.7,5.3,2
		c1.3,1.3,2,3.2,2.1,5.8c0,1.1,0.1,1.9,0.1,2.4c0,0.4,0,1.2-0.1,2.4c-0.1,5.2-2.6,7.7-7.4,7.7C129.4,26.8,127,24.2,126.8,19
		 M138.3,23.6c1-1,1.5-2.6,1.6-4.7c0-1.1,0.1-1.9,0.1-2.2c0-0.3,0-1.1-0.1-2.2c-0.1-2.1-0.6-3.6-1.6-4.7s-2.3-1.5-4-1.5
		c-1.7,0-3,0.5-4,1.5s-1.5,2.6-1.6,4.7v2.2v2.2c0.1,2.1,0.6,3.6,1.6,4.7c1,1,2.3,1.5,4,1.5C136,25.1,137.3,24.6,138.3,23.6"/>
	<path clip-path="url(#SVGID_2_)" fill="#4FA5F7" d="M146.3,26.1c-0.1-0.1-0.2-0.3-0.2-0.5V7.3c0-0.2,0.1-0.4,0.2-0.5
		c0.1-0.1,0.3-0.1,0.5-0.1h2.7c0.2,0,0.4,0.1,0.5,0.2c0.1,0.1,0.2,0.3,0.2,0.5v18.3c0,0.2-0.1,0.3-0.2,0.5c-0.1,0.1-0.3,0.2-0.5,0.2
		h-2.7C146.6,26.3,146.4,26.2,146.3,26.1"/>
	<path clip-path="url(#SVGID_2_)" fill="#4FA5F7" d="M154.7,26.1c-0.1-0.1-0.2-0.3-0.2-0.5V7.4c0-0.2,0.1-0.4,0.2-0.5
		c0.1-0.1,0.3-0.2,0.5-0.2h2.2c0.4,0,0.6,0.2,0.8,0.5l8,12.4V7.4c0-0.2,0.1-0.4,0.2-0.5c0.1-0.1,0.3-0.2,0.5-0.2h2.4
		c0.2,0,0.4,0.1,0.5,0.2c0.1,0.1,0.2,0.3,0.2,0.5v18.2c0,0.2-0.1,0.4-0.2,0.5c-0.1,0.1-0.3,0.2-0.5,0.2h-2.2c-0.4,0-0.7-0.2-0.8-0.5
		l-8-12.2v12c0,0.2-0.1,0.3-0.2,0.5c-0.1,0.1-0.3,0.2-0.5,0.2h-2.4C155,26.3,154.8,26.2,154.7,26.1"/>
	<path clip-path="url(#SVGID_2_)" fill="#4FA5F7" d="M174.5,26.1c-0.1-0.1-0.2-0.3-0.2-0.5V7.4c0-0.2,0.1-0.4,0.2-0.5
		c0.1-0.1,0.3-0.2,0.5-0.2h2.2c0.4,0,0.6,0.2,0.8,0.5l8,12.4V7.4c0-0.2,0.1-0.4,0.2-0.5c0.1-0.2,0.2-0.2,0.4-0.2h2.4
		c0.2,0,0.4,0.1,0.5,0.2c0.1,0.1,0.2,0.3,0.2,0.5v18.2c0,0.2-0.1,0.4-0.2,0.5c-0.1,0.1-0.3,0.2-0.5,0.2h-2.2c-0.4,0-0.7-0.2-0.8-0.5
		l-8-12.2v12c0,0.2-0.1,0.3-0.2,0.5c-0.1,0.1-0.3,0.2-0.5,0.2h-2.4C174.8,26.3,174.6,26.2,174.5,26.1"/>
	<path clip-path="url(#SVGID_2_)" fill="#4FA5F7" d="M195.7,24.6c-1.4-1.3-2.2-3.2-2.2-5.7v-2.4v-2.4c0.1-2.5,0.8-4.4,2.3-5.7
		c1.5-1.3,3.4-2,5.9-2s4.4,0.7,5.9,2c1.5,1.3,2.2,3.2,2.3,5.7c0,1.1,0.1,1.9,0.1,2.4s0,1.3-0.1,2.4c-0.1,2.5-0.8,4.5-2.3,5.7
		c-1.4,1.3-3.4,1.9-5.9,1.9C199.1,26.5,197.1,25.9,195.7,24.6 M204.6,22.2c0.7-0.7,1.1-1.9,1.2-3.4c0-1.1,0.1-1.9,0.1-2.3
		s0-1.2-0.1-2.3c-0.1-1.5-0.5-2.7-1.2-3.4c-0.7-0.8-1.7-1.1-2.9-1.1s-2.2,0.4-3,1.1c-0.8,0.7-1.1,1.9-1.2,3.4v2.3v2.3
		c0,1.5,0.4,2.7,1.2,3.4c0.7,0.8,1.7,1.1,3,1.1C202.9,23.3,203.9,22.9,204.6,22.2"/>
	<path clip-path="url(#SVGID_2_)" fill="#4FA5F7" d="M217.6,25.5l-6-18V7.2c0-0.2,0.1-0.3,0.2-0.4c0.1-0.1,0.3-0.2,0.4-0.2h2.5
		c0.2,0,0.4,0.1,0.6,0.2c0.1,0.1,0.3,0.3,0.3,0.4l4.7,14.3L225,7.2c0-0.1,0.1-0.3,0.3-0.4c0.1-0.1,0.3-0.2,0.6-0.2h2.5
		c0.1,0,0.3,0.1,0.4,0.2c0.1,0.1,0.2,0.3,0.2,0.4l-0.1,0.3l-6,18c-0.2,0.5-0.6,0.8-1.1,0.8h-3.1C218.1,26.3,217.7,26,217.6,25.5"/>
	<path clip-path="url(#SVGID_2_)" fill="#4FA5F7" d="M228.8,26.1c-0.1-0.1-0.2-0.3-0.2-0.4l0.1-0.3l6.7-18c0.2-0.5,0.5-0.7,1-0.7
		h3.1c0.5,0,0.8,0.2,1,0.7l6.7,18.1l0.1,0.3c0,0.2-0.1,0.3-0.2,0.4c-0.1,0.1-0.3,0.2-0.4,0.2h-2.5c-0.4,0-0.7-0.2-0.8-0.5l-1.3-3.4
		h-8.3l-1.3,3.4c-0.1,0.4-0.4,0.5-0.8,0.5h-2.5C229,26.3,228.9,26.2,228.8,26.1 M234.8,19.1h6.3l-3.2-8.6L234.8,19.1z"/>
</g>
</svg>
