<?xml version="1.0" encoding="utf-8"?>
<!-- Generator: Adobe Illustrator 17.1.0, SVG Export Plug-In . SVG Version: 6.00 Build 0)  -->
<!DOCTYPE svg PUBLIC "-//W3C//DTD SVG 1.1//EN" "http://www.w3.org/Graphics/SVG/1.1/DTD/svg11.dtd">
<svg version="1.1" id="Layer_1" xmlns="http://www.w3.org/2000/svg" xmlns:xlink="http://www.w3.org/1999/xlink" x="0px" y="0px"
	 viewBox="0 0 512 512" enable-background="new 0 0 512 512" xml:space="preserve">
<g display="none">
	<g display="inline">
		<g>
			<path fill="#4FA5F7" d="M83.5,486.7C39.1,486.7,3,450.6,3,406.3V205.9c0-44.4,36.1-80.5,80.5-80.5H127l108.8-96.7
				c2.5-2.2,5.7-3.5,9.1-3.5c3.4,0,6.6,1.2,9.1,3.5l108.8,96.7h65.8c26,0,47.1,21.1,47.1,47.1v55.1l2,0.7
				c18.8,6.7,31.4,24.5,31.4,44.4v66.8c0,19.9-12.6,37.7-31.4,44.4l-2,0.7v55.1c0,26-21.1,47.1-47.1,47.1H83.5z M83.5,152.8
				c-29.3,0-53.1,23.8-53.1,53.1v200.3c0,29.3,23.8,53.1,53.1,53.1h345c10.9,0,19.7-8.8,19.7-19.7v-53.1h-53.1
				c-44.4,0-80.5-36.1-80.5-80.5s36.1-80.5,80.5-80.5h53.1v-53.1c0-10.9-8.8-19.7-19.7-19.7H83.5z M395.1,253
				c-29.3,0-53.1,23.8-53.1,53.1s23.8,53.1,53.1,53.1h66.8c10.9,0,19.7-8.8,19.7-19.7v-66.8c0-10.9-8.8-19.7-19.7-19.7H395.1z
				 M168.2,125.4h153.3l-76.7-68.2L168.2,125.4z"/>
		</g>
	</g>
	<g display="inline">
		<g>
			<circle fill="#4FA5F7" cx="395.1" cy="306.1" r="16.7"/>
		</g>
	</g>
</g>
<g>
	<g>
		<g>
			<path display="none" fill="#4FA5F7" d="M255.1,468.6H63.8c-11.7,0-21.3-9.5-21.3-21.3V64.6c0-11.7,9.5-21.3,21.3-21.3h191.4
				c11.8,0,21.3-9.5,21.3-21.3s-9.5-21.3-21.3-21.3H63.8C28.6,0.9,0,29.5,0,64.6v382.7c0,35.2,28.6,63.8,63.8,63.8h191.4
				c11.8,0,21.3-9.5,21.3-21.3S266.9,468.6,255.1,468.6z"/>
			<path fill="#4FA5F7" d="M63.8,507.1c-33,0-59.8-26.8-59.8-59.8V64.6c0-33,26.8-59.8,59.8-59.8h191.4c9.5,0,17.3,7.7,17.3,17.3
				c0,9.5-7.7,17.3-17.3,17.3H63.8c-13.9,0-25.3,11.3-25.3,25.3v382.7c0,13.9,11.3,25.3,25.3,25.3h191.4c9.5,0,17.3,7.7,17.3,17.3
				s-7.7,17.3-17.3,17.3H63.8z"/>
		</g>
	</g>
	<g>
		<g>
			<path display="none" fill="#4FA5F7" d="M505.7,240.9L376.4,113.3c-8.3-8.3-21.8-8.1-30.1,0.2s-8.2,21.8,0.2,30.1l92.4,91.2H191.4
				c-11.8,0-21.3,9.5-21.3,21.3c0,11.8,9.5,21.3,21.3,21.3h247.6l-92.4,91.2c-8.4,8.3-8.4,21.7-0.2,30.1c4.2,4.2,9.7,6.3,15.1,6.3
				c5.4,0,10.8-2,14.9-6.1l129.3-127.6c4-4,6.3-9.4,6.3-15.1C512,250.3,509.7,244.9,505.7,240.9z"/>
			<path fill="#4FA5F7" d="M361.5,400.8c-4.6,0-9-1.8-12.3-5.1c-6.7-6.8-6.6-17.7,0.2-24.4l99.3-98H191.4c-9.5,0-17.3-7.7-17.3-17.3
				c0-9.5,7.7-17.3,17.3-17.3h257.3l-99.3-98c-3.3-3.2-5.1-7.6-5.2-12.2c0-4.6,1.7-9,5-12.2c3.3-3.3,7.6-5.1,12.3-5.1
				c4.6,0,8.9,1.8,12.1,5l129.3,127.6c3.3,3.3,5.1,7.6,5.1,12.3c0,4.6-1.9,9.1-5.1,12.3L373.6,395.9
				C370.3,399.1,366,400.8,361.5,400.8z"/>
		</g>
	</g>
</g>
</svg>
