<?xml version="1.0" encoding="utf-8"?>
<!-- Generator: Adobe Illustrator 17.1.0, SVG Export Plug-In . SVG Version: 6.00 Build 0)  -->
<!DOCTYPE svg PUBLIC "-//W3C//DTD SVG 1.1//EN" "http://www.w3.org/Graphics/SVG/1.1/DTD/svg11.dtd">
<svg version="1.1" id="Layer_1" xmlns="http://www.w3.org/2000/svg" xmlns:xlink="http://www.w3.org/1999/xlink" x="0px" y="0px"
	 viewBox="0 0 512 512" enable-background="new 0 0 512 512" xml:space="preserve">
<path fill="#345D9D" d="M160,503.8c-1.1,0-2.3-0.1-3.4-0.2c-13.1-1.9-22.2-14-20.3-27.1L162,296.2l-60.1,15
	c-1.9,0.5-3.9,0.7-5.8,0.7c-10.9,0-20.4-7.5-23.1-18.1c-1.6-6.2-0.6-12.7,2.6-18.1c3.3-5.5,8.5-9.4,14.7-11l79-19.8l30.9-216.2
	c1.7-11.7,11.9-20.6,23.7-20.6c1.1,0,2.3,0.1,3.4,0.2c13.1,1.9,22.2,14,20.3,27.1l-28.1,196.8l126.6-31.7l0.2-0.1
	c1.8-0.4,3.7-0.7,5.6-0.7c11.1,0,20.6,7.5,23.2,18.3c3.1,12.8-4.7,25.8-17.6,29l-145.4,36.3l-24.6,172.2h228.2c13.2,0,24,10.8,24,24
	c0,13.2-10.8,24-24,24H160z"/>
</svg>
