<?xml version="1.0" encoding="utf-8"?>
<!-- Generator: Adobe Illustrator 17.1.0, SVG Export Plug-In . SVG Version: 6.00 Build 0)  -->
<!DOCTYPE svg PUBLIC "-//W3C//DTD SVG 1.1//EN" "http://www.w3.org/Graphics/SVG/1.1/DTD/svg11.dtd">
<svg version="1.1" id="Layer_1" xmlns="http://www.w3.org/2000/svg" xmlns:xlink="http://www.w3.org/1999/xlink" x="0px" y="0px"
	 viewBox="0 0 512 512" enable-background="new 0 0 512 512" xml:space="preserve">
<g>
	<g>
		<g>
			<path fill="#4FA5F7" d="M83.5,486.7C39.1,486.7,3,450.6,3,406.3V205.9c0-44.4,36.1-80.5,80.5-80.5H127l108.8-96.7
				c2.5-2.2,5.7-3.5,9.1-3.5c3.4,0,6.6,1.2,9.1,3.5l108.8,96.7h65.8c26,0,47.1,21.1,47.1,47.1v55.1l2,0.7
				c18.8,6.7,31.4,24.5,31.4,44.4v66.8c0,19.9-12.6,37.7-31.4,44.4l-2,0.7v55.1c0,26-21.1,47.1-47.1,47.1H83.5z M83.5,152.8
				c-29.3,0-53.1,23.8-53.1,53.1v200.3c0,29.3,23.8,53.1,53.1,53.1h345c10.9,0,19.7-8.8,19.7-19.7v-53.1h-53.1
				c-44.4,0-80.5-36.1-80.5-80.5s36.1-80.5,80.5-80.5h53.1v-53.1c0-10.9-8.8-19.7-19.7-19.7H83.5z M395.1,253
				c-29.3,0-53.1,23.8-53.1,53.1s23.8,53.1,53.1,53.1h66.8c10.9,0,19.7-8.8,19.7-19.7v-66.8c0-10.9-8.8-19.7-19.7-19.7H395.1z
				 M168.2,125.4h153.3l-76.7-68.2L168.2,125.4z"/>
		</g>
	</g>
	<g>
		<g>
			<circle fill="#4FA5F7" cx="395.1" cy="306.1" r="16.7"/>
		</g>
	</g>
</g>
</svg>
