<?xml version="1.0" encoding="utf-8"?>
<!-- Generator: Adobe Illustrator 17.1.0, SVG Export Plug-In . SVG Version: 6.00 Build 0)  -->
<!DOCTYPE svg PUBLIC "-//W3C//DTD SVG 1.1//EN" "http://www.w3.org/Graphics/SVG/1.1/DTD/svg11.dtd">
<svg version="1.1" id="Layer_1" xmlns="http://www.w3.org/2000/svg" xmlns:xlink="http://www.w3.org/1999/xlink" x="0px" y="0px"
	 viewBox="0 0 511 511" enable-background="new 0 0 511 511" xml:space="preserve">
<g display="none">
	<path display="inline" fill="#D5E2EF" d="M120.8,451.1h269.5v29.9H120.8V451.1z"/>
	<path display="inline" fill="#C3D4E2" d="M255.5,451.1h134.7v29.9H255.5V451.1z"/>
	<path display="inline" fill="#ECF2F9" d="M296,355.1l134.7,134.7L409.6,511L274.9,376.3L296,355.1z"/>
	<path display="inline" fill="#ECF2F9" d="M215,355.1l21.2,21.2L101.4,511l-21.2-21.2L215,355.1z"/>
	<path display="inline" fill="#D5E2EF" d="M435.1,68.6v51.2l-22.5,29.9H104.6l-28.7-29.9V68.6c0-18.9,12-35.6,29.6-42.2
		C153.7,8.7,204.6,0,255.5,0s101.8,8.7,150,26.3C423.2,32.9,435.1,49.7,435.1,68.6z"/>
	<path display="inline" fill="#C3D4E2" d="M435.1,68.6v51.2l-22.5,29.9H255.5V0c50.9,0,101.8,8.7,150,26.3
		C423.2,32.9,435.1,49.7,435.1,68.6z"/>
	<path display="inline" fill="#D5E2EF" d="M435.1,301.4v74.9c0,24.9-20.1,44.9-44.9,44.9H120.8c-24.9,0-44.9-20.1-44.9-44.9v-74.9
		l28.7-29.9h303L435.1,301.4z"/>
	<path display="inline" fill="#C3D4E2" d="M407.6,271.5l27.5,29.9v74.9c0,24.9-20.1,44.9-44.9,44.9H255.5V271.5H407.6z"/>
	<path display="inline" fill="#ECF2F9" d="M75.8,119.8h359.3v181.6H75.8V119.8z"/>
	<path display="inline" fill="#DAE3EA" d="M255.5,119.8h179.6v181.6H255.5V119.8z"/>
	<path display="inline" fill="#4FA5F7" d="M165.7,59.9h179.6v29.9H165.7V59.9z"/>
	<path display="inline" fill="#FFFFFF" d="M315.4,331.4h59.9v29.9h-59.9V331.4z"/>
	<path display="inline" fill="#FFFFFF" d="M135.7,331.4h59.9v29.9h-59.9V331.4z"/>
	<path display="inline" fill="#3E91D6" d="M255.5,59.9h89.8v29.9h-89.8V59.9z"/>
</g>
<g>
	<path fill="#C3D4E2" d="M464.4,270.5c-2.4,0-4.8-0.6-7.1-1.8L255.5,160.1L53.7,268.7c-7.3,3.9-16.4,1.2-20.3-6.1
		c-3.9-7.3-1.2-16.4,6.1-20.3l208.9-112.5c4.4-2.4,9.8-2.4,14.2,0l208.9,112.5c7.3,3.9,10,13,6.1,20.3
		C474.9,267.6,469.7,270.5,464.4,270.5z"/>
	<path fill="#ABC0CE" d="M464.4,270.5c5.3,0,10.5-2.9,13.2-7.9c3.9-7.3,1.2-16.4-6.1-20.3L262.6,129.8c-2.2-1.2-4.7-1.8-7.1-1.8v32
		l201.8,108.6C459.5,269.9,462,270.5,464.4,270.5z"/>
	<path fill="#ECF2F9" d="M480.4,511.5H30.6c-8.3,0-15-6.7-15-15v-241c0-8.3,6.7-15,15-15h449.9c8.3,0,15,6.7,15,15v241
		C495.4,504.8,488.7,511.5,480.4,511.5z"/>
	<g>
		<path fill="#DAE3EA" d="M495.4,496.5v-241c0-8.3-6.7-15-15-15H255.5v271h224.9C488.7,511.5,495.4,504.8,495.4,496.5z"/>
		<path fill="#4FA5F7" d="M94.8,447.2c-8.3,0-15-6.7-15-15V319.8c0-8.3,6.7-15,15-15c8.3,0,15,6.7,15,15v112.5
			C109.8,440.5,103.1,447.2,94.8,447.2z"/>
		<path fill="#4FA5F7" d="M223.4,447.2c-8.3,0-15-6.7-15-15V319.8c0-8.3,6.7-15,15-15c8.3,0,15,6.7,15,15v112.5
			C238.4,440.5,231.6,447.2,223.4,447.2z"/>
	</g>
	<path fill="#3E91D6" d="M351.9,447.2c-8.3,0-15-6.7-15-15V319.8c0-8.3,6.7-15,15-15c8.3,0,15,6.7,15,15v112.5
		C366.9,440.5,360.2,447.2,351.9,447.2z"/>
	<path fill="#4FA5F7" d="M159.1,447.2c-8.3,0-15-6.7-15-15V319.8c0-8.3,6.7-15,15-15c8.3,0,15,6.7,15,15v112.5
		C174.1,440.5,167.4,447.2,159.1,447.2z"/>
	<path fill="#3E91D6" d="M287.6,447.2c-8.3,0-15-6.7-15-15V319.8c0-8.3,6.7-15,15-15c8.3,0,15,6.7,15,15v112.5
		C302.6,440.5,295.9,447.2,287.6,447.2z"/>
	<path fill="#3E91D6" d="M416.2,447.2c-8.3,0-15-6.7-15-15V319.8c0-8.3,6.7-15,15-15c8.3,0,15,6.7,15,15v112.5
		C431.2,440.5,424.4,447.2,416.2,447.2z"/>
	<path fill="#D5E2EF" d="M496.5,270.5h-482c-8.3,0-15-6.7-15-15s6.7-15,15-15h482c8.3,0,15,6.7,15,15S504.8,270.5,496.5,270.5z"/>
	<path fill="#D5E2EF" d="M496.5,511.5h-482c-8.3,0-15-6.7-15-15s6.7-15,15-15h482c8.3,0,15,6.7,15,15S504.8,511.5,496.5,511.5z"/>
	<path fill="#C3D4E2" d="M511.5,255.5c0-8.3-6.7-15-15-15h-241v30h241C504.8,270.5,511.5,263.8,511.5,255.5z"/>
	<path fill="#C3D4E2" d="M511.5,496.5c0-8.3-6.7-15-15-15h-241v30h241C504.8,511.5,511.5,504.8,511.5,496.5z"/>
	<path fill="#ECF2F9" d="M255.5,174.1c-8.3,0-15-6.7-15-15V14.5c0-8.3,6.7-15,15-15s15,6.7,15,15v144.6
		C270.5,167.4,263.8,174.1,255.5,174.1z"/>
	<path fill="#DAE3EA" d="M270.5,159.1V14.5c0-8.3-6.7-15-15-15v174.6C263.8,174.1,270.5,167.4,270.5,159.1z"/>
	<path fill="#D5E2EF" d="M255.5,142c-3.8,0-7.7-1.5-10.6-4.4l-32.1-32.1c-2.8-2.8-4.4-6.6-4.4-10.6V46.6c0-8.3,6.7-15,15-15h64.3
		c8.3,0,15,6.7,15,15v48.2c0,4-1.6,7.8-4.4,10.6l-32.1,32.1C263.2,140.5,259.3,142,255.5,142z"/>
	<path fill="#C3D4E2" d="M298.2,105.4c2.8-2.8,4.4-6.6,4.4-10.6V46.6c0-8.3-6.7-15-15-15h-32.1V142c3.8,0,7.7-1.5,10.6-4.4
		L298.2,105.4z"/>
</g>
</svg>
