<?xml version="1.0" encoding="utf-8"?>
<!-- Generator: Adobe Illustrator 17.1.0, SVG Export Plug-In . SVG Version: 6.00 Build 0)  -->
<!DOCTYPE svg PUBLIC "-//W3C//DTD SVG 1.1//EN" "http://www.w3.org/Graphics/SVG/1.1/DTD/svg11.dtd">
<svg version="1.1" id="Layer_1" xmlns="http://www.w3.org/2000/svg" xmlns:xlink="http://www.w3.org/1999/xlink" x="0px" y="0px"
	 viewBox="0 0 359.3 511" enable-background="new 0 0 359.3 511" xml:space="preserve">
<rect x="44.9" y="451.1" fill="#D5E2EF" width="269.5" height="29.9"/>
<rect x="179.6" y="451.1" fill="#C3D4E2" width="134.7" height="29.9"/>
<rect x="181.7" y="418.1" transform="matrix(-0.7071 -0.7071 0.7071 -0.7071 166.5978 935.0989)" fill="#ECF2F9" width="190.5" height="29.9"/>
<rect x="67.4" y="337.8" transform="matrix(-0.7071 -0.7071 0.7071 -0.7071 -165.6325 797.4875)" fill="#ECF2F9" width="29.9" height="190.5"/>
<g>
	<defs>
		<rect id="SVGID_1_" width="359.3" height="511"/>
	</defs>
	<clipPath id="SVGID_2_">
		<use xlink:href="#SVGID_1_"  overflow="visible"/>
	</clipPath>
	<path clip-path="url(#SVGID_2_)" fill="#D5E2EF" d="M359.3,68.6v51.2l-22.5,29.9H28.7L0,119.8V68.6c0-18.9,12-35.6,29.6-42.2
		C77.8,8.7,128.7,0,179.7,0c50.9,0,101.8,8.7,150,26.3C347.3,32.9,359.3,49.7,359.3,68.6"/>
	<path clip-path="url(#SVGID_2_)" fill="#C3D4E2" d="M359.3,68.6v51.2l-22.5,29.9H179.7V0c50.9,0,101.8,8.7,150,26.3
		C347.3,32.9,359.3,49.7,359.3,68.6"/>
	<path clip-path="url(#SVGID_2_)" fill="#D5E2EF" d="M359.3,301.4v74.9c0,24.8-20.1,44.9-44.9,44.9H44.9C20.1,421.2,0,401.1,0,376.3
		v-74.9l28.7-29.9h303L359.3,301.4z"/>
	<path clip-path="url(#SVGID_2_)" fill="#C3D4E2" d="M331.8,271.5l27.5,29.9v74.9c0,24.9-20.1,44.9-44.9,44.9H179.7V271.5H331.8z"/>
	<rect y="119.8" clip-path="url(#SVGID_2_)" fill="#ECF2F9" width="359.3" height="181.6"/>
	<rect x="179.6" y="119.8" clip-path="url(#SVGID_2_)" fill="#DAE3EA" width="179.6" height="181.6"/>
	<rect x="89.8" y="59.9" clip-path="url(#SVGID_2_)" fill="#4FA5F7" width="179.6" height="29.9"/>
	<rect x="239.5" y="331.4" clip-path="url(#SVGID_2_)" fill="#FFFFFF" width="59.9" height="29.9"/>
	<rect x="59.9" y="331.4" clip-path="url(#SVGID_2_)" fill="#FFFFFF" width="59.9" height="29.9"/>
	<rect x="179.6" y="59.9" clip-path="url(#SVGID_2_)" fill="#3E91D6" width="89.8" height="29.9"/>
</g>
</svg>
