<?xml version="1.0" encoding="utf-8"?>
<!-- Generator: Adobe Illustrator 17.1.0, SVG Export Plug-In . SVG Version: 6.00 Build 0)  -->
<!DOCTYPE svg PUBLIC "-//W3C//DTD SVG 1.1//EN" "http://www.w3.org/Graphics/SVG/1.1/DTD/svg11.dtd">
<svg version="1.1" id="Layer_1" xmlns="http://www.w3.org/2000/svg" xmlns:xlink="http://www.w3.org/1999/xlink" x="0px" y="0px"
	 viewBox="0 0 512 512" enable-background="new 0 0 512 512" xml:space="preserve">
<g>
	<path display="none" fill="#4FA5F7" d="M512,409.6l-128.9-81.2c12.2-21.4,19.2-46.1,19.2-72.4c0-23-5.3-44.8-14.8-64.2v-46.7
		c0-55.5-45.1-100.6-100.6-100.6H162V0.3L0,102.4l128.9,81.2c-12.2,21.4-19.2,46.1-19.2,72.4c0,23,5.3,44.8,14.8,64.2v46.7
		c0,55.5,45.1,100.6,100.6,100.6H350v44.3L512,409.6z M139.7,256c0-64.1,52.2-116.3,116.3-116.3S372.3,191.9,372.3,256
		S320.1,372.3,256,372.3S139.7,320.1,139.7,256z M132,150l-75.7-47.7L132,54.7v19.9h154.8c38.9,0,70.6,31.7,70.6,70.6v5.5
		c-26.3-25.4-62.1-41-101.4-41c-27.2,0-52.7,7.5-74.5,20.5H132V150z M154.6,361.3c26.3,25.4,62.1,41,101.4,41
		c27.2,0,52.7-7.5,74.5-20.5H380V362l75.7,47.7L380,457.3v-19.9H225.1c-38.9,0-70.6-31.7-70.6-70.6V361.3z"/>
	<path fill="#4FA5F7" d="M355.1,469.1H224.5c-55,0-99.8-44.8-99.8-99.8v-48.4l-0.3-0.6c-9.9-20.1-14.9-41.7-14.9-64.3
		c0-25.4,6.7-50.5,19.2-72.5l1.5-2.6L0,98.9L156.9,0.1v42.8h130.7c55,0,99.8,44.8,99.8,99.8v48.4l0.3,0.6
		c9.9,20.1,14.9,41.8,14.9,64.3c0,25.4-6.7,50.5-19.2,72.5l-1.5,2.6l130.2,82l-156.9,98.8V469.1z M379.7,467.4l86.2-54.3l-86.2-54.3
		v22.8h-48.3l-0.7,0.4c-22.5,13.4-48.3,20.5-74.6,20.5c-38,0-74.1-14.6-101.6-41l-5.2-5v12.8c0,41.5,33.8,75.2,75.2,75.2h155.2
		V467.4z M256,134c-67.3,0-122,54.7-122,122c0,67.2,54.7,122,122,122c67.2,0,122-54.7,122-122C378,188.7,323.2,134,256,134z
		 M256,109.5c38,0,74.1,14.6,101.6,41l5.2,5v-12.8c0-41.5-33.8-75.2-75.2-75.2H132.3V44.6L46.1,98.9l86.2,54.3v-22.8h48.3l0.7-0.4
		C203.9,116.5,229.7,109.5,256,109.5z"/>
	<path display="none" fill="#4FA5F7" d="M269.5,333.2v-18.2c25.4-4.4,38.3-19.9,38.3-37.6c0-42.4-63.5-30.9-63.5-44.7
		c0-3.9,3.6-7.2,14.9-7.2c10,0,20.7,2.8,32,8.5l11.7-28.1c-9.4-5.3-21.2-8.4-33.3-9.5v-17.6h-23.1v17.9
		c-26.9,3.8-40.4,19.4-40.4,37.9c0,42.8,63.5,31.2,63.5,45.6c0,3.9-3.9,6.2-14.9,6.2c-12.6,0-27.1-4.1-37.9-10.5l-12.5,28.2
		c9.9,6.1,25.8,10.5,42.2,11.5v17.4H269.5z"/>
	<path fill="#4FA5F7" d="M249.3,331.8v-17.6l-2.9-0.2c-14.8-0.9-29.6-4.7-39.4-10l10.3-23.3c11.2,5.9,25.2,9.5,37.3,9.5
		c5,0,18.3,0,18.3-9.4c0-7.9-9.8-10-22.3-12.6c-19-4-42.7-8.9-42.7-34.1c0-19,14.4-32.3,38.7-35.7l2.6-0.4v-17.9h17.5v17.7l2.8,0.3
		c11.6,1.1,22.1,3.9,30.5,8.1l-9.6,23.1c-10.8-5.1-21.3-7.6-31.1-7.6c-15.2,0-18.3,5.7-18.3,10.5c0,7.6,9.7,9.6,22,12
		c19.2,3.8,43,8.6,43,33.6c0,18.2-13.7,31.4-36.6,35.4l-2.5,0.4v18.1H249.3z"/>
</g>
</svg>
