<?xml version="1.0" encoding="utf-8"?>
<!-- Generator: Adobe Illustrator 17.1.0, SVG Export Plug-In . SVG Version: 6.00 Build 0)  -->
<!DOCTYPE svg PUBLIC "-//W3C//DTD SVG 1.1//EN" "http://www.w3.org/Graphics/SVG/1.1/DTD/svg11.dtd">
<svg version="1.1" id="Layer_1" xmlns="http://www.w3.org/2000/svg" xmlns:xlink="http://www.w3.org/1999/xlink" x="0px" y="0px"
	 viewBox="0 0 512 512" enable-background="new 0 0 512 512" xml:space="preserve">
<g>
	<path fill="#4FA5F7" d="M196.4,144.4c-39.5,0-71.7-32.2-71.7-71.7S156.8,1,196.4,1c39.5,0,71.7,32.2,71.7,71.7
		S235.9,144.4,196.4,144.4z M196.4,29c-24.1,0-43.7,19.6-43.7,43.7s19.6,43.7,43.7,43.7c24.1,0,43.7-19.6,43.7-43.7
		S220.5,29,196.4,29z"/>
	<path fill="#4FA5F7" d="M218.8,511c-7.1,0-12.8-5.8-12.8-12.8V406L90.3,312.1c-5.3-4.3-8.3-10.6-8.3-17.4v-71
		c0-7.5,6.1-13.7,13.7-13.7h149.6l-0.2-1.2c-0.7-4.2-1.1-8.4-1.1-12.4c0-39.5,32.2-71.7,71.7-71.7c39.5,0,71.7,32.2,71.7,71.7
		c0,4.1-0.4,8.3-1.1,12.4L386,210h30.3c7.5,0,13.7,6.1,13.7,13.7v71c0,6.8-3,13.1-8.3,17.4L306,406v92.2c0,7.1-5.8,12.8-12.8,12.8
		H218.8z M234,483h44v-90.4L402,292v-54H110v54l124,100.6V483z M315.6,152.7c-24.1,0-43.7,19.6-43.7,43.7c0,4.4,0.7,8.7,2,12.9
		l0.2,0.7h83.1l0.2-0.7c1.7-5.5,2.3-11.2,1.8-17c-2-21.2-19.4-38.1-40.6-39.5C317.6,152.7,316.6,152.7,315.6,152.7z"/>
</g>
</svg>
