<?xml version="1.0" encoding="utf-8"?>
<!-- Generator: Adobe Illustrator 17.1.0, SVG Export Plug-In . SVG Version: 6.00 Build 0)  -->
<!DOCTYPE svg PUBLIC "-//W3C//DTD SVG 1.1//EN" "http://www.w3.org/Graphics/SVG/1.1/DTD/svg11.dtd">
<svg version="1.1" id="Layer_1" xmlns="http://www.w3.org/2000/svg" xmlns:xlink="http://www.w3.org/1999/xlink" x="0px" y="0px"
	 viewBox="0 0 512 512" enable-background="new 0 0 512 512" xml:space="preserve">
<path fill="#4FA5F7" d="M278.9,507.8l0-34.1c0.1-67.7,55.2-122.8,122.9-122.8h42.3l-48.8-48.8l22.6-22.6l88.4,88.4l-88.4,88.4
	l-22.6-22.6l50.8-50.8h-44.3c-50.1,0-90.9,40.8-90.9,90.9l0,34.1L278.9,507.8z M4,507.8c1-65.8,27.1-127.5,73.7-174.1
	c27.4-27.4,59.6-47.6,95.7-60l7.5-2.6l-6.5-4.5c-39.1-27-62.5-71.3-62.5-118.6c0-79.4,64.6-143.9,143.9-143.9
	s143.9,64.6,143.9,143.9S335.2,292,255.9,292C136,292,38.2,388.5,36,507.8H4z M255.9,36.1c-61.7,0-111.9,50.2-111.9,111.9
	S194.1,260,255.9,260c61.7,0,111.9-50.2,111.9-111.9S317.6,36.1,255.9,36.1z"/>
</svg>
