<?xml version="1.0" encoding="utf-8"?>
<!-- Generator: Adobe Illustrator 17.1.0, SVG Export Plug-In . SVG Version: 6.00 Build 0)  -->
<!DOCTYPE svg PUBLIC "-//W3C//DTD SVG 1.1//EN" "http://www.w3.org/Graphics/SVG/1.1/DTD/svg11.dtd">
<svg version="1.1" id="Layer_1" xmlns="http://www.w3.org/2000/svg" xmlns:xlink="http://www.w3.org/1999/xlink" x="0px" y="0px"
	 viewBox="0 0 512 512" enable-background="new 0 0 512 512" xml:space="preserve">
<g>
	<path fill="#4FA5F7" d="M370.7,511c-48.6,0-89.4-38-92.8-86.5l-0.1-0.9H48.3V355c0-35.7,10.9-70,31.6-99
		c20.2-28.5,48.1-49.9,80.6-61.9l1.8-0.7l-1.6-1.1c-28.6-19.6-45.7-51.9-45.7-86.5C115,48,162,1,219.8,1
		c57.8,0,104.8,47,104.8,104.8c0,34.6-17.1,66.9-45.7,86.5l-1.6,1.1l1.8,0.7c57.5,21.2,99.5,71.8,109.8,132.1l0.1,0.7l0.7,0.1
		c42.9,8.9,74,47.2,74,91.1C463.7,469.3,422,511,370.7,511z M370.7,353c-2.8,0-5.7,0.2-8.5,0.6c-23.4,3.1-43.3,18.7-52,40.7
		c-3,7.6-4.5,15.6-4.5,23.8c0,2.3,0.1,4.6,0.3,6.7c3.4,33.2,31.2,58.3,64.7,58.3c35.8,0,65-29.2,65-65c0-27.3-17.3-51.9-43-61.2
		C385.6,354.3,378.2,353,370.7,353z M219.8,211.5c-79.1,0-143.5,64.4-143.5,143.5v40.6h204.1l0.2-0.8c9.4-36.7,41-64.5,78.6-69.1
		l1.1-0.1l-0.2-1.1C345.8,259,286.8,211.5,219.8,211.5z M219.8,29c-42.4,0-76.8,34.5-76.8,76.8c0,42.4,34.5,76.8,76.8,76.8
		c42.4,0,76.8-34.5,76.8-76.8C296.6,63.5,262.2,29,219.8,29z"/>
	<polygon fill="#4FA5F7" points="356.7,455.5 356.7,432 333.2,432 333.2,404 356.7,404 356.7,380.5 384.7,380.5 384.7,404 
		408.2,404 408.2,432 384.7,432 384.7,455.5 	"/>
</g>
</svg>
