<?xml version="1.0" encoding="utf-8"?>
<!-- Generator: Adobe Illustrator 17.1.0, SVG Export Plug-In . SVG Version: 6.00 Build 0)  -->
<!DOCTYPE svg PUBLIC "-//W3C//DTD SVG 1.1//EN" "http://www.w3.org/Graphics/SVG/1.1/DTD/svg11.dtd">
<svg version="1.1" id="Layer_1" xmlns="http://www.w3.org/2000/svg" xmlns:xlink="http://www.w3.org/1999/xlink" x="0px" y="0px"
	 viewBox="0 0 511 511" enable-background="new 0 0 511 511" xml:space="preserve">
<g>
	<path fill="#D5E2EF" d="M320,93H191l22.8-93.5h83.4L320,93z"/>
	<path fill="#C3D4E2" d="M320,93h-64.5V-0.5h41.7L320,93z"/>
	<path fill="#ECF2F9" d="M409.4,234H101.6L122,94.5l133.5-33.6L389,94.5L409.4,234z"/>
	<path fill="#DAE3EA" d="M409.4,234H255.5V60.9L389,94.5L409.4,234z"/>
	<path fill="#D5E2EF" d="M485,246.6l-73.8,228.3c-7.2-4.5-16.2-8.4-28.2-8.4c-20.7,0-33,10.8-41.7,18.9
		c-8.4,7.2-13.2,11.1-22.2,11.1c-8.7,0-13.5-3.9-21.9-11.1c-8.7-8.1-21-18.9-41.7-18.9s-33,10.8-41.7,18.9
		c-8.4,7.2-13.2,11.1-21.9,11.1c-9,0-13.8-3.9-22.2-11.1c-8.7-8.1-21-18.9-41.7-18.9c-12,0-21,3.9-28.2,8.4L26,246.6l229.5-65.7
		L485,246.6z"/>
	<path fill="#C3D4E2" d="M485,246.6l-73.8,228.3c-7.2-4.5-16.2-8.4-28.2-8.4c-20.7,0-33,10.8-41.7,18.9
		c-8.4,7.2-13.2,11.1-22.2,11.1c-8.7,0-13.5-3.9-21.9-11.1c-8.7-8.1-21-18.9-41.7-18.9V180.9L485,246.6z"/>
	<path fill="#4FA5F7" d="M325.7,140.4l-7.5,29.1l-62.7-15.6l-62.7,15.6l-7.5-29.1l70.2-17.4L325.7,140.4z"/>
	<path fill="#FFFFFF" d="M165.5,361.5c-24.8,0-45-20.2-45-45s20.2-45,45-45s45,20.2,45,45S190.3,361.5,165.5,361.5z"/>
	<path fill="#FFFFFF" d="M345.5,361.5c-24.8,0-45-20.2-45-45s20.2-45,45-45s45,20.2,45,45S370.3,361.5,345.5,361.5z"/>
	<path fill="#3E91D6" d="M318.2,169.5l-62.7-15.6V123l70.2,17.4L318.2,169.5z"/>
	<path fill="#4FA5F7" d="M511.5,451.5v30c-9,0-14.5,3.9-22.9,11.1c-9,8.1-21.3,18.9-41.7,18.9c-20.7,0-33-10.8-42-18.9
		c-8.4-7.2-12.9-11.1-21.9-11.1s-13.5,3.9-21.9,11.1c-9,8.1-21.3,18.9-42,18.9c-20.4,0-32.7-10.8-41.7-18.9
		c-8.4-7.2-12.9-11.1-21.9-11.1s-13.5,3.9-21.9,11.1c-9,8.1-21.3,18.9-41.7,18.9c-20.7,0-33-10.8-42-18.9
		c-8.4-7.2-12.9-11.1-21.9-11.1s-13.5,3.9-21.9,11.1c-9,8.1-21.3,18.9-42,18.9c-20.4,0-32.7-10.8-41.7-18.9
		c-8.4-7.2-13.9-11.1-22.9-11.1v-30c20.7,0,34,10.8,42.7,18.9c8.4,7.2,13.2,11.1,21.9,11.1c9,0,13.8-3.9,22.2-11.1
		c8.7-8.1,21-18.9,41.7-18.9s33,10.8,41.7,18.9c8.4,7.2,13.2,11.1,22.2,11.1c8.7,0,13.5-3.9,21.9-11.1c8.7-8.1,21-18.9,41.7-18.9
		c20.7,0,33,10.8,41.7,18.9c8.4,7.2,13.2,11.1,21.9,11.1c9,0,13.8-3.9,22.2-11.1c8.7-8.1,21-18.9,41.7-18.9s33,10.8,41.7,18.9
		c8.4,7.2,13.2,11.1,22.2,11.1c8.7,0,13.5-3.9,21.9-11.1C477.5,462.3,490.8,451.5,511.5,451.5z"/>
	<path fill="#3E91D6" d="M511.5,451.5v30c-9,0-14.5,3.9-22.9,11.1c-9,8.1-21.3,18.9-41.7,18.9c-20.7,0-33-10.8-42-18.9
		c-8.4-7.2-12.9-11.1-21.9-11.1s-13.5,3.9-21.9,11.1c-9,8.1-21.3,18.9-42,18.9c-20.4,0-32.7-10.8-41.7-18.9
		c-8.4-7.2-12.9-11.1-21.9-11.1v-30c20.7,0,33,10.8,41.7,18.9c8.4,7.2,13.2,11.1,21.9,11.1c9,0,13.8-3.9,22.2-11.1
		c8.7-8.1,21-18.9,41.7-18.9s33,10.8,41.7,18.9c8.4,7.2,13.2,11.1,22.2,11.1c8.7,0,13.5-3.9,21.9-11.1
		C477.5,462.3,490.8,451.5,511.5,451.5z"/>
</g>
</svg>
