<?xml version="1.0" encoding="utf-8"?>
<!-- Generator: Adobe Illustrator 17.1.0, SVG Export Plug-In . SVG Version: 6.00 Build 0)  -->
<!DOCTYPE svg PUBLIC "-//W3C//DTD SVG 1.1//EN" "http://www.w3.org/Graphics/SVG/1.1/DTD/svg11.dtd">
<svg version="1.1" id="Layer_1" xmlns="http://www.w3.org/2000/svg" xmlns:xlink="http://www.w3.org/1999/xlink" x="0px" y="0px"
	 viewBox="0 0 512 512" enable-background="new 0 0 512 512" xml:space="preserve">
<g display="none">
	<g display="inline">
		<g>
			<path fill="#4FA5F7" d="M83.5,486.7C39.1,486.7,3,450.6,3,406.3V205.9c0-44.4,36.1-80.5,80.5-80.5H127l108.8-96.7
				c2.5-2.2,5.7-3.5,9.1-3.5c3.4,0,6.6,1.2,9.1,3.5l108.8,96.7h65.8c26,0,47.1,21.1,47.1,47.1v55.1l2,0.7
				c18.8,6.7,31.4,24.5,31.4,44.4v66.8c0,19.9-12.6,37.7-31.4,44.4l-2,0.7v55.1c0,26-21.1,47.1-47.1,47.1H83.5z M83.5,152.8
				c-29.3,0-53.1,23.8-53.1,53.1v200.3c0,29.3,23.8,53.1,53.1,53.1h345c10.9,0,19.7-8.8,19.7-19.7v-53.1h-53.1
				c-44.4,0-80.5-36.1-80.5-80.5s36.1-80.5,80.5-80.5h53.1v-53.1c0-10.9-8.8-19.7-19.7-19.7H83.5z M395.1,253
				c-29.3,0-53.1,23.8-53.1,53.1s23.8,53.1,53.1,53.1h66.8c10.9,0,19.7-8.8,19.7-19.7v-66.8c0-10.9-8.8-19.7-19.7-19.7H395.1z
				 M168.2,125.4h153.3l-76.7-68.2L168.2,125.4z"/>
		</g>
	</g>
	<g display="inline">
		<g>
			<circle fill="#4FA5F7" cx="395.1" cy="306.1" r="16.7"/>
		</g>
	</g>
</g>
<g>
	<g>
		<path fill="#4FA5F7" d="M470.8,205.8l-33.6-5.7c-3.5-11.3-8-22.2-13.5-32.6l19.8-27.7c8.4-11.8,7.1-27.9-3.2-38.1l-29.8-29.8
			c-5.6-5.6-13-8.7-20.9-8.7c-6.2,0-12.1,1.9-17.1,5.5l-27.8,19.8c-10.8-5.7-22.1-10.4-33.8-13.9l-5.6-33.2
			c-2.4-14.3-14.7-24.7-29.2-24.7H234c-14.5,0-26.8,10.4-29.2,24.7l-5.8,34c-11.2,3.5-22.1,8.1-32.5,13.7L139,69.2
			c-5-3.6-11-5.5-17.2-5.5c-7.9,0-15.4,3.1-20.9,8.7L71,102.2c-10.2,10.2-11.6,26.3-3.2,38.1l20,28.1c-5.5,10.5-9.9,21.4-13.3,32.7
			l-33.2,5.6c-14.3,2.4-24.7,14.7-24.7,29.2V278c0,14.5,10.4,26.8,24.7,29.2l34,5.8c3.5,11.2,8.1,22.1,13.7,32.5l-19.7,27.4
			c-8.4,11.8-7.1,27.9,3.2,38.1l29.8,29.8c5.6,5.6,13,8.7,20.9,8.7c6.2,0,12.1-1.9,17.1-5.5l28.1-20c10.1,5.3,20.7,9.6,31.6,13
			l5.6,33.6c2.4,14.3,14.7,24.7,29.2,24.7H277c14.5,0,26.8-10.4,29.2-24.7l5.7-33.6c11.3-3.5,22.2-8,32.6-13.5l27.7,19.8
			c5,3.6,11,5.5,17.2,5.5l0,0c7.9,0,15.3-3.1,20.9-8.7l29.8-29.8c10.2-10.2,11.6-26.3,3.2-38.1l-19.8-27.8
			c5.5-10.5,10.1-21.4,13.5-32.6l33.6-5.6c14.3-2.4,24.7-14.7,24.7-29.2v-42.1C495.5,220.4,485.1,208.1,470.8,205.8z M468.5,277
			c0,1.3-0.9,2.4-2.2,2.6l-42,7c-5.3,0.9-9.5,4.8-10.8,9.9c-3.8,14.7-9.6,28.8-17.4,41.9c-2.7,4.6-2.5,10.3,0.6,14.7l24.7,34.8
			c0.7,1,0.6,2.5-0.3,3.4l-29.8,29.8c-0.7,0.7-1.4,0.8-1.9,0.8c-0.6,0-1.1-0.2-1.5-0.5l-34.7-24.7c-4.3-3.1-10.1-3.3-14.7-0.6
			c-13.1,7.8-27.2,13.6-41.9,17.4c-5.2,1.3-9.1,5.6-9.9,10.8l-7.1,42c-0.2,1.3-1.3,2.2-2.6,2.2h-42.1c-1.3,0-2.4-0.9-2.6-2.2l-7-42
			c-0.9-5.3-4.8-9.5-9.9-10.8c-14.3-3.7-28.1-9.4-41-16.8c-2.1-1.2-4.5-1.8-6.8-1.8c-2.7,0-5.5,0.8-7.8,2.5l-35,24.9
			c-0.5,0.3-1,0.5-1.5,0.5c-0.4,0-1.2-0.1-1.9-0.8l-29.8-29.8c-0.9-0.9-1-2.3-0.3-3.4l24.6-34.5c3.1-4.4,3.3-10.2,0.6-14.8
			c-7.8-13-13.8-27.1-17.6-41.8c-1.4-5.1-5.6-9-10.8-9.9l-42.3-7.2c-1.3-0.2-2.2-1.3-2.2-2.6v-42.1c0-1.3,0.9-2.4,2.2-2.6l41.7-7
			c5.3-0.9,9.6-4.8,10.9-10c3.7-14.7,9.4-28.9,17.1-42c2.7-4.6,2.4-10.3-0.7-14.6l-24.9-35c-0.7-1-0.6-2.5,0.3-3.4L120,91.5
			c0.7-0.7,1.4-0.8,1.9-0.8c0.6,0,1.1,0.2,1.5,0.5l34.5,24.6c4.4,3.1,10.2,3.3,14.8,0.6c13-7.8,27.1-13.8,41.8-17.6
			c5.1-1.4,9-5.6,9.9-10.8l7.2-42.3c0.2-1.3,1.3-2.2,2.6-2.2h42.1c1.3,0,2.4,0.9,2.6,2.2l7,41.7c0.9,5.3,4.8,9.6,10,10.9
			c15.1,3.8,29.5,9.7,42.9,17.6c4.6,2.7,10.3,2.5,14.7-0.6L388,90.5c0.5-0.3,1-0.5,1.5-0.5c0.4,0,1.2,0.1,1.9,0.8l29.8,29.8
			c0.9,0.9,1,2.3,0.3,3.4l-24.7,34.7c-3.1,4.3-3.3,10.1-0.6,14.7c7.8,13.1,13.6,27.2,17.4,41.9c1.3,5.2,5.6,9.1,10.8,9.9l42,7.1
			c1.3,0.2,2.2,1.3,2.2,2.6L468.5,277L468.5,277z"/>
		<path fill="#4FA5F7" d="M256,152.6c-57,0-103.3,46.3-103.3,103.3S199,359.3,256,359.3S359.3,313,359.3,256S313,152.6,256,152.6z
			 M256,332.3c-42.1,0-76.3-34.2-76.3-76.3s34.2-76.3,76.3-76.3s76.3,34.2,76.3,76.3S298.1,332.3,256,332.3z"/>
	</g>
</g>
</svg>
