<?xml version="1.0" encoding="utf-8"?>
<!-- Generator: Adobe Illustrator 17.1.0, SVG Export Plug-In . SVG Version: 6.00 Build 0)  -->
<!DOCTYPE svg PUBLIC "-//W3C//DTD SVG 1.1//EN" "http://www.w3.org/Graphics/SVG/1.1/DTD/svg11.dtd">
<svg version="1.1" id="Layer_1" xmlns="http://www.w3.org/2000/svg" xmlns:xlink="http://www.w3.org/1999/xlink" x="0px" y="0px"
	 viewBox="0 0 35 35" enable-background="new 0 0 35 35" xml:space="preserve">
<g>
	<polygon fill="#E1EDF5" points="14.1,19.6 17.4,17.7 20.7,19.6 17.4,21.5 	"/>
	<polygon fill="#E1EDF5" points="17.7,16.4 17.7,12.7 21,14.5 21,18.3 	"/>
	<polygon fill="#E1EDF5" points="13.8,14.5 17.1,12.7 17.1,16.4 13.8,18.3 	"/>
	<polyline fill="#E1EDF5" points="2.9,8.5 16.1,0.9 16.1,5.6 7.1,10.8 	"/>
	<polygon fill="#E1EDF5" points="2.6,9.3 6.7,11.6 6.7,21.8 2.6,24.2 	"/>
	<polygon fill="#E1EDF5" points="3.9,26.4 8,24.1 17.4,29.5 26.8,24.1 30.9,26.4 17.4,34.2 	"/>
	<polygon fill="#E1EDF5" points="28.1,21.8 28.1,11 22.7,8 18.7,5.6 18.7,0.9 22.2,2.9 24.7,4.4 27.4,5.8 32.2,8.7 32.2,24.2 	"/>
</g>
</svg>
