<?xml version="1.0" encoding="utf-8"?>
<!-- Generator: Adobe Illustrator 17.1.0, SVG Export Plug-In . SVG Version: 6.00 Build 0)  -->
<!DOCTYPE svg PUBLIC "-//W3C//DTD SVG 1.1//EN" "http://www.w3.org/Graphics/SVG/1.1/DTD/svg11.dtd">
<svg version="1.1" id="Capa_1" xmlns="http://www.w3.org/2000/svg" xmlns:xlink="http://www.w3.org/1999/xlink" x="0px" y="0px"
	 viewBox="0 0 455.7 455.7" enable-background="new 0 0 455.7 455.7" xml:space="preserve">
<g>
	<path fill="#61A8DE" d="M227.9,0L227.9,0c125.8,0,227.9,102,227.9,227.9v0c0,125.8-102,227.9-227.9,227.9h0
		C102,455.7,0,353.7,0,227.9v0C0,102,102,0,227.9,0z"/>
	<path fill="#FFFFFF" d="M342.1,116.7L72.5,221.7c-8.7,3.4-8.2,15.9,0.8,18.6l68.5,20.2l25.6,81.1c2.7,8.5,13.4,11,19.6,4.7
		l35.4-36.2l69.5,51c8.5,6.2,20.6,1.6,22.8-8.7l46-220C362.9,121.7,352.3,112.7,342.1,116.7z M308.3,165.5L183.1,276.2
		c-1.2,1.1-2,2.6-2.2,4.3l-4.8,42.9c-0.2,1.4-2.1,1.6-2.5,0.2l-19.8-63.9c-0.9-2.9,0.3-6.1,2.9-7.7l147.9-91.7
		C307.8,158.2,311.3,162.9,308.3,165.5z"/>
</g>
</svg>
