<?xml version="1.0" encoding="utf-8"?>
<!-- Generator: Adobe Illustrator 17.1.0, SVG Export Plug-In . SVG Version: 6.00 Build 0)  -->
<!DOCTYPE svg PUBLIC "-//W3C//DTD SVG 1.1//EN" "http://www.w3.org/Graphics/SVG/1.1/DTD/svg11.dtd">
<svg version="1.1" id="Layer_1" xmlns="http://www.w3.org/2000/svg" xmlns:xlink="http://www.w3.org/1999/xlink" x="0px" y="0px"
	 viewBox="0 0 35 35" enable-background="new 0 0 35 35" xml:space="preserve">
<g>
	<path fill="#529DD5" d="M32.6,3.1L0.9,15.5c-1,0.4-1,1.9,0.1,2.2l8,2.4l3,9.5c0.3,1,1.6,1.3,2.3,0.6l4.2-4.2l8.2,6
		c1,0.7,2.4,0.2,2.7-1L34.8,5C35,3.7,33.8,2.7,32.6,3.1z M28.6,8.9l-14.7,13c-0.1,0.1-0.2,0.3-0.3,0.5l-0.6,5c0,0.2-0.2,0.2-0.3,0
		l-2.3-7.5c-0.1-0.3,0-0.7,0.3-0.9L28.2,8.3C28.6,8,29,8.6,28.6,8.9z"/>
</g>
</svg>
