<?xml version="1.0" encoding="utf-8"?>
<!-- Generator: Adobe Illustrator 17.1.0, SVG Export Plug-In . SVG Version: 6.00 Build 0)  -->
<!DOCTYPE svg PUBLIC "-//W3C//DTD SVG 1.1//EN" "http://www.w3.org/Graphics/SVG/1.1/DTD/svg11.dtd">
<svg version="1.1" id="Layer_1" xmlns="http://www.w3.org/2000/svg" xmlns:xlink="http://www.w3.org/1999/xlink" x="0px" y="0px"
	 viewBox="0 0 512 512" enable-background="new 0 0 512 512" xml:space="preserve">
<g>
	<path fill="#4FA5F7" d="M104,393.9c-1-0.2-2-0.3-3.1-0.5c-1.3-0.2-2.8-0.5-4.2-0.7c-25.8-5.7-49.3-20.1-66.2-40.8
		C13.4,330.9,4,304.4,4,277.4c0-29.9,11.2-58.3,31.5-80.2C52,179.3,73.3,167.1,97,162l2.6-0.6l0.5-2.6c6.7-33.1,23.5-62.7,48.7-85.5
		c29.1-26.4,66.8-41,106.2-41c41.4,0,80.5,16,110.3,44.9c29.6,28.9,46.6,67.5,47.7,108.7v3.5l3.6,0.5c52.2,5.8,91.5,49.8,91.5,102.4
		c0,51.3-37.5,94.1-88,101.5v-32.1c32.1-6.9,55.5-35.1,56-68.2c0.3-18.9-6.9-36.9-20.3-50.5c-13.7-14-32.1-21.7-51.7-21.7h-23v-29.7
		c0-69.9-56.3-127-125.5-127.3l-0.5,0c-64.8,0-118.7,48.6-125.3,113l-1.4,13.3l-13.3,1.1c-44.3,3.5-79,41.2-79,85.7
		c0,36.8,23.4,69.5,58.3,81.4l0.1,0l0.2,0.1c3.1,1.5,6.3,2.5,9.4,3.1V393.9z"/>
	<path fill="#4FA5F7" d="M173,478.4V311.3l-0.1-7.5l-7,7.4l-1.5,1.5l-18.3,18.3l-21.2-21.2l63.1-63.1l63.1,63.1l-21.2,21.2
		l-19.7-19.7l-7.2-7.2l0.1,7.2l-0.1,5.1v162.1H173z M251.9,413.5l21.2-21.2l19.7,19.7l7,7.5l0.1-7.5l0.1-5.1V245.4h30V412v8l7.1-8
		l1.5-1.5l18.2-18.2l21.2,21.2L315,476.6L251.9,413.5z"/>
</g>
</svg>
