<?xml version="1.0" encoding="utf-8"?>
<!-- Generator: Adobe Illustrator 17.1.0, SVG Export Plug-In . SVG Version: 6.00 Build 0)  -->
<!DOCTYPE svg PUBLIC "-//W3C//DTD SVG 1.1//EN" "http://www.w3.org/Graphics/SVG/1.1/DTD/svg11.dtd">
<svg version="1.1" id="Layer_1" xmlns="http://www.w3.org/2000/svg" xmlns:xlink="http://www.w3.org/1999/xlink" x="0px" y="0px"
	 viewBox="0 0 512 512" enable-background="new 0 0 512 512" xml:space="preserve">
<path display="none" fill="#4FA5F7" d="M437,75C388.7,26.6,324.4,0,256,0S123.3,26.6,75,75S0,187.6,0,256s26.6,132.7,75,181
	s112.6,75,181,75s132.7-26.6,181-75s75-112.6,75-181S485.4,123.3,437,75z M111.1,429.3c8.5-72.7,71-128.9,144.9-128.9
	c39,0,75.6,15.2,103.2,42.7c23.3,23.3,38,53.7,41.7,86.2C361.6,462.2,311.1,482,256,482S150.4,462.2,111.1,429.3z M256,269.5
	c-42.9,0-77.8-34.9-77.8-77.8c0-42.9,34.9-77.8,77.8-77.8s77.8,34.9,77.8,77.8C333.8,234.6,298.9,269.5,256,269.5z M426.7,403.9
	c-7.6-30.8-23.6-59.2-46.4-82c-18.4-18.4-40.3-32.3-64-40.9c28.6-19.4,47.4-52.2,47.4-89.2C363.8,132.3,315.4,84,256,84
	s-107.8,48.3-107.8,107.8c0,37.1,18.8,69.9,47.5,89.3c-21.9,8-42.1,20.3-59.6,36.5c-25.2,23.5-42.8,53.5-50.9,86.3
	C50.9,364.2,30,312.5,30,256C30,131.4,131.4,30,256,30s226,101.4,226,226C482,312.5,461.1,364.3,426.7,403.9z"/>
<g display="none">
	<g display="inline">
		<g>
			<path fill="#4FA5F7" d="M478.6,225.5v-53c0-27.6-22.5-50.1-50.1-50.1h-64.6l-108-96c-6.3-5.6-15.9-5.6-22.2,0l-108,96H83.5
				c-46,0-83.5,37.4-83.5,83.5v200.3c0,46,37.4,83.5,83.5,83.5h345c27.6,0,50.1-22.5,50.1-50.1v-53c19.4-6.9,33.4-25.5,33.4-47.2
				v-66.8C512,250.9,498,232.4,478.6,225.5z M244.9,61.3l68.8,61.1H176.1L244.9,61.3z M445.2,439.7c0,9.2-7.5,16.7-16.7,16.7h-345
				c-27.6,0-50.1-22.5-50.1-50.1V205.9c0-27.6,22.5-50.1,50.1-50.1h345c9.2,0,16.7,7.5,16.7,16.7v50.1h-50.1
				c-46,0-83.5,37.4-83.5,83.5s37.4,83.5,83.5,83.5h50.1V439.7z M478.6,339.5c0,9.2-7.5,16.7-16.7,16.7h-66.8
				c-27.6,0-50.1-22.5-50.1-50.1s22.5-50.1,50.1-50.1h66.8c9.2,0,16.7,7.5,16.7,16.7V339.5z"/>
		</g>
	</g>
	<g display="inline">
		<g>
			<circle fill="#4FA5F7" cx="395.1" cy="306.1" r="16.7"/>
		</g>
	</g>
</g>
<g>
	<path fill="#4FA5F7" d="M443.4,80.5H68.6c-34.5,0-62.5,28-62.5,62.5v226.1c0,34.5,28,62.5,62.5,62.5h374.8
		c34.5,0,62.5-28,62.5-62.5V142.9C505.8,108.5,477.9,80.5,443.4,80.5z M480.9,369.7c0,20.7-16.8,38-37.5,38H68.6
		c-20.7,0-37.5-17.4-37.5-38V240.4h449.7V369.7z M480.9,215.4H31.1v-43.7h449.7V215.4z M480.9,146.7H227.3c1.4,3-0.1,7.3-4.3,7.3
		s-5.7-4.3-4.3-7.3H31.1v-3.2c0-20.7,16.8-38,37.5-38h374.8c20.7,0,37.5,17.4,37.5,38V146.7z"/>
	<path fill="#4FA5F7" d="M174,269.6c-9.4,0-18.5,2.4-26.7,7.1c-22.6-12.9-51.2-7.8-67.9,12.2c-16.7,20-16.7,49.1,0,69
		c16.7,20,45.3,25.1,67.9,12.2c19.6,11.2,44.1,9,61.4-5.6c17.3-14.6,23.6-38.4,15.8-59.6C216.8,283.7,196.6,269.6,174,269.6z
		 M145.2,323.4c0-3.7,0.7-7.4,2.1-10.9c2.8,7,2.8,14.8,0,21.7C146,330.8,145.2,327.1,145.2,323.4L145.2,323.4z M91.9,323.4
		c0-8.9,4.1-17.4,11.2-22.8c7.1-5.4,16.3-7.3,24.9-5c-10.4,17.1-10.4,38.6,0,55.7c-8.6,2.3-17.8,0.4-24.9-5
		C96.1,340.7,91.9,332.3,91.9,323.4z M174,352.2c-2.5,0-4.9-0.3-7.3-1c10.4-17.1,10.4-38.6,0-55.7c10.8-2.8,22.3,0.8,29.4,9.4
		c7.2,8.6,8.7,20.5,4,30.6C195.4,345.7,185.2,352.2,174,352.2z"/>
</g>
</svg>
