<?xml version="1.0" encoding="utf-8"?>
<!-- Generator: Adobe Illustrator 17.1.0, SVG Export Plug-In . SVG Version: 6.00 Build 0)  -->
<!DOCTYPE svg PUBLIC "-//W3C//DTD SVG 1.1//EN" "http://www.w3.org/Graphics/SVG/1.1/DTD/svg11.dtd">
<svg version="1.1" id="Layer_1" xmlns="http://www.w3.org/2000/svg" xmlns:xlink="http://www.w3.org/1999/xlink" x="0px" y="0px"
	 viewBox="0 0 512 512" enable-background="new 0 0 512 512" xml:space="preserve">
<path fill="#FF6600" d="M256,0C114.8,0,0,114.8,0,256s114.8,256,256,256s256-114.8,256-256S397.2,0,256,0z M256,39.5
	c119.4,0,216.5,97.1,216.5,216.5c0,30.1-6.2,58.7-17.3,84.8h-63.5V121.1L256,281.1l-135.7-160v219.7H56.7
	c-11.1-26.1-17.3-54.7-17.3-84.8C39.5,136.6,136.6,39.5,256,39.5z M256,472.5c-73.2,0-138.1-36.5-177.3-92.3h81V228.6L256,342.1
	l96.3-113.5v151.6h81C394.1,436,329.2,472.5,256,472.5z"/>
</svg>
