<?xml version="1.0" encoding="utf-8"?>
<!-- Generator: Adobe Illustrator 17.1.0, SVG Export Plug-In . SVG Version: 6.00 Build 0)  -->
<!DOCTYPE svg PUBLIC "-//W3C//DTD SVG 1.1//EN" "http://www.w3.org/Graphics/SVG/1.1/DTD/svg11.dtd">
<svg version="1.1" id="Layer_1" xmlns="http://www.w3.org/2000/svg" xmlns:xlink="http://www.w3.org/1999/xlink" x="0px" y="0px"
	 viewBox="0 0 512 512" enable-background="new 0 0 512 512" xml:space="preserve">
<path fill="#F4B728" d="M256,507c-11.4,0-20.6-9.2-20.6-20.6v-81.8h-81.8c-4.7,0-9.3-1.6-12.9-4.5c-8.9-7.1-10.3-20.1-3.2-29
	l178-222.5H153.6c-11.4,0-20.6-9.2-20.6-20.6c0-11.4,9.2-20.6,20.6-20.6h81.8V25.6C235.4,14.2,244.6,5,256,5
	c11.4,0,20.6,9.2,20.6,20.6v81.8h81.8c4.6,0,9.2,1.6,12.8,4.5c8.9,7.1,10.4,20.1,3.3,29l-178,222.5h161.9c11.4,0,20.6,9.2,20.6,20.6
	c0,11.4-9.2,20.6-20.6,20.6h-81.8v81.8C276.6,497.8,267.4,507,256,507z"/>
</svg>
